<svg id="svg215"
     xmlns="http://www.w3.org/2000/svg" viewBox="0 0 1487.5 640.75">
    <defs>
        <style>
            .corridor { fill: #3D3D3D; }
            .corridor-dark { fill: #303030; }

            .aud-0 {
                fill: #FF0000;
            }
            .aud-1 { fill: #4E7D92; }
            .aud-2 { fill: #3C5B8A; }
            .aud-3 {
                fill: #FFFFFF;
                fill-opacity: 0.9;
            }

            .letter {
                fill: #B9F2FF;
                fill-opacity: 0.9;
            }

            .s-1 { fill: #FFFFFF; }
            .s-0 {
                fill: #000000;
                fill-opacity: 0.8;
            }
            .s-t { fill-opacity: 0.5; }

            .wc-1 { fill: #445961; }
            .wc-0 {
                fill: #FFFFFF;
                fill-opacity: 0.9;
            }

            .din-1 { fill: #474F69; }
            .din-0 {
                fill: #FFFFFF;
                fill-opacity: 0.9;
            }

            .room-1 { fill: #636363; }
            .room-0 {
                fill: #FFFFFF;
                fill-opacity: 0.9;
            }
        </style>
    </defs>

    <g id="floor4">
        <path id="path2-5" class="corridor" d="M150,385.5a.94.94,0,0,1,1-1h30.5a.94.94,0,0,1,1,1V417H150Z"/>
        <path id="path4-5" class="corridor" d="M1262.5,432a2.5,2.5,0,0,1,5,0v2.5a2.5,2.5,0,0,1-5,0Z"/>
        <path id="path6-5" class="corridor" d="M1367.5,432a2.5,2.5,0,0,1,5,0v2.5a2.5,2.5,0,0,1-5,0Z"/>
        <path id="path8-5" class="corridor" d="M1385,414.5a2.5,2.5,0,0,1,5,0V417a2.5,2.5,0,0,1-5,0Z"/>
        <path id="path10-5" class="corridor" d="M1350,414.5a2.5,2.5,0,0,1,5,0V417a2.5,2.5,0,0,1-5,0Z"/>
        <path id="path12-5" class="corridor" d="M1262.5,414.5a2.5,2.5,0,0,1,5,0V417a2.5,2.5,0,0,1-5,0Z"/>
        <path id="path14-5" class="corridor" d="M1280,414.5a2.5,2.5,0,0,1,5,0V417a2.5,2.5,0,0,1-5,0Z"/>
        <path id="path16-5" class="corridor" d="M1315,414.5a2.5,2.5,0,0,1,5,0V417a2.5,2.5,0,0,1-5,0Z"/>
        <path id="path18-5" class="corridor" d="M1222.5,387a2.48,2.48,0,0,1,2.5-2.5h27.5a2.48,2.48,0,0,1,2.5,2.5v30a2.48,2.48,0,0,1-2.5,2.5h-30Z"/>
        <path id="path20-5" class="corridor" d="M1197.5,404.5a2.48,2.48,0,0,1,2.5-2.5h7.5v13.5H1200a2.48,2.48,0,0,1-2.5-2.5Z"/>
        <path id="path22-5" class="corridor" d="M1200,415.5c0-3.7,1.1-6.8,2.5-6.8s2.5,3,2.5,6.8v8.1c0,3.7-1.1,6.8-2.5,6.8s-2.5-3-2.5-6.8Z"/>
        <path id="path24-5" class="corridor" d="M1350,432a2.5,2.5,0,0,1,5,0v2.5a2.5,2.5,0,0,1-5,0Z"/>
        <path id="path26-5" class="corridor" d="M1332.5,432a2.5,2.5,0,0,1,5,0v2.5a2.5,2.5,0,0,1-5,0Z"/>
        <path id="path28-5" class="corridor" d="M1315,432a2.5,2.5,0,0,1,5,0v2.5a2.5,2.5,0,0,1-5,0Z"/>
        <path id="path30-4" class="corridor" d="M1297.5,432a2.5,2.5,0,0,1,5,0v2.5a2.5,2.5,0,0,1-5,0Z"/>
        <path id="path32-4" class="corridor" d="M1280,432a2.5,2.5,0,0,1,5,0v2.5a2.5,2.5,0,0,1-5,0Z"/>
        <path id="path34-5" class="corridor" d="M1227.5,432a2.5,2.5,0,0,1,5,0v2.5a2.5,2.5,0,0,1-5,0Z"/>
        <path id="path36-5" class="corridor" d="M1222.5,429.5V417h170a2.48,2.48,0,0,1,2.5,2.5V432H1225A2.48,2.48,0,0,1,1222.5,429.5Z"/>
        <path id="path38-5" class="corridor" d="M190,389.9a2.48,2.48,0,0,1-2.5,2.5h-4.8a2.48,2.48,0,0,1-2.5-2.5v-3a2.48,2.48,0,0,1,2.5-2.5h4.8a2.48,2.48,0,0,1,2.5,2.5Z"/>
        <path id="path40-5" class="corridor" d="M1332.5,414.5a2.5,2.5,0,0,1,5,0V417a2.5,2.5,0,0,1-5,0Z"/>
        <path id="path46-5" class="corridor-dark" d="M782.5,384.5A2.48,2.48,0,0,1,785,382h407.5a2.48,2.48,0,0,1,2.5,2.5v80a2.48,2.48,0,0,1-2.5,2.5H785a2.48,2.48,0,0,1-2.5-2.5Z"/>
        <path id="path48-5" class="corridor-dark" d="M195,382a2.48,2.48,0,0,0-2.5,2.5V392a2.48,2.48,0,0,1-2.5,2.5h-2.5A2.48,2.48,0,0,0,185,397v15a2.48,2.48,0,0,0,2.5,2.5H200a2.48,2.48,0,0,1,2.5,2.5v47.5A2.48,2.48,0,0,0,205,467H620a2.48,2.48,0,0,0,2.5-2.5v-80A2.48,2.48,0,0,0,620,382Z"/>
        <path id="path50-5" class="corridor" d="M747.5,432H762v31.5a1,1,0,0,1-1,1H748.5a.94.94,0,0,1-1-1Z"/>
        <rect id="rect52" class="corridor" x="745" y="437" width="2.5" height="5"/>
        <rect id="rect54" class="corridor" x="762" y="457" width="1" height="5"/>
        <rect id="rect56" class="corridor" x="32.5" y="414.5" width="5" height="2.5"/>
        <rect id="rect58" class="corridor" x="50" y="414.5" width="5" height="2.5"/>
        <rect id="rect60" class="corridor" x="77.5" y="414.5" width="5" height="2.5"/>
        <rect id="rect62" class="corridor" x="102.5" y="414.5" width="5" height="2.5"/>
        <rect id="rect64" class="corridor" x="120" y="414.5" width="5" height="2.5"/>
        <rect id="rect66" class="corridor" x="137.5" y="414.5" width="5" height="2.5"/>
        <rect id="rect68" class="corridor" x="137.5" y="432" width="5" height="2.5"/>
        <rect id="rect70" class="corridor" x="172.5" y="432" width="5" height="2.5"/>
        <rect id="rect72" class="corridor" x="102.5" y="432" width="5" height="2.5"/>
        <rect id="rect74" class="corridor" x="67.5" y="432" width="5" height="2.5"/>
        <rect id="rect76" class="corridor" x="32.5" y="432" width="5" height="2.5"/>
        <path id="s0" class="s-1" d="M696,464.5a.94.94,0,0,1-1-1V432h15v31.5a.94.94,0,0,1-1,1Z"/>
        <path id="s0_0" class="s-0" d="M698,442.4v2.8a.47.47,0,0,0,.5.5h2.3V448a.47.47,0,0,0,.5.5h2.3v2.3a.47.47,0,0,0,.5.5h2.3v2.3a.5.5,0,0,0,1,0v-2.9a.35.35,0,0,0-.4-.4h-2.3V448c0-.1-.1-.2-.1-.3a.37.37,0,0,0-.3-.1H702v-2.3a.35.35,0,0,0-.4-.4h-2.3v-2.3a.47.47,0,0,0-.5-.5c-.3,0-.8.1-.8.3Z"/>
        <path id="А-438" class="aud-1" d="M10,385.5a.94.94,0,0,1,1-1H24a.94.94,0,0,1,1,1v28a.94.94,0,0,1-1,1H11a.94.94,0,0,1-1-1Z"/>
        <path id="А-438_label" class="aud-3" d="M21,407.2l-1.5.5V410l1.5.5V412l-6.5-2.3V408l6.5-2.3Zm-2.7.8c-1.4.4-2.2.7-2.4.7a.76.76,0,0,1-.4.1c.4.1,1.3.4,2.8.8V408Zm.9-2.5H18.1v-2.4h1.1Zm.5-7.6v.8H21V400H19.7v2.7h-.9l-4.1-2.8v-1.3h4v-.8h1ZM18.6,400H16.1a2.51,2.51,0,0,1,.7.4l1.8,1.2V400ZM16,393.1a1.28,1.28,0,0,1,1,.4,1.7,1.7,0,0,1,.6,1h0a2.2,2.2,0,0,1,.5-1.2,1.16,1.16,0,0,1,1-.4,1.51,1.51,0,0,1,1.4.7,3.31,3.31,0,0,1,.5,1.9,5.82,5.82,0,0,1-.3,1.9H19.5a6.89,6.89,0,0,0,.3-.8,2.77,2.77,0,0,0,.1-.9,2.51,2.51,0,0,0-.2-1,.91.91,0,0,0-.7-.3.55.55,0,0,0-.6.4,3.26,3.26,0,0,0-.2,1.2v.5h-1V396a2.68,2.68,0,0,0-.2-1.1.78.78,0,0,0-.7-.3c-.5,0-.7.3-.7.9a1.27,1.27,0,0,0,.1.6,2.51,2.51,0,0,0,.4.7l-.9.6a3.7,3.7,0,0,1-.6-2.1,2.54,2.54,0,0,1,.4-1.6,1,1,0,0,1,1-.6ZM14.5,390a2.41,2.41,0,0,1,.4-1.5,1.38,1.38,0,0,1,1.1-.6,1.61,1.61,0,0,1,.9.3,2.18,2.18,0,0,1,.7.9,2.9,2.9,0,0,1,.8-1,1.62,1.62,0,0,1,2.2.3,2.77,2.77,0,0,1,.5,1.6,2.86,2.86,0,0,1-.4,1.7,1.49,1.49,0,0,1-1.3.6,1.69,1.69,0,0,1-1-.3,3.63,3.63,0,0,1-.8-.9,2.85,2.85,0,0,1-.7.8,1.49,1.49,0,0,1-.9.2,1.25,1.25,0,0,1-1.1-.6,2.41,2.41,0,0,1-.4-1.5Zm4.8,1a.71.71,0,0,0,.6-.3,1.45,1.45,0,0,0,.2-.7,1.88,1.88,0,0,0-.2-.8.6.6,0,0,0-.6-.3.55.55,0,0,0-.5.3,1.58,1.58,0,0,0-.5.8C18.5,390.7,18.9,391,19.3,391Zm-3.8-1a1.42,1.42,0,0,0,.2.6.76.76,0,0,0,.5.2c.2,0,.3-.1.5-.2a.65.65,0,0,0,0-1.2.72.72,0,0,0-1,0,1.07,1.07,0,0,0-.2.6Z"/>
        <path id="А-436" class="aud-1" d="M27.5,385.5a.94.94,0,0,1,1-1h13a.94.94,0,0,1,1,1v28a.94.94,0,0,1-1,1h-13a.94.94,0,0,1-1-1Z"/>
        <path id="А-436_label" class="aud-3" d="M38.5,407.2l-1.5.5V410l1.5.5V412L32,409.7V408l6.5-2.3Zm-2.7.8c-1.4.4-2.2.7-2.4.7a.76.76,0,0,1-.4.1c.4.1,1.3.4,2.8.8V408Zm.9-2.5H35.6v-2.4h1.1Zm.5-7.6v.8h1.3V400H37.2v2.7h-.9l-4.1-2.8v-1.3h4v-.8h1ZM36.1,400H33.6a2.51,2.51,0,0,1,.7.4l1.8,1.2V400Zm-2.6-6.9a1.28,1.28,0,0,1,1,.4,1.7,1.7,0,0,1,.6,1h0a2.2,2.2,0,0,1,.5-1.2,1.16,1.16,0,0,1,1-.4,1.51,1.51,0,0,1,1.4.7,3.31,3.31,0,0,1,.5,1.9,5.82,5.82,0,0,1-.3,1.9H37a6.89,6.89,0,0,0,.3-.8,2.77,2.77,0,0,0,.1-.9,2.51,2.51,0,0,0-.2-1,.91.91,0,0,0-.7-.3.55.55,0,0,0-.6.4,3.26,3.26,0,0,0-.2,1.2v.5h-1V396a2.68,2.68,0,0,0-.2-1.1.78.78,0,0,0-.7-.3c-.5,0-.7.3-.7.9a1.27,1.27,0,0,0,.1.6,2.51,2.51,0,0,0,.4.7l-.9.6a3.7,3.7,0,0,1-.6-2.1,2.54,2.54,0,0,1,.4-1.6,1,1,0,0,1,1-.6Zm2.3-.8a4.25,4.25,0,0,1-2.8-.8,3,3,0,0,1-.9-2.4,2.22,2.22,0,0,1,.1-.9h1.1a2.2,2.2,0,0,0-.1.8,3.09,3.09,0,0,0,.2,1.1,1.34,1.34,0,0,0,.6.7,3.5,3.5,0,0,0,1.2.3V391a1.51,1.51,0,0,1-.7-1.4,1.73,1.73,0,0,1,.5-1.3,2.46,2.46,0,0,1,1.5-.5,2.06,2.06,0,0,1,2.2,2.2,2.13,2.13,0,0,1-.3,1.2,1.65,1.65,0,0,1-1,.8,4.15,4.15,0,0,1-1.6.3Zm1.7-2.4a.91.91,0,0,0-.3-.7,1.08,1.08,0,0,0-.8-.2,1.17,1.17,0,0,0-.7.2.78.78,0,0,0-.3.7.91.91,0,0,0,.3.7.86.86,0,0,0,.6.3,1.61,1.61,0,0,0,.9-.3.78.78,0,0,0,.3-.7Z"/>
        <path id="А-434" class="aud-1" d="M45,385.5a.94.94,0,0,1,1-1H59a.94.94,0,0,1,1,1v28a.94.94,0,0,1-1,1H46a.94.94,0,0,1-1-1Z"/>
        <path id="А-434_label" class="aud-3" d="M56,407.2l-1.5.5V410l1.5.5V412l-6.5-2.3V408l6.5-2.3Zm-2.7.8c-1.4.4-2.2.7-2.4.7a.76.76,0,0,1-.4.1c.4.1,1.3.4,2.8.8V408Zm.9-2.5H53.1v-2.4h1.1Zm.5-7.6v.8H56V400H54.7v2.7h-.9l-4.1-2.8v-1.3h4v-.8h1ZM53.6,400H51.1a2.51,2.51,0,0,1,.7.4l1.8,1.2V400ZM51,393.1a1.28,1.28,0,0,1,1,.4,1.7,1.7,0,0,1,.6,1h0a2.2,2.2,0,0,1,.5-1.2,1.16,1.16,0,0,1,1-.4,1.51,1.51,0,0,1,1.4.7,3.31,3.31,0,0,1,.5,1.9,5.82,5.82,0,0,1-.3,1.9H54.5a6.89,6.89,0,0,0,.3-.8,2.77,2.77,0,0,0,.1-.9,2.51,2.51,0,0,0-.2-1,.91.91,0,0,0-.7-.3.55.55,0,0,0-.6.4,3.26,3.26,0,0,0-.2,1.2v.5h-1V396a2.68,2.68,0,0,0-.2-1.1.78.78,0,0,0-.7-.3c-.5,0-.7.3-.7.9a1.27,1.27,0,0,0,.1.6,2.51,2.51,0,0,0,.4.7l-.9.6a3.7,3.7,0,0,1-.6-2.1,2.54,2.54,0,0,1,.4-1.6,1,1,0,0,1,1-.6Zm3.7-5.5v.8H56v1.3H54.7v2.7h-.9l-4.1-2.8v-1.3h4v-.8h1Zm-1.1,2.1H51.1a2.51,2.51,0,0,1,.7.4l1.8,1.2v-1.6Z"/>
        <path id="А-433" class="aud-1" d="M62.5,385.5a.94.94,0,0,1,1-1H94a.94.94,0,0,1,1,1v28a.94.94,0,0,1-1,1H63.5a.94.94,0,0,1-1-1Z"/>
        <path id="А-433_label" class="aud-3" d="M71.3,402.5l-.5-1.5H68.5l-.5,1.5H66.5l2.3-6.5h1.7l2.3,6.5Zm-.8-2.7c-.4-1.4-.7-2.2-.7-2.4a.76.76,0,0,1-.1-.4c-.1.4-.4,1.3-.8,2.8Zm2.5.8v-1.1h2.4v1.1Zm7.6.5h-.8v1.3H78.5v-1.3H75.8v-.9l2.8-4.1h1.3v4h.8v1Zm-2.1-1v-2.5h0a2.51,2.51,0,0,1-.4.7l-1.2,1.8Zm6.9-2.6a1.28,1.28,0,0,1-.4,1,1.7,1.7,0,0,1-1,.6h0a2.2,2.2,0,0,1,1.2.5,1.16,1.16,0,0,1,.4,1,1.51,1.51,0,0,1-.7,1.4,3.31,3.31,0,0,1-1.9.5,5.82,5.82,0,0,1-1.9-.3V401a6.89,6.89,0,0,0,.8.3,2.77,2.77,0,0,0,.9.1,2.51,2.51,0,0,0,1-.2.91.91,0,0,0,.3-.7.55.55,0,0,0-.4-.6,2.87,2.87,0,0,0-1.2-.2H82v-1h.5a2.68,2.68,0,0,0,1.1-.2.78.78,0,0,0,.3-.7c0-.5-.3-.7-.9-.7a1.27,1.27,0,0,0-.6.1,2.51,2.51,0,0,0-.7.4l-.6-.9a3.7,3.7,0,0,1,2.1-.6,2.54,2.54,0,0,1,1.6.4.92.92,0,0,1,.6,1Zm5.1,0a1.28,1.28,0,0,1-.4,1,1.7,1.7,0,0,1-1,.6h0a2.2,2.2,0,0,1,1.2.5,1.16,1.16,0,0,1,.4,1A1.51,1.51,0,0,1,90,402a3.31,3.31,0,0,1-1.9.5,5.82,5.82,0,0,1-1.9-.3V401a6.89,6.89,0,0,0,.8.3,2.77,2.77,0,0,0,.9.1,2.51,2.51,0,0,0,1-.2.91.91,0,0,0,.3-.7.55.55,0,0,0-.4-.6,2.87,2.87,0,0,0-1.2-.2h-.5v-1h.5a2.68,2.68,0,0,0,1.1-.2.78.78,0,0,0,.3-.7c0-.5-.3-.7-.9-.7a1.27,1.27,0,0,0-.6.1,2.51,2.51,0,0,0-.7.4l-.6-.9a3.7,3.7,0,0,1,2.1-.6,2.54,2.54,0,0,1,1.6.4.92.92,0,0,1,.6,1Z"/>
        <path id="А-430" class="aud-1" d="M97.5,385.5a.94.94,0,0,1,1-1h13a.94.94,0,0,1,1,1v28a.94.94,0,0,1-1,1h-13a.94.94,0,0,1-1-1Z"/>
        <path id="А-430_label" class="aud-3" d="M108.5,407.2l-1.5.5V410l1.5.5V412l-6.5-2.3V408l6.5-2.3Zm-2.7.8c-1.4.4-2.2.7-2.4.7a.76.76,0,0,1-.4.1c.4.1,1.3.4,2.8.8V408Zm.9-2.5h-1.1v-2.4h1.1Zm.5-7.6v.8h1.3V400h-1.3v2.7h-.9l-4.1-2.8v-1.3h4v-.8h1Zm-1.1,2.1h-2.5a2.51,2.51,0,0,1,.7.4l1.8,1.2V400Zm-2.6-6.9a1.28,1.28,0,0,1,1,.4,1.7,1.7,0,0,1,.6,1h0a2.2,2.2,0,0,1,.5-1.2,1.16,1.16,0,0,1,1-.4,1.51,1.51,0,0,1,1.4.7,3.31,3.31,0,0,1,.5,1.9,5.82,5.82,0,0,1-.3,1.9H107a6.89,6.89,0,0,0,.3-.8,2.77,2.77,0,0,0,.1-.9,2.51,2.51,0,0,0-.2-1,.91.91,0,0,0-.7-.3.55.55,0,0,0-.6.4,2.87,2.87,0,0,0-.2,1.2v.5h-1V396a2.68,2.68,0,0,0-.2-1.1.78.78,0,0,0-.7-.3c-.5,0-.7.3-.7.9a1.27,1.27,0,0,0,.1.6,2.51,2.51,0,0,0,.4.7l-.9.6a3.7,3.7,0,0,1-.6-2.1,2.54,2.54,0,0,1,.4-1.6,1,1,0,0,1,1-.6Zm1.8-5.3a4.18,4.18,0,0,1,2.5.6,2,2,0,0,1,.8,1.7,2.14,2.14,0,0,1-.8,1.7,4.4,4.4,0,0,1-2.5.6,5.21,5.21,0,0,1-2.5-.5,2,2,0,0,1-.8-1.7,2.14,2.14,0,0,1,.8-1.7A3.73,3.73,0,0,1,105.3,387.8Zm0,3.1a5.94,5.94,0,0,0,1.7-.2.75.75,0,0,0,.5-.7c0-.3-.2-.5-.5-.7a7.33,7.33,0,0,0-3.4,0,.75.75,0,0,0-.5.7c0,.3.2.5.5.7a5.94,5.94,0,0,0,1.7.2Z"/>
        <path id="А-428" class="aud-1" d="M115,385.5a.94.94,0,0,1,1-1h13a.94.94,0,0,1,1,1v28a.94.94,0,0,1-1,1H116a.94.94,0,0,1-1-1Z"/>
        <path id="А-428_label" class="aud-3" d="M126,407.2l-1.5.5V410l1.5.5V412l-6.5-2.3V408l6.5-2.3Zm-2.7.8c-1.4.4-2.2.7-2.4.7a.76.76,0,0,1-.4.1c.4.1,1.3.4,2.8.8V408Zm.9-2.5h-1.1v-2.4h1.1Zm.5-7.6v.8H126V400h-1.3v2.7h-.9l-4.1-2.8v-1.3h4v-.8h1Zm-1.1,2.1h-2.5a2.51,2.51,0,0,1,.7.4l1.8,1.2V400Zm2.4-7.1v4.5h-.9l-1.6-1.6a5.8,5.8,0,0,0-1-.9c-.2-.1-.4-.3-.5-.3a.9.9,0,0,0-.5-.1.71.71,0,0,0-.8.8,1.85,1.85,0,0,0,.2.7,3,3,0,0,0,.5.7l-.9.7a3.28,3.28,0,0,1-.6-.8,4.88,4.88,0,0,1-.3-.7,2,2,0,0,1-.1-.8,3.59,3.59,0,0,1,.2-1.1c.1-.3.4-.5.6-.7a1.61,1.61,0,0,1,.9-.3,1.88,1.88,0,0,1,.8.2,3.51,3.51,0,0,1,.8.5,6.58,6.58,0,0,1,1.2,1.2l.8.8h.1v-2.8Zm-6.5-2.9a2.41,2.41,0,0,1,.4-1.5,1.38,1.38,0,0,1,1.1-.6,1.61,1.61,0,0,1,.9.3,2.18,2.18,0,0,1,.7.9,2.9,2.9,0,0,1,.8-1,1.62,1.62,0,0,1,2.2.3,2.77,2.77,0,0,1,.5,1.6,2.86,2.86,0,0,1-.4,1.7,1.49,1.49,0,0,1-1.3.6,1.69,1.69,0,0,1-1-.3,3.63,3.63,0,0,1-.8-.9,2.85,2.85,0,0,1-.7.8,1.49,1.49,0,0,1-.9.2,1.25,1.25,0,0,1-1.1-.6,2.41,2.41,0,0,1-.4-1.5Zm4.8,1a.71.71,0,0,0,.6-.3,1.45,1.45,0,0,0,.2-.7,1.88,1.88,0,0,0-.2-.8.6.6,0,0,0-.6-.3.55.55,0,0,0-.5.3,1.58,1.58,0,0,0-.5.8C123.5,390.7,123.9,391,124.3,391Zm-3.8-1a1.42,1.42,0,0,0,.2.6.76.76,0,0,0,.5.2c.2,0,.3-.1.5-.2a.65.65,0,0,0,0-1.2.73.73,0,0,0-1,0,1.42,1.42,0,0,0-.2.6Z"/>
        <path id="А-426" class="aud-1" d="M132.5,385.5a.94.94,0,0,1,1-1h13a.94.94,0,0,1,1,1v28a.94.94,0,0,1-1,1h-13a.94.94,0,0,1-1-1Z"/>
        <path id="А-426_label" class="aud-3" d="M143.5,407.2l-1.5.5V410l1.5.5V412l-6.5-2.3V408l6.5-2.3Zm-2.7.8c-1.4.4-2.2.7-2.4.7a.76.76,0,0,1-.4.1c.4.1,1.3.4,2.8.8V408Zm.9-2.5h-1.1v-2.4h1.1Zm.5-7.6v.8h1.3V400h-1.3v2.7h-.9l-4.1-2.8v-1.3h4v-.8h1Zm-1.1,2.1h-2.5a2.51,2.51,0,0,1,.7.4l1.8,1.2V400Zm2.4-7.1v4.5h-.9l-1.6-1.6a5.8,5.8,0,0,0-1-.9c-.2-.1-.4-.3-.5-.3a.9.9,0,0,0-.5-.1.71.71,0,0,0-.8.8,1.85,1.85,0,0,0,.2.7,3,3,0,0,0,.5.7l-.9.7a3.28,3.28,0,0,1-.6-.8,4.88,4.88,0,0,1-.3-.7,2,2,0,0,1-.1-.8,3.59,3.59,0,0,1,.2-1.1c.1-.3.4-.5.6-.7a1.61,1.61,0,0,1,.9-.3,1.88,1.88,0,0,1,.8.2,3.51,3.51,0,0,1,.8.5,6.58,6.58,0,0,1,1.2,1.2l.8.8h.1v-2.8Zm-2.7-.6a4.25,4.25,0,0,1-2.8-.8,3,3,0,0,1-.9-2.4,2.22,2.22,0,0,1,.1-.9h1.1a2.2,2.2,0,0,0-.1.8,3.09,3.09,0,0,0,.2,1.1,1.34,1.34,0,0,0,.6.7,10.38,10.38,0,0,0,1.2.3V391a1.51,1.51,0,0,1-.7-1.4,1.73,1.73,0,0,1,.5-1.3,2.46,2.46,0,0,1,1.5-.5,2.06,2.06,0,0,1,2.2,2.2,2.13,2.13,0,0,1-.3,1.2,1.65,1.65,0,0,1-1,.8,4.15,4.15,0,0,1-1.6.3Zm1.7-2.4a.91.91,0,0,0-.3-.7,1.08,1.08,0,0,0-.8-.2,1.17,1.17,0,0,0-.7.2.78.78,0,0,0-.3.7.91.91,0,0,0,.3.7.86.86,0,0,0,.6.3,1.61,1.61,0,0,0,.9-.3.78.78,0,0,0,.3-.7Z"/>
        <path id="А-429" class="aud-1" d="M27.5,435.5a.94.94,0,0,1,1-1H59a.94.94,0,0,1,1,1v28a.94.94,0,0,1-1,1H28.5a.94.94,0,0,1-1-1Z"/>
        <path id="А-429_label" class="aud-3" d="M36.3,452.5l-.5-1.5H33.5l-.5,1.5H31.5l2.3-6.5h1.7l2.3,6.5Zm-.8-2.7c-.4-1.4-.7-2.2-.7-2.4a.76.76,0,0,1-.1-.4c-.1.4-.4,1.3-.8,2.8Zm2.5.8v-1.1h2.4v1.1Zm7.6.5h-.8v1.3H43.5v-1.3H40.8v-.9l2.8-4.1h1.3v4h.8v1Zm-2.1-1v-2.5h0a2.51,2.51,0,0,1-.4.7l-1.2,1.8Zm7.1,2.4H46.1v-.9l1.6-1.6a5.8,5.8,0,0,0,.9-1c.1-.2.3-.4.3-.5a.9.9,0,0,0,.1-.5,1.07,1.07,0,0,0-.2-.6.85.85,0,0,0-.6-.2,1.85,1.85,0,0,0-.7.2,3,3,0,0,0-.7.5l-.7-.9a3.28,3.28,0,0,1,.8-.6,4.88,4.88,0,0,1,.7-.3,2,2,0,0,1,.8-.1,3.59,3.59,0,0,1,1.1.2c.3.1.5.4.7.6a1.61,1.61,0,0,1,.3.9,1.88,1.88,0,0,1-.2.8,3.51,3.51,0,0,1-.5.8,6.58,6.58,0,0,1-1.2,1.2l-.8.8v.1h2.8v1.1Zm5.1-3.7a4.25,4.25,0,0,1-.8,2.8,3,3,0,0,1-2.4.9,2.22,2.22,0,0,1-.9-.1v-1.1a2,2,0,0,0,.8.1,3.09,3.09,0,0,0,1.1-.2,1.34,1.34,0,0,0,.7-.6,3.5,3.5,0,0,0,.3-1.2h-.1a1.7,1.7,0,0,1-.6.6,1.88,1.88,0,0,1-.8.2,1.73,1.73,0,0,1-1.3-.5,2.46,2.46,0,0,1-.5-1.5,2.06,2.06,0,0,1,2.2-2.2,2.13,2.13,0,0,1,1.2.3,1.65,1.65,0,0,1,.8,1A3.34,3.34,0,0,1,55.7,448.8Zm-2.3-1.7a.91.91,0,0,0-.7.3,1.08,1.08,0,0,0-.2.8,1.17,1.17,0,0,0,.2.7.78.78,0,0,0,.7.3.91.91,0,0,0,.7-.3.86.86,0,0,0,.3-.6,1.61,1.61,0,0,0-.3-.9A.91.91,0,0,0,53.4,447.1Z"/>
        <path id="А-427" class="aud-1" d="M62.5,435.5a.94.94,0,0,1,1-1H94a.94.94,0,0,1,1,1v28a.94.94,0,0,1-1,1H63.5a.94.94,0,0,1-1-1Z"/>
        <path id="А-427_label" class="aud-3" d="M71.3,452.5l-.5-1.5H68.5l-.5,1.5H66.5l2.3-6.5h1.7l2.3,6.5Zm-.8-2.7c-.4-1.4-.7-2.2-.7-2.4a.76.76,0,0,1-.1-.4c-.1.4-.4,1.3-.8,2.8Zm2.5.8v-1.1h2.4v1.1Zm7.6.5h-.8v1.3H78.5v-1.3H75.8v-.9l2.8-4.1h1.3v4h.8v1Zm-2.1-1v-2.5h0a2.51,2.51,0,0,1-.4.7l-1.2,1.8Zm7.1,2.4H81.1v-.9l1.6-1.6a5.8,5.8,0,0,0,.9-1c.1-.2.3-.4.3-.5a.9.9,0,0,0,.1-.5,1.07,1.07,0,0,0-.2-.6.85.85,0,0,0-.6-.2,1.85,1.85,0,0,0-.7.2,3,3,0,0,0-.7.5l-.7-.9a3.28,3.28,0,0,1,.8-.6,4.88,4.88,0,0,1,.7-.3,2,2,0,0,1,.8-.1,3.59,3.59,0,0,1,1.1.2c.3.1.5.4.7.6a1.61,1.61,0,0,1,.3.9,1.88,1.88,0,0,1-.2.8,3.51,3.51,0,0,1-.5.8,6.58,6.58,0,0,1-1.2,1.2l-.8.8v.1h2.8v1.1Zm1.3,0,2.4-5.3H86.1v-1.1h4.6v.9l-2.4,5.6H86.9Z"/>
        <path id="А-425" class="aud-1" d="M97.5,435.5a.94.94,0,0,1,1-1H129a.94.94,0,0,1,1,1v28a.94.94,0,0,1-1,1H98.5a.94.94,0,0,1-1-1Z"/>
        <path id="А-425_label" class="aud-3" d="M106.3,452.5l-.5-1.5h-2.3l-.5,1.5h-1.5l2.3-6.5h1.7l2.3,6.5Zm-.8-2.7c-.4-1.4-.7-2.2-.7-2.4a.76.76,0,0,1-.1-.4c-.1.4-.4,1.3-.8,2.8Zm2.5.8v-1.1h2.4v1.1Zm7.6.5h-.8v1.3h-1.3v-1.3h-2.7v-.9l2.8-4.1h1.3v4h.8v1Zm-2.1-1v-2.5h0a2.51,2.51,0,0,1-.4.7l-1.2,1.8Zm7.1,2.4h-4.5v-.9l1.6-1.6a5.8,5.8,0,0,0,.9-1c.1-.2.3-.4.3-.5a.9.9,0,0,0,.1-.5,1.07,1.07,0,0,0-.2-.6.85.85,0,0,0-.6-.2,1.85,1.85,0,0,0-.7.2,3,3,0,0,0-.7.5l-.7-.9a3.28,3.28,0,0,1,.8-.6,4.88,4.88,0,0,1,.7-.3,2,2,0,0,1,.8-.1,3.59,3.59,0,0,1,1.1.2c.3.1.5.4.7.6a1.61,1.61,0,0,1,.3.9,1.88,1.88,0,0,1-.2.8,3.51,3.51,0,0,1-.5.8,6.58,6.58,0,0,1-1.2,1.2l-.8.8v.1h2.8v1.1Zm3-4.1a2.46,2.46,0,0,1,1.5.5,1.68,1.68,0,0,1,.6,1.4,2.06,2.06,0,0,1-.7,1.7,2.71,2.71,0,0,1-1.9.6,4,4,0,0,1-1.7-.3v-1.2a6.89,6.89,0,0,0,.8.3,2.77,2.77,0,0,0,.9.1c.8,0,1.2-.3,1.2-1s-.4-1-1.3-1h-.5c-.2,0-.3.1-.5.1l-.5-.3.2-3.3h3.5v1.2h-2.3l-.1,1.3h.2c.1-.1.3-.1.6-.1Z"/>
        <path id="А-426-1" class="aud-1" d="M132.5,435.5a.94.94,0,0,1,1-1h13a.94.94,0,0,1,1,1v28a.94.94,0,0,1-1,1h-13a.94.94,0,0,1-1-1Z"/>
        <path id="А-426-1_label" class="aud-3" d="M143,458.3l-1.2.4v1.8l1.2.4V462l-5-1.8v-1.3l5-1.8Zm-2.1.6a8,8,0,0,0-1.8.6,1,1,0,0,0-.3.1c.3.1,1,.3,2.2.6v-1.3Zm.7-2h-.9v-1.8h.9Zm.4-5.9v.6h1v1h-1v2.1h-.7l-3.2-2.2v-1h3.1v-.6h.8Zm-.8,1.6h-1.9a2.19,2.19,0,0,1,.5.3l1.4.9v-1.2Zm1.8-5.5v3.5h-.7l-1.3-1.3a3.78,3.78,0,0,0-.8-.7.76.76,0,0,0-.4-.2.6.6,0,0,0-.4-.1.52.52,0,0,0-.4.2.6.6,0,0,0-.1.4,1.27,1.27,0,0,0,.1.6,2.09,2.09,0,0,0,.4.6l-.7.6a1.52,1.52,0,0,1-.4-.6c-.1-.2-.2-.3-.2-.5s-.1-.4-.1-.6a1.88,1.88,0,0,1,.2-.8,2.65,2.65,0,0,1,.5-.6,1.45,1.45,0,0,1,.7-.2,1.27,1.27,0,0,1,.6.1,2.09,2.09,0,0,1,.6.4l.9.9.6.6h0v-2.2h.9Zm-2.1-.5a3.4,3.4,0,0,1-2.2-.6,2.23,2.23,0,0,1-.7-1.9,1.48,1.48,0,0,1,.1-.7h.8c0,.2-.1.4-.1.6a2,2,0,0,0,.2.9,1.21,1.21,0,0,0,.5.5,2,2,0,0,0,.9.2h0a1.37,1.37,0,0,1-.2-2.1,1.59,1.59,0,0,1,1.2-.4,1.9,1.9,0,0,1,1.3.5,1.73,1.73,0,0,1,.5,1.3,1.69,1.69,0,0,1-.3,1,1.34,1.34,0,0,1-.7.6,5.28,5.28,0,0,1-1.3.1Zm1.3-1.8a.76.76,0,0,0-.2-.5,1,1,0,0,0-1.2,0,.73.73,0,0,0,0,1c.1.2.3.2.5.2a1.45,1.45,0,0,0,.7-.2.59.59,0,0,0,.2-.5Zm-.6-2.1h-.9v-1.8h.9Zm1.4-5v1.1h-3.9c.2.2.3.3.3.4l.5.6-.6.5-1.3-1.6v-1Z"/>
        <path id="wc11" class="wc-1" d="M167.5,435.5a.94.94,0,0,1,1-1h13a.94.94,0,0,1,1,1v28a.94.94,0,0,1-1,1h-13a.94.94,0,0,1-1-1Z"/>
        <path id="wc11_0" class="wc-0" d="M175,445.5a2,2,0,1,0-2-2A2,2,0,0,0,175,445.5Zm4,7.1-1.4-5.8a1.22,1.22,0,0,0-.9-.8,3,3,0,0,1-1.6.5,2.77,2.77,0,0,1-1.6-.5,1,1,0,0,0-.9.8l-1.4,5.8a.77.77,0,0,0,.8.9h1.7v3.2a.79.79,0,0,0,.8.8H176a.71.71,0,0,0,.7-.8v-3.2h1.7a.8.8,0,0,0,.6-.9Z"/>
        <path id="А-418-1" class="aud-1" d="M185,418a.94.94,0,0,1,1-1h13a.94.94,0,0,1,1,1v45.5a.94.94,0,0,1-1,1H186a.94.94,0,0,1-1-1Z"/>
        <path id="А-418-1_label" class="aud-3" d="M196,452.25l-1.5.5v2.3l1.5.5v1.5l-6.5-2.3v-1.7l6.5-2.3Zm-2.7.8c-1.4.4-2.2.7-2.4.7a.76.76,0,0,1-.4.1c.4.1,1.3.4,2.8.8v-1.6Zm.9-2.5h-1.1v-2.4h1.1Zm1.8-11.5v1.4h-5c.2.2.4.4.4.5l.6.7-.8.7-1.6-2.1v-1.1H196Zm-6.5-4a2.41,2.41,0,0,1,.4-1.5,1.38,1.38,0,0,1,1.1-.6,1.61,1.61,0,0,1,.9.3,2.18,2.18,0,0,1,.7.9,2.9,2.9,0,0,1,.8-1,1.62,1.62,0,0,1,2.2.3,2.77,2.77,0,0,1,.5,1.6,2.86,2.86,0,0,1-.4,1.7,1.49,1.49,0,0,1-1.3.6,1.69,1.69,0,0,1-1-.3,3.63,3.63,0,0,1-.8-.9,2.85,2.85,0,0,1-.7.8,1.49,1.49,0,0,1-.9.2,1.25,1.25,0,0,1-1.1-.6,2.08,2.08,0,0,1-.4-1.5Zm4.8,1a.71.71,0,0,0,.6-.3,1.45,1.45,0,0,0,.2-.7,1.88,1.88,0,0,0-.2-.8.6.6,0,0,0-.6-.3.55.55,0,0,0-.5.3,1.58,1.58,0,0,0-.5.8C193.5,435.75,193.9,436.05,194.3,436.05Zm-3.8-.9a1.42,1.42,0,0,0,.2.6.76.76,0,0,0,.5.2c.2,0,.3-.1.5-.2a.65.65,0,0,0,0-1.2.73.73,0,0,0-1,0,.85.85,0,0,0-.2.6Zm3.7-2.9h-1.1v-2.4h1.1ZM196,426v1.4h-5c.2.2.4.4.4.5l.6.7-.8.7-1.6-2.1v-1.1H196Zm-1.8,24.6h-1.1v-2.4h1.1Zm.6-7.6v.8h1.3v1.3h-1.3v2.7h-.9l-4.1-2.8v-1.3h4v-.8h1Zm-1.1,2.1h-2.5a2.51,2.51,0,0,1,.7.4l1.8,1.2Z"/>
        <path id="А-420" class="aud-1" d="M625,385.5a.94.94,0,0,1,1-1h13a1,1,0,0,1,1,1v28a1,1,0,0,1-1,1H626a.94.94,0,0,1-1-1Z"/>
        <path id="А-420_label" class="aud-3" d="M635.5,407.2l-1.5.5V410l1.5.5V412l-6.5-2.3V408l6.5-2.3Zm-2.7.8c-1.4.4-2.2.7-2.4.7a.76.76,0,0,1-.4.1c.4.1,1.3.4,2.8.8Zm.8-2.5h-1.1v-2.4h1.1Zm.6-7.6v.8h1.3V400h-1.3v2.7h-.9l-4.1-2.8v-1.3h4v-.8h1Zm-1.1,2.1h-2.5a2.51,2.51,0,0,1,.7.4l1.8,1.2Zm2.4-7.1v4.5h-.9l-1.6-1.6a5.8,5.8,0,0,0-1-.9c-.2-.1-.4-.3-.5-.3a.9.9,0,0,0-.5-.1,1.07,1.07,0,0,0-.6.2.85.85,0,0,0-.2.6,1.85,1.85,0,0,0,.2.7,3,3,0,0,0,.5.7l-.9.7a3.28,3.28,0,0,1-.6-.8,4.88,4.88,0,0,1-.3-.7,2.2,2.2,0,0,1-.1-.8,3.59,3.59,0,0,1,.2-1.1,1.34,1.34,0,0,1,.6-.7,1.61,1.61,0,0,1,.9-.3,1.88,1.88,0,0,1,.8.2,3.51,3.51,0,0,1,.8.5,6.58,6.58,0,0,1,1.2,1.2l.8.8h.1v-2.8Zm-3.2-5.1a4.18,4.18,0,0,1,2.5.6,2,2,0,0,1,.8,1.7,2.14,2.14,0,0,1-.8,1.7,4.4,4.4,0,0,1-2.5.6,5.21,5.21,0,0,1-2.5-.5,2,2,0,0,1-.8-1.7,2.14,2.14,0,0,1,.8-1.7,3.73,3.73,0,0,1,2.5-.7Zm0,3.1a6.53,6.53,0,0,0,1.7-.2.75.75,0,0,0,.5-.7c0-.3-.2-.5-.5-.7a7.32,7.32,0,0,0-3.4,0,.75.75,0,0,0-.5.7c0,.3.2.5.5.7a5.94,5.94,0,0,0,1.7.2Z"/>
        <path id="А-420-1" class="aud-1" d="M642.5,385.5a.94.94,0,0,1,1-1h13a1,1,0,0,1,1,1v28a1,1,0,0,1-1,1h-13a.94.94,0,0,1-1-1Z"/>
        <path id="А-420-1_label" class="aud-3" d="M653,409l-1.3.4v2l1.3.4V413l-5.4-1.9v-1.4l5.4-1.9Zm-2.2.7a12.94,12.94,0,0,1-2,.6c-.2,0-.3.1-.4.1.3.1,1.1.3,2.3.7v-1.4Zm.7-2.1h-.9v-2h.9Zm.4-6.4v.6H653v1.1h-1.1v2.3h-.8l-3.5-2.3v-1H651v-.6h.9ZM651,403h-2.1l.6.3,1.5,1Zm2-5.9v3.7h-.8l-1.4-1.3-.8-.8a1.38,1.38,0,0,1-.4-.3.6.6,0,0,0-.4-.1.68.68,0,0,0-.7.7,1.27,1.27,0,0,0,.1.6,2.09,2.09,0,0,0,.4.6l-.7.6c-.2-.3-.4-.5-.5-.7a1.42,1.42,0,0,1-.2-.6,1.48,1.48,0,0,1-.1-.7,2.92,2.92,0,0,1,.2-.9,1,1,0,0,1,.5-.6,1.88,1.88,0,0,1,.8-.2,1.7,1.7,0,0,1,.7.1,5.74,5.74,0,0,1,.7.4l1,1,.6.7h.1V397h.9Zm-2.7-4.3a4.06,4.06,0,0,1,2.1.5,1.75,1.75,0,0,1,0,2.8,3.81,3.81,0,0,1-2.1.5,4.06,4.06,0,0,1-2.1-.5,1.75,1.75,0,0,1-.7-1.4,1.51,1.51,0,0,1,.7-1.4A4.06,4.06,0,0,1,650.3,392.82Zm0,2.6a4.14,4.14,0,0,0,1.4-.2.65.65,0,0,0,0-1.2,4.64,4.64,0,0,0-1.4-.2,4.14,4.14,0,0,0-1.4.2.65.65,0,0,0,0,1.2,2.76,2.76,0,0,0,1.4.2Zm1.25-3.06h-.94v-2.2h.94Zm1.55-5.78v1.28h-4.3c.18.18.35.37.35.46l.51.64-.68.65-1.38-1.93v-1h5.5Z"/>
        <path id="А-419" class="aud-1" d="M660,385.5a.94.94,0,0,1,1-1h13a1,1,0,0,1,1,1v28a1,1,0,0,1-1,1H661a.94.94,0,0,1-1-1Z"/>
        <path id="А-419_label" class="aud-3" d="M670.5,407.2l-1.5.5V410l1.5.5V412l-6.5-2.3V408l6.5-2.3Zm-2.7.8c-1.4.4-2.2.7-2.4.7a.76.76,0,0,1-.4.1c.4.1,1.3.4,2.8.8Zm.8-2.5h-1.1v-2.4h1.1Zm.6-7.6v.8h1.3V400h-1.3v2.7h-.9l-4.1-2.8v-1.3h4v-.8h1Zm-1.1,2.1h-2.5a2.51,2.51,0,0,1,.7.4l1.8,1.2Zm2.4-6v1.4h-5c.2.2.4.4.4.5l.6.7-.8.7-1.7-2.1v-1.1h6.5Zm-3.7-6.2a4.25,4.25,0,0,1,2.8.8,3,3,0,0,1,.9,2.4,2.22,2.22,0,0,1-.1.9h-1.1a2,2,0,0,0,.1-.8,3.09,3.09,0,0,0-.2-1.1,1.34,1.34,0,0,0-.6-.7,3.5,3.5,0,0,0-1.2-.3v.1a1.7,1.7,0,0,1,.6.6,1.88,1.88,0,0,1,.2.8,1.73,1.73,0,0,1-.5,1.3,2.46,2.46,0,0,1-1.5.5,2.06,2.06,0,0,1-2.2-2.2,2.13,2.13,0,0,1,.3-1.2,1.65,1.65,0,0,1,1-.8A2.39,2.39,0,0,1,666.8,387.8Zm-1.7,2.3a.91.91,0,0,0,.3.7,1.08,1.08,0,0,0,.8.2,1.17,1.17,0,0,0,.7-.2.78.78,0,0,0,.3-.7.91.91,0,0,0-.3-.7.86.86,0,0,0-.6-.3,1.61,1.61,0,0,0-.9.3.91.91,0,0,0-.3.7Z"/>
        <path id="А-439" class="aud-1" d="M677.5,385.5a.94.94,0,0,1,1-1h13a1,1,0,0,1,1,1v28a1,1,0,0,1-1,1h-13a.94.94,0,0,1-1-1Z"/>
        <path id="А-439_label" class="aud-3" d="M688.5,407.2l-1.5.5V410l1.5.5V412l-6.5-2.3V408l6.5-2.3Zm-2.7.8c-1.4.4-2.2.7-2.4.7a.76.76,0,0,1-.4.1c.4.1,1.3.4,2.8.8Zm.8-2.5h-1.1v-2.4h1.1Zm.6-7.6v.8h1.3V400h-1.3v2.7h-.9l-4.1-2.8v-1.3h4v-.8h1Zm-1.1,2.1h-2.5a2.51,2.51,0,0,1,.7.4l1.8,1.2Zm-2.6-6.9a1.28,1.28,0,0,1,1,.4,1.7,1.7,0,0,1,.6,1h0a2.2,2.2,0,0,1,.5-1.2,1.28,1.28,0,0,1,1-.4,1.51,1.51,0,0,1,1.4.7,3.31,3.31,0,0,1,.5,1.9,4.06,4.06,0,0,1-.4,1.9h-1.2a6.89,6.89,0,0,0,.3-.8,2.77,2.77,0,0,0,.1-.9,2.51,2.51,0,0,0-.2-1,.91.91,0,0,0-.7-.3.55.55,0,0,0-.6.4,2.87,2.87,0,0,0-.2,1.2v.5h-1V396a2.68,2.68,0,0,0-.2-1.1.78.78,0,0,0-.7-.3c-.5,0-.7.3-.7.9a1.27,1.27,0,0,0,.1.6,2.51,2.51,0,0,0,.4.7l-.9.6a3.7,3.7,0,0,1-.6-2.1,2.54,2.54,0,0,1,.4-1.6,1.25,1.25,0,0,1,1.1-.6Zm1.3-5.3a4.25,4.25,0,0,1,2.8.8,3,3,0,0,1,.9,2.4,2.22,2.22,0,0,1-.1.9h-1.1a2,2,0,0,0,.1-.8,3.09,3.09,0,0,0-.2-1.1,1.34,1.34,0,0,0-.6-.7,3.5,3.5,0,0,0-1.2-.3v.1a1.7,1.7,0,0,1,.6.6,1.88,1.88,0,0,1,.2.8,1.73,1.73,0,0,1-.5,1.3,2.46,2.46,0,0,1-1.5.5,2.06,2.06,0,0,1-2.2-2.2,2.13,2.13,0,0,1,.3-1.2,1.65,1.65,0,0,1,1-.8A2.39,2.39,0,0,1,684.8,387.8Zm-1.7,2.3a.91.91,0,0,0,.3.7,1.08,1.08,0,0,0,.8.2,1.17,1.17,0,0,0,.7-.2.78.78,0,0,0,.3-.7.91.91,0,0,0-.3-.7.86.86,0,0,0-.6-.3,1.61,1.61,0,0,0-.9.3.91.91,0,0,0-.3.7Z"/>
        <path id="А-418" class="aud-1" d="M712.5,385.5a.94.94,0,0,1,1-1H744a1,1,0,0,1,1,1v28a1,1,0,0,1-1,1H713.5a.94.94,0,0,1-1-1Z"/>
        <path id="А-418_label" class="aud-3" d="M720.8,403l-.5-1.5H718l-.5,1.5H716l2.3-6.5H720l2.3,6.5Zm-.8-2.7c-.4-1.4-.7-2.2-.7-2.4a.76.76,0,0,1-.1-.4c-.1.4-.4,1.3-.8,2.8Zm2.5.8V400h2.4v1.1Zm7.6.5h-.8v1.3H728v-1.3h-2.7v-.9l2.8-4.1h1.2v4h.8Zm-2.1-1v-2.5h0a2.51,2.51,0,0,1-.4.7l-1.2,1.8Zm6,2.4h-1.4v-5c-.2.2-.4.4-.5.4l-.7.6-.7-.8,2.1-1.6h1.1V403Zm4-6.5a2.41,2.41,0,0,1,1.5.4,1.38,1.38,0,0,1,.6,1.1,1.61,1.61,0,0,1-.3.9,2.18,2.18,0,0,1-.9.7,2.9,2.9,0,0,1,1,.8,1.62,1.62,0,0,1-.3,2.2,2.77,2.77,0,0,1-1.6.5,2.86,2.86,0,0,1-1.7-.4,1.49,1.49,0,0,1-.6-1.3,1.69,1.69,0,0,1,.3-1,3.63,3.63,0,0,1,.9-.8,2.85,2.85,0,0,1-.8-.7,1.49,1.49,0,0,1-.2-.9,1.25,1.25,0,0,1,.6-1.1,2.41,2.41,0,0,1,1.5-.4Zm-1,4.8a.71.71,0,0,0,.3.6,1.45,1.45,0,0,0,.7.2,1.88,1.88,0,0,0,.8-.2c.2-.1.2-.3.2-.6a.76.76,0,0,0-.2-.5,1.58,1.58,0,0,0-.8-.5c-.7.2-1,.5-1,1Zm1-3.8a1.42,1.42,0,0,0-.6.2.76.76,0,0,0-.2.5c0,.2.1.3.2.5a.65.65,0,0,0,1.2,0,.73.73,0,0,0,0-1,.73.73,0,0,0-.6-.2Z"/>
        <path id="А-417" class="aud-1" d="M747.5,385.5a.94.94,0,0,1,1-1h13a1,1,0,0,1,1,1v28a1,1,0,0,1-1,1h-13a.94.94,0,0,1-1-1Z"/>
        <path id="А-417_label" class="aud-3" d="M759,407.2l-1.5.5V410l1.5.5V412l-6.5-2.3V408l6.5-2.3Zm-2.7.8c-1.4.4-2.2.7-2.4.7a.76.76,0,0,1-.4.1c.4.1,1.3.4,2.8.8Zm.8-2.5H756v-2.4h1.1Zm.6-7.6v.8H759V400h-1.3v2.7h-.9l-4.1-2.8v-1.3h4v-.8h1Zm-1.1,2.1h-2.5a2.51,2.51,0,0,1,.7.4l1.8,1.2Zm2.4-6v1.4h-5c.2.2.4.4.4.5l.6.7-.8.7-1.7-2.1v-1.1H759Zm0-2.4-5.3-2.4v3.2h-1.1v-4.7h.8l5.6,2.4Z"/>
        <path id="А-416" class="aud-1" d="M765,385.5a.94.94,0,0,1,1-1h13a1,1,0,0,1,1,1v28a1,1,0,0,1-1,1H766a.94.94,0,0,1-1-1Z"/>
        <path id="А-416_label" class="aud-3" d="M776,407.2l-1.5.5V410l1.5.5V412l-6.5-2.3V408l6.5-2.3Zm-2.7.8c-1.4.4-2.2.7-2.4.7a.76.76,0,0,1-.4.1c.4.1,1.3.4,2.8.8Zm.8-2.5H773v-2.4h1.1Zm.6-7.6v.8H776V400h-1.3v2.7h-.9l-4.1-2.8v-1.3h4v-.8h1Zm-1.1,2.1h-2.5a2.51,2.51,0,0,1,.7.4l1.8,1.2Zm2.4-6v1.4h-5c.2.2.4.4.4.5l.6.7-.8.7-1.7-2.1v-1.1H776Zm-2.7-1.7a4.25,4.25,0,0,1-2.8-.8,3,3,0,0,1-.9-2.4,2.22,2.22,0,0,1,.1-.9h1.1a2.2,2.2,0,0,0-.1.8,3.09,3.09,0,0,0,.2,1.1c.1.3.4.5.6.7a10.38,10.38,0,0,0,1.2.3V391a1.51,1.51,0,0,1-.7-1.4,1.73,1.73,0,0,1,.5-1.3,2.46,2.46,0,0,1,1.5-.5,2.06,2.06,0,0,1,2.2,2.2,2.13,2.13,0,0,1-.3,1.2,1.65,1.65,0,0,1-1,.8,4.15,4.15,0,0,1-1.6.3Zm1.7-2.4a.91.91,0,0,0-.3-.7,1.08,1.08,0,0,0-.8-.2,1.17,1.17,0,0,0-.7.2.78.78,0,0,0-.3.7.91.91,0,0,0,.3.7.86.86,0,0,0,.6.3,1.61,1.61,0,0,0,.9-.3.78.78,0,0,0,.3-.7Z"/>
        <path id="А-421-1" class="aud-1" d="M625,435.5a.94.94,0,0,1,1-1h13a1,1,0,0,1,1,1v28a1,1,0,0,1-1,1H626a.94.94,0,0,1-1-1Z"/>
        <path id="А-421-1_label" class="aud-3" d="M635.5,458.3l-1.2.4v1.8l1.2.4V462l-5-1.8v-1.3l5-1.8Zm-2.1.6a8,8,0,0,0-1.8.6,1,1,0,0,0-.3.1c.3.1,1,.3,2.2.6v-1.3Zm.7-2h-.9v-1.8h.9Zm.4-5.9v.6h1v1h-1v2.1h-.7l-3.2-2.2v-1h3.1v-.6h.8Zm-.8,1.6h-1.9a2.19,2.19,0,0,1,.5.3l1.4.9Zm1.8-5.5v3.5h-.7l-1.3-1.3a3.78,3.78,0,0,0-.8-.7c-.2-.1-.3-.2-.4-.2a.6.6,0,0,0-.4-.1.52.52,0,0,0-.4.2.6.6,0,0,0-.1.4,1.27,1.27,0,0,0,.1.6,2.09,2.09,0,0,0,.4.6l-.7.6a1.52,1.52,0,0,1-.4-.6c-.1-.2-.2-.3-.2-.5a1.27,1.27,0,0,1-.1-.6,1.88,1.88,0,0,1,.2-.8,2.65,2.65,0,0,1,.5-.6,1.45,1.45,0,0,1,.7-.2,1.27,1.27,0,0,1,.6.1,2.09,2.09,0,0,1,.6.4l.9.9.6.6h0v-2.2h.9Zm0-3.1v1.1h-3.9c.2.2.3.3.3.4l.5.6-.6.5-1.3-1.6v-.9h5Zm-1.4-1.3h-.9v-1.8h.9Zm1.4-5v1.1h-3.9c.2.2.3.3.3.4l.5.6-.6.5-1.3-1.6v-1Z"/>
        <path id="А-422" class="aud-1" d="M661,449.5a.94.94,0,0,1-1-1v-13a.94.94,0,0,1,1-1h30.5a1,1,0,0,1,1,1v13a1,1,0,0,1-1,1Z"/>
        <path id="А-422_label" class="aud-3" d="M668.3,445.5l-.5-1.5h-2.3l-.5,1.5h-1.5l2.3-6.5h1.7l2.3,6.5Zm-.8-2.7c-.4-1.4-.7-2.2-.7-2.4a.76.76,0,0,1-.1-.4c-.1.4-.4,1.3-.8,2.8Zm2.5.8v-1.1h2.4v1.1Zm7.6.5h-.8v1.3h-1.3v-1.3h-2.7v-.9l2.8-4.1h1.2v4h.8Zm-2.1-1v-2.5h0a2.51,2.51,0,0,1-.4.7l-1.2,1.8Zm7.1,2.4h-4.5v-.9l1.6-1.6a5.8,5.8,0,0,0,.9-1,2.19,2.19,0,0,1,.3-.5.9.9,0,0,0,.1-.5,1.07,1.07,0,0,0-.2-.6.85.85,0,0,0-.6-.2,1.85,1.85,0,0,0-.7.2,3,3,0,0,0-.7.5l-.7-.9a3.28,3.28,0,0,1,.8-.6,4.88,4.88,0,0,1,.7-.3,2,2,0,0,1,.8-.1,3.59,3.59,0,0,1,1.1.2c.3.1.5.4.7.6a1.61,1.61,0,0,1,.3.9,1.88,1.88,0,0,1-.2.8,3.51,3.51,0,0,1-.5.8,10,10,0,0,1-1.1,1.2l-.8.8v.1h2.8v1.1Zm5.2,0h-4.5v-.9l1.6-1.6a5.8,5.8,0,0,0,.9-1,.91.91,0,0,0,.3-.5.9.9,0,0,0,.1-.5,1.07,1.07,0,0,0-.2-.6.85.85,0,0,0-.6-.2,1.85,1.85,0,0,0-.7.2,3,3,0,0,0-.7.5l-.7-.9a3.28,3.28,0,0,1,.8-.6,4.88,4.88,0,0,1,.7-.3,2,2,0,0,1,.8-.1,3.59,3.59,0,0,1,1.1.2c.3.1.5.4.7.6a1.61,1.61,0,0,1,.3.9,1.88,1.88,0,0,1-.2.8,3.51,3.51,0,0,1-.5.8,6.58,6.58,0,0,1-1.2,1.2l-.8.8v.1h2.8v1.1Z"/>
        <path id="А-424" class="aud-1" d="M661,464.5a.94.94,0,0,1-1-1V453a.94.94,0,0,1,1-1h30.5a1,1,0,0,1,1,1v10.5a1,1,0,0,1-1,1Z"/>
        <path id="А-424_label" class="aud-3" d="M668.3,461l-.5-1.5h-2.3L665,461h-1.5l2.3-6.5h1.7l2.3,6.5Zm-.8-2.7c-.4-1.4-.7-2.2-.7-2.4a.76.76,0,0,1-.1-.4c-.1.4-.4,1.3-.8,2.8Zm2.5.8V458h2.4v1.1Zm7.6.5h-.8v1.3h-1.3v-1.3h-2.7v-.9l2.8-4.1h1.2v4h.8Zm-2.1-1v-2.5h0a2.51,2.51,0,0,1-.4.7l-1.2,1.8Zm7.1,2.4h-4.5v-.9l1.6-1.6a5.8,5.8,0,0,0,.9-1,2.19,2.19,0,0,1,.3-.5.9.9,0,0,0,.1-.5,1.07,1.07,0,0,0-.2-.6.85.85,0,0,0-.6-.2,1.85,1.85,0,0,0-.7.2,3,3,0,0,0-.7.5l-.7-.9a3.28,3.28,0,0,1,.8-.6,4.88,4.88,0,0,1,.7-.3,2,2,0,0,1,.8-.1,3.59,3.59,0,0,1,1.1.2c.3.1.5.4.7.6a1.61,1.61,0,0,1,.3.9,1.88,1.88,0,0,1-.2.8,3.51,3.51,0,0,1-.5.8,10,10,0,0,1-1.1,1.2l-.8.8v.1h2.8V461Zm5.3-1.4h-.8v1.3h-1.3v-1.3h-2.7v-.9l2.8-4.1h1.2v4h.8Zm-2.1-1v-2.5h0a2.51,2.51,0,0,1-.4.7l-1.2,1.8Z"/>
        <path id="А-423-1" class="aud-1" d="M712.5,435.5a.94.94,0,0,1,1-1h13a1,1,0,0,1,1,1v28a1,1,0,0,1-1,1h-13a.94.94,0,0,1-1-1Z"/>
        <path id="А-423-1_label" class="aud-3" d="M723,458.3l-1.2.4v1.8l1.2.4V462l-5-1.8v-1.3l5-1.8Zm-2.1.6a8,8,0,0,0-1.8.6,1,1,0,0,0-.3.1c.3.1,1,.3,2.2.6v-1.3Zm.7-2h-.9v-1.8h.9Zm.4-5.9v.6h1v1h-1v2.1h-.7l-3.2-2.2v-1h3.1v-.6h.8Zm-.8,1.6h-1.9a2.19,2.19,0,0,1,.5.3l1.4.9Zm1.8-5.5v3.5h-.7l-1.3-1.3a3.78,3.78,0,0,0-.8-.7c-.2-.1-.3-.2-.4-.2a.6.6,0,0,0-.4-.1.52.52,0,0,0-.4.2.6.6,0,0,0-.1.4,1.27,1.27,0,0,0,.1.6,2.09,2.09,0,0,0,.4.6l-.7.6a1.52,1.52,0,0,1-.4-.6c-.1-.2-.2-.3-.2-.5a1.27,1.27,0,0,1-.1-.6,1.88,1.88,0,0,1,.2-.8,2.65,2.65,0,0,1,.5-.6,1.45,1.45,0,0,1,.7-.2,1.27,1.27,0,0,1,.6.1,2.09,2.09,0,0,1,.6.4l.9.9.6.6h0v-2.2h.9Zm-3.9-3.8a1.14,1.14,0,0,1,.8.3,2.18,2.18,0,0,1,.5.8h0a1.88,1.88,0,0,1,.4-.9,1.14,1.14,0,0,1,.8-.3,1.29,1.29,0,0,1,1.1.5,2.08,2.08,0,0,1,.4,1.5,3.19,3.19,0,0,1-.3,1.4h-.9a1.42,1.42,0,0,0,.2-.6,1.7,1.7,0,0,0,.1-.7,1.88,1.88,0,0,0-.2-.8c-.1-.2-.3-.2-.6-.2a.55.55,0,0,0-.5.3,2,2,0,0,0-.2.9v.4h-.8v-.4a1.29,1.29,0,0,0-.2-.8.55.55,0,0,0-.5-.3c-.4,0-.6.2-.6.7a.9.9,0,0,0,.1.5.86.86,0,0,0,.3.6l-.7.5a3,3,0,0,1-.5-1.6,2.13,2.13,0,0,1,.3-1.2C718.5,443.5,718.8,443.3,719.1,443.3Zm2.5-.6h-.9v-1.8h.9Zm1.4-5v1.1h-3.9c.2.2.3.3.3.4l.5.6-.6.5-1.3-1.6v-1Z"/>
        <path id="А-423" class="aud-1" d="M730,435.5a.94.94,0,0,1,1-1h13a1,1,0,0,1,1,1v28a1,1,0,0,1-1,1H731a.94.94,0,0,1-1-1Z"/>
        <path id="А-423_label" class="aud-3" d="M741,457.2l-1.5.5V460l1.5.5V462l-6.5-2.3V458l6.5-2.3Zm-2.7.8c-1.4.4-2.2.7-2.4.7a.76.76,0,0,1-.4.1c.4.1,1.3.4,2.8.8Zm.8-2.5H738v-2.4h1.1Zm.6-7.6v.8H741V450h-1.3v2.7h-.9l-4.1-2.8v-1.3h4v-.8h1Zm-1.1,2.1h-2.5a2.51,2.51,0,0,1,.7.4l1.8,1.2Zm2.4-7.1v4.5h-.9l-1.6-1.6a5.8,5.8,0,0,0-1-.9c-.2-.1-.4-.3-.5-.3a.9.9,0,0,0-.5-.1,1.07,1.07,0,0,0-.6.2.85.85,0,0,0-.2.6,1.85,1.85,0,0,0,.2.7,3,3,0,0,0,.5.7l-.9.7a3.28,3.28,0,0,1-.6-.8,4.88,4.88,0,0,1-.3-.7,2.2,2.2,0,0,1-.1-.8,3.59,3.59,0,0,1,.2-1.1,1.34,1.34,0,0,1,.6-.7,1.61,1.61,0,0,1,.9-.3,1.88,1.88,0,0,1,.8.2,3.51,3.51,0,0,1,.8.5,6.58,6.58,0,0,1,1.2,1.2l.8.8h.1v-2.8Zm-5-4.9a1.28,1.28,0,0,1,1,.4,1.7,1.7,0,0,1,.6,1h0a2.2,2.2,0,0,1,.5-1.2,1.28,1.28,0,0,1,1-.4,1.51,1.51,0,0,1,1.4.7,3.31,3.31,0,0,1,.5,1.9,4.06,4.06,0,0,1-.4,1.9h-1.2a6.89,6.89,0,0,0,.3-.8,2.77,2.77,0,0,0,.1-.9,2.51,2.51,0,0,0-.2-1,.91.91,0,0,0-.7-.3.55.55,0,0,0-.6.4,2.87,2.87,0,0,0-.2,1.2v.5h-1v-.5a2.68,2.68,0,0,0-.2-1.1.78.78,0,0,0-.7-.3c-.5,0-.7.3-.7.9a1.27,1.27,0,0,0,.1.6,2.51,2.51,0,0,0,.4.7l-.9.6a3.7,3.7,0,0,1-.6-2.1,2.54,2.54,0,0,1,.4-1.6,1.25,1.25,0,0,1,1.1-.6Z"/>
        <path id="wc25" class="wc-1" d="M763,435.5a.94.94,0,0,1,1-1h15a1,1,0,0,1,1,1v28a1,1,0,0,1-1,1H764a.94.94,0,0,1-1-1Z"/>
        <path id="wc25_0" class="wc-0" d="M767,452.7a1.4,1.4,0,1,0-1.4-1.4A1.37,1.37,0,0,0,767,452.7Zm8.4,0a1.4,1.4,0,1,0-1.4-1.4A1.43,1.43,0,0,0,775.4,452.7Zm2.8,4.9-1-4.1a.67.67,0,0,0-.7-.5,2.17,2.17,0,0,1-2.2,0,.75.75,0,0,0-.7.5l-1,4.1a.5.5,0,0,0,.5.6h1.2v2.3a.47.47,0,0,0,.5.5h1a.47.47,0,0,0,.5-.5v-2.3h1.2c.5.1.7-.2.7-.6Zm-6.7-7.7h-.7c-.2,0-.3.2-.3.4v10.4a.45.45,0,0,0,.3.4h.7c.2,0,.3-.2.3-.4V450.2C771.9,450,771.7,449.9,771.5,449.9Zm-3.4,3.1a2.17,2.17,0,0,1-2.2,0,1.08,1.08,0,0,0-1,1v3a.47.47,0,0,0,.5.5h.2v3a.47.47,0,0,0,.5.5h1.8a.47.47,0,0,0,.5-.5v-3h.2a.47.47,0,0,0,.5-.5v-3A1.17,1.17,0,0,0,768.1,453Z"/>
        <path id="А-9-1" class="aud-1" d="M1197.5,420.5a.94.94,0,0,1,1-1H1219a.94.94,0,0,1,1,1v43a.94.94,0,0,1-1,1h-20.5a.94.94,0,0,1-1-1Z"/>
        <path id="А-9-1_label" class="aud-3" d="M1212,449.18l-1.5.5V452l1.5.5V454l-6.4-2.3V450l6.4-2.3Zm-2.7.8c-1.4.4-2.2.7-2.4.7a.76.76,0,0,1-.4.1c.4.1,1.3.4,2.8.8Zm.8-2.5H1209v-2.4h1.1Zm-1.8-7.5a4.25,4.25,0,0,1,2.8.8,3,3,0,0,1,.9,2.4,2.22,2.22,0,0,1-.1.9h-1.1a2,2,0,0,0,.1-.8,3.09,3.09,0,0,0-.2-1.1,1.34,1.34,0,0,0-.6-.7,3.5,3.5,0,0,0-1.2-.3v.1a1.7,1.7,0,0,1,.6.6,1.88,1.88,0,0,1,.2.8,1.73,1.73,0,0,1-.5,1.3,2.46,2.46,0,0,1-1.5.5,2.06,2.06,0,0,1-2.2-2.2,2.13,2.13,0,0,1,.3-1.2,1.65,1.65,0,0,1,1-.8,3.34,3.34,0,0,1,1.5-.3Zm-1.7,2.4a.91.91,0,0,0,.3.7,1.08,1.08,0,0,0,.8.2,1.17,1.17,0,0,0,.7-.2.78.78,0,0,0,.3-.7.91.91,0,0,0-.3-.7.86.86,0,0,0-.6-.3,1.61,1.61,0,0,0-.9.3.78.78,0,0,0-.3.7Zm3.5-3.06H1209v-2.4h1.1Zm1.8-6.3v1.4h-5c.2.2.4.4.4.5l.6.7-.8.7-1.6-2.1v-1.1h6.4Z"/>
        <path id="А-412" class="aud-1" d="M1257.5,385.5a.94.94,0,0,1,1-1h13a.94.94,0,0,1,1,1v28a.94.94,0,0,1-1,1h-13a.94.94,0,0,1-1-1Z"/>
        <path id="А-412_label" class="aud-3" d="M1268.5,407.2l-1.5.5V410l1.5.5V412l-6.4-2.3V408l6.4-2.3Zm-2.7.8c-1.4.4-2.2.7-2.4.7a.76.76,0,0,1-.4.1c.4.1,1.3.4,2.8.8Zm.8-2.5h-1.1v-2.4h1.1Zm.6-7.6v.8h1.3V400h-1.3v2.7h-.9l-4.2-2.8v-1.3h4v-.8h1.1Zm-1.1,2.1h-2.5a2.51,2.51,0,0,1,.7.4l1.8,1.2Zm2.4-6v1.4h-5c.2.2.4.4.4.5l.6.7-.8.7-1.6-2.1v-1.1h6.4Zm0-6.3v4.5h-.9l-1.6-1.6a5.8,5.8,0,0,0-1-.9c-.2-.1-.4-.3-.5-.3a.9.9,0,0,0-.5-.1,1.07,1.07,0,0,0-.6.2.85.85,0,0,0-.2.6,1.85,1.85,0,0,0,.2.7,3,3,0,0,0,.5.7l-.9.7a3.28,3.28,0,0,1-.6-.8,4.88,4.88,0,0,1-.3-.7,2,2,0,0,1-.1-.8,3.59,3.59,0,0,1,.2-1.1c.1-.3.4-.5.6-.7a1.61,1.61,0,0,1,.9-.3,1.88,1.88,0,0,1,.8.2,3.51,3.51,0,0,1,.8.5,6.58,6.58,0,0,1,1.2,1.2l.8.8h.1v-2.8Z"/>
        <path id="А-410" class="aud-1" d="M1275,385.5a.94.94,0,0,1,1-1h30.5a.94.94,0,0,1,1,1v28a.94.94,0,0,1-1,1H1276a.94.94,0,0,1-1-1Z"/>
        <path id="А-410_label" class="aud-3" d="M1283.8,402.5l-.5-1.5H1281l-.5,1.5H1279l2.3-6.5h1.7l2.3,6.5Zm-.8-2.7c-.4-1.4-.7-2.2-.7-2.4a.76.76,0,0,1-.1-.4c-.1.4-.4,1.3-.8,2.8Zm2.5.8v-1.1h2.4v1.1Zm7.6.5h-.8v1.3H1291v-1.3h-2.7v-.9l2.8-4.1h1.2v4h.8Zm-2.1-1v-2.5h0a2.51,2.51,0,0,1-.4.7l-1.2,1.8Zm6,2.4h-1.4v-5c-.2.2-.4.4-.5.4l-.7.6-.6-.8,2.1-1.6h1.1v6.4Zm6.2-3.2a4.18,4.18,0,0,1-.6,2.5,2,2,0,0,1-1.7.8,2.14,2.14,0,0,1-1.7-.8,4.4,4.4,0,0,1-.6-2.5,5.21,5.21,0,0,1,.5-2.5,2,2,0,0,1,1.7-.8,2.14,2.14,0,0,1,1.7.8,3.73,3.73,0,0,1,.7,2.5Zm-3.1,0a5.94,5.94,0,0,0,.2,1.7.75.75,0,0,0,.7.5c.3,0,.5-.2.7-.5a7.32,7.32,0,0,0,0-3.4.74.74,0,0,0-1.4,0,5.94,5.94,0,0,0-.2,1.7Z"/>
        <path id="А-408" class="aud-1" d="M1310,385.5a.94.94,0,0,1,1-1h13a.94.94,0,0,1,1,1v28a.94.94,0,0,1-1,1h-13a.94.94,0,0,1-1-1Z"/>
        <path id="А-408_label" class="aud-3" d="M1321,407.2l-1.5.5V410l1.5.5V412l-6.4-2.3V408l6.4-2.3Zm-2.7.8c-1.4.4-2.2.7-2.4.7a.76.76,0,0,1-.4.1c.4.1,1.3.4,2.8.8V408Zm.8-2.5H1318v-2.4h1.1Zm.6-7.6v.8h1.3V400h-1.3v2.7h-.9l-4.2-2.8v-1.3h4v-.8h1.1Zm-1.1,2.1h-2.5a2.51,2.51,0,0,1,.7.4l1.8,1.2V400Zm-.8-7.1a4.4,4.4,0,0,1,2.5.6,2,2,0,0,1,.8,1.7,2.14,2.14,0,0,1-.8,1.7,4.4,4.4,0,0,1-2.5.6,5.21,5.21,0,0,1-2.5-.5,2,2,0,0,1-.8-1.7,2.14,2.14,0,0,1,.8-1.7A3.73,3.73,0,0,1,1317.8,392.9Zm0,3.1a6.53,6.53,0,0,0,1.7-.2.75.75,0,0,0,.5-.7c0-.3-.2-.5-.5-.7a7.32,7.32,0,0,0-3.4,0,.75.75,0,0,0-.5.7c0,.3.2.5.5.7a3.69,3.69,0,0,0,1.7.2Zm-3.3-6a2.41,2.41,0,0,1,.4-1.5,1.38,1.38,0,0,1,1.1-.6,1.61,1.61,0,0,1,.9.3,2.18,2.18,0,0,1,.7.9,2.9,2.9,0,0,1,.8-1,1.61,1.61,0,0,1,.9-.3,1.76,1.76,0,0,1,1.3.6,2.77,2.77,0,0,1,.5,1.6,2.86,2.86,0,0,1-.4,1.7,1.49,1.49,0,0,1-1.3.6,1.69,1.69,0,0,1-1-.3,3.63,3.63,0,0,1-.8-.9,2.85,2.85,0,0,1-.7.8,1.49,1.49,0,0,1-.9.2,1.25,1.25,0,0,1-1.1-.6,3.31,3.31,0,0,1-.4-1.5Zm4.8,1a.86.86,0,0,0,.6-.3,1.45,1.45,0,0,0,.2-.7,1.88,1.88,0,0,0-.2-.8.6.6,0,0,0-.6-.3.86.86,0,0,0-.6.3,2.76,2.76,0,0,0-.6.8c.4.7.8,1,1.2,1Zm-3.8-1a1.42,1.42,0,0,0,.2.6.76.76,0,0,0,.5.2c.2,0,.3-.1.5-.2a.65.65,0,0,0,0-1.2.72.72,0,0,0-1,0,1.42,1.42,0,0,0-.2.6Z"/>
        <path id="А-406" class="aud-1" d="M1327.5,385.5a.94.94,0,0,1,1-1h13a.94.94,0,0,1,1,1v28a.94.94,0,0,1-1,1h-13a.94.94,0,0,1-1-1Z"/>
        <path id="А-406_label" class="aud-3" d="M1338.5,407.2l-1.5.5V410l1.5.5V412l-6.4-2.3V408l6.4-2.3Zm-2.7.8c-1.4.4-2.2.7-2.4.7a.76.76,0,0,1-.4.1c.4.1,1.3.4,2.8.8V408Zm.8-2.5h-1.1v-2.4h1.1Zm.6-7.6v.8h1.3V400h-1.3v2.7h-.9l-4.2-2.8v-1.3h4v-.8h1.1Zm-1.1,2.1h-2.5a2.51,2.51,0,0,1,.7.4l1.8,1.2V400Zm-.8-7.1a4.4,4.4,0,0,1,2.5.6,2,2,0,0,1,.8,1.7,2.14,2.14,0,0,1-.8,1.7,4.4,4.4,0,0,1-2.5.6,5.21,5.21,0,0,1-2.5-.5,2,2,0,0,1-.8-1.7,2.14,2.14,0,0,1,.8-1.7A3.73,3.73,0,0,1,1335.3,392.9Zm0,3.1a6.53,6.53,0,0,0,1.7-.2.75.75,0,0,0,.5-.7c0-.3-.2-.5-.5-.7a7.32,7.32,0,0,0-3.4,0,.75.75,0,0,0-.5.7c0,.3.2.5.5.7a3.69,3.69,0,0,0,1.7.2Zm.5-3.7a4.25,4.25,0,0,1-2.8-.8,3,3,0,0,1-.9-2.4,2.22,2.22,0,0,1,.1-.9h1.1a2.2,2.2,0,0,0-.1.8,3.09,3.09,0,0,0,.2,1.1,1.34,1.34,0,0,0,.6.7,10.38,10.38,0,0,0,1.2.3V391a1.51,1.51,0,0,1-.7-1.4,1.73,1.73,0,0,1,.5-1.3,2.46,2.46,0,0,1,1.5-.5,2.06,2.06,0,0,1,2.2,2.2,2.13,2.13,0,0,1-.3,1.2,1.65,1.65,0,0,1-1,.8,4.15,4.15,0,0,1-1.6.3Zm1.7-2.4a.91.91,0,0,0-.3-.7,1.08,1.08,0,0,0-.8-.2,1.17,1.17,0,0,0-.7.2.78.78,0,0,0-.3.7.91.91,0,0,0,.3.7.86.86,0,0,0,.6.3,1.61,1.61,0,0,0,.9-.3.78.78,0,0,0,.3-.7Z"/>
        <path id="А-404" class="aud-1" d="M1345,385.5a.94.94,0,0,1,1-1h30.5a.94.94,0,0,1,1,1v28a.94.94,0,0,1-1,1H1346a.94.94,0,0,1-1-1Z"/>
        <path id="А-404_label" class="aud-3" d="M1353.8,402.5l-.5-1.5H1351l-.5,1.5H1349l2.3-6.5h1.7l2.3,6.5Zm-.8-2.7c-.4-1.4-.7-2.2-.7-2.4a.76.76,0,0,1-.1-.4c-.1.4-.4,1.3-.8,2.8Zm2.5.8v-1.1h2.4v1.1Zm7.6.5h-.8v1.3H1361v-1.3h-2.7v-.9l2.8-4.1h1.2v4h.8Zm-2.1-1v-2.5h0a2.51,2.51,0,0,1-.4.7l-1.2,1.8Zm7.1-.8a4.18,4.18,0,0,1-.6,2.5,2,2,0,0,1-1.7.8,2.14,2.14,0,0,1-1.7-.8,5.51,5.51,0,0,1,0-5,2,2,0,0,1,1.7-.8,2.14,2.14,0,0,1,1.7.8A4.4,4.4,0,0,1,1368.1,399.3Zm-3.2,0a5.94,5.94,0,0,0,.2,1.7.75.75,0,0,0,.7.5c.3,0,.5-.2.7-.5a7.32,7.32,0,0,0,0-3.4.75.75,0,0,0-.7-.5c-.3,0-.5.2-.7.5a5.94,5.94,0,0,0-.2,1.7Zm8.5,1.8h-.8v1.3h-1.3v-1.3h-2.7v-.9l2.8-4.1h1.2v4h.8Zm-2.1-1v-2.5h0a2.51,2.51,0,0,1-.4.7l-1.2,1.8Z"/>
        <path id="А-402" class="aud-1" d="M1380,385.5a.94.94,0,0,1,1-1h13a.94.94,0,0,1,1,1v28a.94.94,0,0,1-1,1h-13a.94.94,0,0,1-1-1Z"/>
        <path id="А-402_label" class="aud-3" d="M1391,407.2l-1.5.5V410l1.5.5V412l-6.4-2.3V408l6.4-2.3Zm-2.7.8c-1.4.4-2.2.7-2.4.7a.76.76,0,0,1-.4.1c.4.1,1.3.4,2.8.8V408Zm.8-2.5H1388v-2.4h1.1Zm.6-7.6v.8h1.3V400h-1.3v2.7h-.9l-4.2-2.8v-1.3h4v-.8h1.1Zm-1.1,2.1h-2.5a2.51,2.51,0,0,1,.7.4l1.8,1.2V400Zm-.8-7.1a4.4,4.4,0,0,1,2.5.6,2,2,0,0,1,.8,1.7,2.14,2.14,0,0,1-.8,1.7,4.4,4.4,0,0,1-2.5.6,5.21,5.21,0,0,1-2.5-.5,2,2,0,0,1-.8-1.7,2.14,2.14,0,0,1,.8-1.7A3.73,3.73,0,0,1,1387.8,392.9Zm0,3.1a6.53,6.53,0,0,0,1.7-.2.75.75,0,0,0,.5-.7c0-.3-.2-.5-.5-.7a7.32,7.32,0,0,0-3.4,0,.75.75,0,0,0-.5.7c0,.3.2.5.5.7a3.69,3.69,0,0,0,1.7.2Zm3.2-8.3v4.5h-.9l-1.6-1.6a5.8,5.8,0,0,0-1-.9c-.2-.1-.4-.3-.5-.3a.9.9,0,0,0-.5-.1,1.07,1.07,0,0,0-.6.2.85.85,0,0,0-.2.6,1.85,1.85,0,0,0,.2.7,3,3,0,0,0,.5.7l-.9.7a3.28,3.28,0,0,1-.6-.8,4.88,4.88,0,0,1-.3-.7,2,2,0,0,1-.1-.8,3.59,3.59,0,0,1,.2-1.1c.1-.3.4-.5.6-.7a1.61,1.61,0,0,1,.9-.3,1.88,1.88,0,0,1,.8.2,3.51,3.51,0,0,1,.8.5,6.58,6.58,0,0,1,1.2,1.2l.8.8h.1v-2.8Z"/>
        <path id="wc33" class="wc-1" d="M1222.5,435.5a.94.94,0,0,1,1-1h13a.94.94,0,0,1,1,1v28a.94.94,0,0,1-1,1h-13a.94.94,0,0,1-1-1Z"/>
        <path id="wc33_0" class="wc-0" d="M1230,445.5a2,2,0,1,0-2-2A2,2,0,0,0,1230,445.5Zm1.6.5a3,3,0,0,1-1.6.5,2.77,2.77,0,0,1-1.6-.5,1.52,1.52,0,0,0-1.4,1.5v4.2a.79.79,0,0,0,.8.8h.2v4.2a.79.79,0,0,0,.8.8h2.5a.79.79,0,0,0,.8-.8v-4.2h.2a.79.79,0,0,0,.8-.8v-4.2A1.7,1.7,0,0,0,1231.6,446Z"/>
        <path id="wc34" class="wc-1" d="M1257.5,435.5a.94.94,0,0,1,1-1h13a.94.94,0,0,1,1,1v28a.94.94,0,0,1-1,1h-13a.94.94,0,0,1-1-1Z"/>
        <path id="wc34_0" class="wc-0" d="M1265,445.5a2,2,0,1,0-2-2A2,2,0,0,0,1265,445.5Zm4,7.1-1.4-5.8a1.22,1.22,0,0,0-.9-.8,3,3,0,0,1-1.6.5,2.77,2.77,0,0,1-1.6-.5,1,1,0,0,0-.9.8l-1.4,5.8a.77.77,0,0,0,.8.9h1.7v3.2a.77.77,0,0,0,.7.8h1.5a.79.79,0,0,0,.8-.8v-3.2h1.7a.8.8,0,0,0,.6-.9Z"/>
        <path id="А-411" class="aud-1" d="M1275,435.5a.94.94,0,0,1,1-1h13a.94.94,0,0,1,1,1v28a.94.94,0,0,1-1,1h-13a.94.94,0,0,1-1-1Z"/>
        <path id="А-411_label" class="aud-3" d="M1286,457.2l-1.5.5V460l1.5.5V462l-6.4-2.3V458l6.4-2.3Zm-2.7.8c-1.4.4-2.2.7-2.4.7a.76.76,0,0,1-.4.1c.4.1,1.3.4,2.8.8V458Zm.8-2.5H1283v-2.4h1.1Zm.6-7.6v.8h1.3V450h-1.3v2.7h-.9l-4.2-2.8v-1.3h4v-.8h1.1Zm-1.1,2.1h-2.5a2.51,2.51,0,0,1,.7.4l1.8,1.2V450Zm2.4-6v1.4h-5c.2.2.4.4.4.5l.6.7-.8.7-1.6-2.1v-1.1h6.4Zm0-5.1v1.4h-5c.2.2.4.4.4.5l.6.7-.8.7-1.6-2.1V439h6.4Z"/>
        <path id="А-409" class="aud-1" d="M1292.5,435.5a.94.94,0,0,1,1-1h13a.94.94,0,0,1,1,1v28a.94.94,0,0,1-1,1h-13a.94.94,0,0,1-1-1Z"/>
        <path id="А-409_label" class="aud-3" d="M1303.5,457.2l-1.5.5V460l1.5.5V462l-6.4-2.3V458l6.4-2.3Zm-2.7.8c-1.4.4-2.2.7-2.4.7a.76.76,0,0,1-.4.1c.4.1,1.3.4,2.8.8V458Zm.8-2.5h-1.1v-2.4h1.1Zm.6-7.6v.8h1.3V450h-1.3v2.7h-.9l-4.2-2.8v-1.3h4v-.8h1.1Zm-1.1,2.1h-2.5a2.51,2.51,0,0,1,.7.4l1.8,1.2V450Zm-.8-7.1a4.4,4.4,0,0,1,2.5.6,2,2,0,0,1,.8,1.7,2.14,2.14,0,0,1-.8,1.7,4.4,4.4,0,0,1-2.5.6,5.21,5.21,0,0,1-2.5-.5,2,2,0,0,1-.8-1.7,2.14,2.14,0,0,1,.8-1.7A3.73,3.73,0,0,1,1300.3,442.9Zm0,3.1a6.53,6.53,0,0,0,1.7-.2.75.75,0,0,0,.5-.7c0-.3-.2-.5-.5-.7a7.32,7.32,0,0,0-3.4,0,.75.75,0,0,0-.5.7c0,.3.2.5.5.7a3.69,3.69,0,0,0,1.7.2Zm-.5-8.2a4.25,4.25,0,0,1,2.8.8,3,3,0,0,1,.9,2.4,2.22,2.22,0,0,1-.1.9h-1.1a2,2,0,0,0,.1-.8,3.09,3.09,0,0,0-.2-1.1,1.34,1.34,0,0,0-.6-.7,3.5,3.5,0,0,0-1.2-.3v.1a1.7,1.7,0,0,1,.6.6,1.88,1.88,0,0,1,.2.8,1.73,1.73,0,0,1-.5,1.3,2.46,2.46,0,0,1-1.5.5,2.06,2.06,0,0,1-2.2-2.2,2.13,2.13,0,0,1,.3-1.2,1.65,1.65,0,0,1,1-.8,3.65,3.65,0,0,1,1.5-.3Zm-1.7,2.3a.91.91,0,0,0,.3.7,1.08,1.08,0,0,0,.8.2,1.17,1.17,0,0,0,.7-.2.78.78,0,0,0,.3-.7.91.91,0,0,0-.3-.7.86.86,0,0,0-.6-.3,1.61,1.61,0,0,0-.9.3.91.91,0,0,0-.3.7Z"/>
        <path id="А-407" class="aud-1" d="M1310,435.5a.94.94,0,0,1,1-1h13a.94.94,0,0,1,1,1v28a.94.94,0,0,1-1,1h-13a.94.94,0,0,1-1-1Z"/>
        <path id="А-407_label" class="aud-3" d="M1321,457.2l-1.5.5V460l1.5.5V462l-6.4-2.3V458l6.4-2.3Zm-2.7.8c-1.4.4-2.2.7-2.4.7a.76.76,0,0,1-.4.1c.4.1,1.3.4,2.8.8V458Zm.8-2.5H1318v-2.4h1.1Zm.6-7.6v.8h1.3V450h-1.3v2.7h-.9l-4.2-2.8v-1.3h4v-.8h1.1Zm-1.1,2.1h-2.5a2.51,2.51,0,0,1,.7.4l1.8,1.2V450Zm-.8-7.1a4.4,4.4,0,0,1,2.5.6,2,2,0,0,1,.8,1.7,2.14,2.14,0,0,1-.8,1.7,4.4,4.4,0,0,1-2.5.6,5.21,5.21,0,0,1-2.5-.5,2,2,0,0,1-.8-1.7,2.14,2.14,0,0,1,.8-1.7A3.73,3.73,0,0,1,1317.8,442.9Zm0,3.1a6.53,6.53,0,0,0,1.7-.2.75.75,0,0,0,.5-.7c0-.3-.2-.5-.5-.7a7.32,7.32,0,0,0-3.4,0,.75.75,0,0,0-.5.7c0,.3.2.5.5.7a3.69,3.69,0,0,0,1.7.2Zm3.2-4.4-5.3-2.4v3.2h-1.1v-4.7h.8l5.6,2.4Z"/>
        <path id="А-405" class="aud-1" d="M1327.5,435.5a.94.94,0,0,1,1-1h13a.94.94,0,0,1,1,1v28a.94.94,0,0,1-1,1h-13a.94.94,0,0,1-1-1Z"/>
        <path id="А-405_label" class="aud-3" d="M1338.5,457.2l-1.5.5V460l1.5.5V462l-6.4-2.3V458l6.4-2.3Zm-2.7.8c-1.4.4-2.2.7-2.4.7a.76.76,0,0,1-.4.1c.4.1,1.3.4,2.8.8V458Zm.8-2.5h-1.1v-2.4h1.1Zm.6-7.6v.8h1.3V450h-1.3v2.7h-.9l-4.2-2.8v-1.3h4v-.8h1.1Zm-1.1,2.1h-2.5a2.51,2.51,0,0,1,.7.4l1.8,1.2V450Zm-.8-7.1a4.4,4.4,0,0,1,2.5.6,2,2,0,0,1,.8,1.7,2.14,2.14,0,0,1-.8,1.7,4.4,4.4,0,0,1-2.5.6,5.21,5.21,0,0,1-2.5-.5,2,2,0,0,1-.8-1.7,2.14,2.14,0,0,1,.8-1.7A3.73,3.73,0,0,1,1335.3,442.9Zm0,3.1a6.53,6.53,0,0,0,1.7-.2.75.75,0,0,0,.5-.7c0-.3-.2-.5-.5-.7a7.32,7.32,0,0,0-3.4,0,.75.75,0,0,0-.5.7c0,.3.2.5.5.7a3.69,3.69,0,0,0,1.7.2Zm-.9-6.1a2.46,2.46,0,0,1,.5-1.5,1.68,1.68,0,0,1,1.4-.6,2.06,2.06,0,0,1,1.7.7,2.71,2.71,0,0,1,.6,1.9,2.86,2.86,0,0,1-.4,1.7H1337a6.89,6.89,0,0,0,.3-.8,2.77,2.77,0,0,0,.1-.9c0-.8-.3-1.2-1-1.2s-1,.4-1,1.3v.5c0,.2.1.3.1.5l-.3.5-3.3-.2v-3.5h1.2v2.3l1.3.1v-.8Z"/>
        <path id="А-403" class="aud-1" d="M1345,435.5a.94.94,0,0,1,1-1h13a.94.94,0,0,1,1,1v28a.94.94,0,0,1-1,1h-13a.94.94,0,0,1-1-1Z"/>
        <path id="А-403_label" class="aud-3" d="M1356,457.2l-1.5.5V460l1.5.5V462l-6.4-2.3V458l6.4-2.3Zm-2.7.8c-1.4.4-2.2.7-2.4.7a.76.76,0,0,1-.4.1c.4.1,1.3.4,2.8.8V458Zm.8-2.5H1353v-2.4h1.1Zm.6-7.6v.8h1.3V450h-1.3v2.7h-.9l-4.2-2.8v-1.3h4v-.8h1.1Zm-1.1,2.1h-2.5a2.51,2.51,0,0,1,.7.4l1.8,1.2V450Zm-.8-7.1a4.4,4.4,0,0,1,2.5.6,2,2,0,0,1,.8,1.7,2.14,2.14,0,0,1-.8,1.7,4.4,4.4,0,0,1-2.5.6,5.21,5.21,0,0,1-2.5-.5,2,2,0,0,1-.8-1.7,2.14,2.14,0,0,1,.8-1.7A3.73,3.73,0,0,1,1352.8,442.9Zm0,3.1a6.53,6.53,0,0,0,1.7-.2.75.75,0,0,0,.5-.7c0-.3-.2-.5-.5-.7a7.32,7.32,0,0,0-3.4,0,.75.75,0,0,0-.5.7c0,.3.2.5.5.7a3.69,3.69,0,0,0,1.7.2Zm-1.8-8a1.28,1.28,0,0,1,1,.4,1.7,1.7,0,0,1,.6,1h0a2.2,2.2,0,0,1,.5-1.2,1.16,1.16,0,0,1,1-.4,1.51,1.51,0,0,1,1.4.7,3.31,3.31,0,0,1,.5,1.9,5.82,5.82,0,0,1-.3,1.9h-1.2a6.89,6.89,0,0,0,.3-.8,2.77,2.77,0,0,0,.1-.9,2.51,2.51,0,0,0-.2-1,.91.91,0,0,0-.7-.3.55.55,0,0,0-.6.4,2.87,2.87,0,0,0-.2,1.2v.5h-1v-.5a2.68,2.68,0,0,0-.2-1.1.78.78,0,0,0-.7-.3c-.5,0-.7.3-.7.9a1.27,1.27,0,0,0,.1.6,2.51,2.51,0,0,0,.4.7l-.9.6a3.7,3.7,0,0,1-.6-2.1,2.54,2.54,0,0,1,.4-1.6,1,1,0,0,1,1-.6Z"/>
        <path id="А-401" class="aud-1" d="M1362.5,435.5a.94.94,0,0,1,1-1h13a.94.94,0,0,1,1,1v28a.94.94,0,0,1-1,1h-13a.94.94,0,0,1-1-1Z"/>
        <path id="А-401_label" class="aud-3" d="M1373.5,457.2l-1.5.5V460l1.5.5V462l-6.4-2.3V458l6.4-2.3Zm-2.7.8c-1.4.4-2.2.7-2.4.7a.76.76,0,0,1-.4.1c.4.1,1.3.4,2.8.8V458Zm.8-2.5h-1.1v-2.4h1.1Zm.6-7.6v.8h1.3V450h-1.3v2.7h-.9l-4.2-2.8v-1.3h4v-.8h1.1Zm-1.1,2.1h-2.5a2.51,2.51,0,0,1,.7.4l1.8,1.2V450Zm-.8-7.1a4.4,4.4,0,0,1,2.5.6,2,2,0,0,1,.8,1.7,2.14,2.14,0,0,1-.8,1.7,4.4,4.4,0,0,1-2.5.6,5.21,5.21,0,0,1-2.5-.5,2,2,0,0,1-.8-1.7,2.14,2.14,0,0,1,.8-1.7A3.73,3.73,0,0,1,1370.3,442.9Zm0,3.1a6.53,6.53,0,0,0,1.7-.2.75.75,0,0,0,.5-.7c0-.3-.2-.5-.5-.7a7.32,7.32,0,0,0-3.4,0,.75.75,0,0,0-.5.7c0,.3.2.5.5.7a3.69,3.69,0,0,0,1.7.2Zm3.2-7.1v1.4h-5c.2.2.4.4.4.5l.6.7-.8.7-1.6-2.1V439h6.4Z"/>
        <path id="s1" class="s-1" d="M1381,464.5a.94.94,0,0,1-1-1V432h15v31.5a.94.94,0,0,1-1,1Z"/>
        <path id="s1_0" class="s-0" d="M1383,442.4v2.8a.47.47,0,0,0,.5.5h2.3V448a.47.47,0,0,0,.5.5h2.3v2.3a.47.47,0,0,0,.5.5h2.3v2.3a.5.5,0,0,0,1,0v-2.9c0-.1-.1-.2-.1-.3a.37.37,0,0,0-.3-.1h-2.3V448c0-.1-.1-.2-.1-.3a.37.37,0,0,0-.3-.1H1387v-2.3c0-.1-.1-.2-.1-.3a.37.37,0,0,0-.3-.1h-2.3v-2.3a.47.47,0,0,0-.5-.5c-.3,0-.8.1-.8.3Z"/>
        <path id="s2" class="s-1" d="M1241,464.5a.94.94,0,0,1-1-1V432h15v31.5a.94.94,0,0,1-1,1Z"/>
        <path id="s2_0" class="s-0" d="M1243,442.4v2.8a.47.47,0,0,0,.5.5h2.3V448a.47.47,0,0,0,.5.5h2.3v2.3a.47.47,0,0,0,.5.5h2.3v2.3a.5.5,0,0,0,1,0v-2.9c0-.1-.1-.2-.1-.3a.37.37,0,0,0-.3-.1h-2.3V448c0-.1-.1-.2-.1-.3a.37.37,0,0,0-.3-.1H1247v-2.3c0-.1-.1-.2-.1-.3a.37.37,0,0,0-.3-.1h-2.3v-2.3a.47.47,0,0,0-.5-.5c-.3,0-.8.1-.8.3Z"/>
        <path id="s3" class="s-1" d="M151,464.5a.94.94,0,0,1-1-1V432h15v31.5a.94.94,0,0,1-1,1Z"/>
        <path id="s3_0" class="s-0" d="M153,442.4v2.8a.47.47,0,0,0,.5.5h2.3V448a.47.47,0,0,0,.5.5h2.3v2.3a.47.47,0,0,0,.5.5h2.3v2.3a.5.5,0,0,0,1,0v-2.9a.35.35,0,0,0-.4-.4h-2.5V448a.35.35,0,0,0-.4-.4h-2.3v-2.3a.35.35,0,0,0-.4-.4h-2.3v-2.3a.47.47,0,0,0-.5-.5c-.4-.1-.6.1-.6.3Z"/>
        <path id="s4" class="s-1" d="M11,464.5a.94.94,0,0,1-1-1V432H25v31.5a.94.94,0,0,1-1,1Z"/>
        <path id="s4_0" class="s-0" d="M13,442.4v2.8a.47.47,0,0,0,.5.5h2.3V448a.47.47,0,0,0,.5.5h2.3v2.3a.47.47,0,0,0,.5.5h2.3v2.3a.5.5,0,0,0,1,0v-2.9a.35.35,0,0,0-.4-.4H19.5V448a.35.35,0,0,0-.4-.4H16.8v-2.3a.35.35,0,0,0-.4-.4H14.1v-2.3a.47.47,0,0,0-.5-.5C13.3,442.1,13,442.2,13,442.4Z"/>
        <path id="s5" class="s-1" d="M194,397a.94.94,0,0,1-1,1H174.5a.94.94,0,0,1-1-1V384.5H193a.94.94,0,0,1,1,1Z"/>
        <path id="s5_0" class="s-0" d="M178,395.5h2.8a.47.47,0,0,0,.5-.5v-2.3h2.3a.47.47,0,0,0,.5-.5v-2.3h2.3a.47.47,0,0,0,.5-.5v-2.3h2.3a.5.5,0,0,0,0-1h-2.8a.35.35,0,0,0-.4.4v2.3h-2.5a.35.35,0,0,0-.4.4v2.3h-2.3a.35.35,0,0,0-.4.4v2.3h-2.3a.47.47,0,0,0-.5.5c-.1.6.1.8.4.8Z"/>
        <path id="s6" class="s-1" d="M1232.5,397a.94.94,0,0,1-1,1H1213a.94.94,0,0,1-1-1V385.5a.94.94,0,0,1,1-1h19.5Z"/>
        <path id="s6_0" class="s-0" d="M1216.5,395.5h2.8a.47.47,0,0,0,.5-.5v-2.3h2.3a.47.47,0,0,0,.5-.5v-2.3h2.3a.47.47,0,0,0,.5-.5v-2.3h2.3a.5.5,0,0,0,0-1h-2.8a.35.35,0,0,0-.4.4v2.3h-2.3a.35.35,0,0,0-.4.4v2.3h-2.3a.35.35,0,0,0-.4.4v2.3h-2.3a.47.47,0,0,0-.5.5c-.3.6-.1.8.2.8Z"/>
        <path id="path174-4" class="s-1 s-t" d="M1232.5,414.5a.94.94,0,0,1-1,1h-24V402h24a.94.94,0,0,1,1,1Z"/>
        <path id="path176-4" class="s-0" d="M1214.5,413h2.8a.47.47,0,0,0,.5-.5v-2.3h2.3a.47.47,0,0,0,.5-.5v-2.3h2.3a.47.47,0,0,0,.5-.5v-2.2h2.3a.5.5,0,0,0,0-1h-2.8a.35.35,0,0,0-.4.4v2.3h-2.3a.35.35,0,0,0-.4.4v2.3h-2.3a.35.35,0,0,0-.4.4v2.3h-2.3a.47.47,0,0,0-.5.5c-.3.5-.1.7.2.7Z"/>
        <path id="path178-3" class="corridor" d="M10,418a.94.94,0,0,1,1-1H182.5v14a.94.94,0,0,1-1,1H10Z"/>
        <rect id="rect180" class="corridor" x="15" y="414.5" width="5" height="2.5"/>
        <rect id="rect182" class="corridor" x="182.5" y="422" width="2.5" height="5"/>
        <path id="rect184" class="corridor" d="M626,417H779a.94.94,0,0,1,1,1v13a.94.94,0,0,1-1,1H626a.94.94,0,0,1-1-1V418A1,1,0,0,1,626,417Z"/>
        <rect id="rect186" class="corridor" x="630" y="414.5" width="5" height="2.5"/>
        <rect id="rect188" class="corridor" x="647.5" y="414.5" width="5" height="2.5"/>
        <rect id="rect190" class="corridor" x="665" y="414.5" width="5" height="2.5"/>
        <rect id="rect192" class="corridor" x="682.5" y="414.5" width="5" height="2.5"/>
        <rect id="rect194" class="corridor" x="735" y="414.5" width="5" height="2.5"/>
        <rect id="rect196" class="corridor" x="752.5" y="414.5" width="5" height="2.5"/>
        <rect id="rect198" class="corridor" x="770" y="414.5" width="5" height="2.5"/>
        <rect id="rect200" class="corridor" x="717.5" y="432" width="5" height="2.5"/>
        <path id="path202-3" class="corridor" d="M642.5,432h15v31.5a1,1,0,0,1-1,1h-13a.94.94,0,0,1-1-1Z"/>
        <rect id="rect204" class="corridor" x="640" y="437" width="2.5" height="5"/>
        <rect id="rect206" class="corridor" x="657.5" y="439.5" width="2.5" height="5"/>
        <rect id="rect208" class="corridor" x="657.5" y="454.5" width="2.5" height="5"/>
        <path id="wc-lock" class="wc-0" d="M773.81,442.55h-.08v-.87a2.23,2.23,0,0,0-4.46,0v.87h-.08a.5.5,0,0,0-.5.5v2.79a.5.5,0,0,0,.5.49h4.62a.5.5,0,0,0,.5-.49v-2.79A.5.5,0,0,0,773.81,442.55Zm-3.54-.87a1.23,1.23,0,0,1,2.46,0v.87h-2.46Z"/>
    </g>
</svg>