<svg xmlns="http://www.w3.org/2000/svg" viewBox="0 0 1487.5 640.75"> <style> .corridor { fill: #3D3D3D; } .corridor-dark { fill: #303030; }  .aud-0 { fill: #FF0000; } .aud-1 { fill: #4E7D92; } .aud-2 { fill: #3C5B8A; } .aud-3 { fill: #FFFFFF; fill-opacity: 0.9; }  .letter { fill: #B9F2FF; fill-opacity: 0.9; }  .s-1 { fill: #FFFFFF; } .s-0 { fill: #000000; fill-opacity: 0.8; } .s-t { fill-opacity: 0.5; }  .wc-1 { fill: #445961; } .wc-0 { fill: #FFFFFF; fill-opacity: 0.9; }  .din-1 { fill: #474F69; } .din-0 { fill: #FFFFFF; fill-opacity: 0.9; }  .room-1 { fill: #636363; } .room-0 { fill: #FFFFFF; fill-opacity: 0.9; } </style> <g id="floor0"> <path id="path2" class="corridor" d="M652.5,384.5H735a2.48,2.48,0,0,1,2.5,2.5v27.5A2.48,2.48,0,0,1,735,417H655a2.48,2.48,0,0,1-2.5-2.5Z"/> <path id="path4" class="corridor" d="M737.5,389.8v9.7H705v-15h27.2A5.34,5.34,0,0,1,737.5,389.8Z"/> <path id="path6" class="corridor" d="M632.5,369.5h30A2.48,2.48,0,0,1,665,372v12.5H635a2.48,2.48,0,0,1-2.5-2.5Z"/> <path id="path8" class="corridor" d="M632.5,352h15v20h-15Z"/> <path id="path10" class="corridor" d="M635,339.5H767.5A2.48,2.48,0,0,1,770,342v10a2.48,2.48,0,0,1-2.5,2.5h-135V342A2.48,2.48,0,0,1,635,339.5Z"/> <path id="path12" class="corridor" d="M637.5,334.5h5V342h-5Z"/> <path id="path14" class="corridor" d="M655,334.5h5V342h-5Z"/> <path id="path16" class="corridor" d="M672.5,334.5h5V342h-5Z"/> <path id="path18" class="corridor" d="M690,334.5h5V342h-5Z"/> <path id="path20" class="corridor" d="M725,334.5h5V342h-5Z"/> <path id="path22" class="corridor" d="M742.5,334.5h5V342h-5Z"/> <path id="path24" class="corridor" d="M760,334.5h5V342h-5Z"/> <path id="path26" class="corridor" d="M715,329.5h7.5v5H715Z"/> <path id="path28" class="corridor-dark" d="M620,367a2.48,2.48,0,0,1,2.5,2.5A2.48,2.48,0,0,0,625,372h15a2.48,2.48,0,0,1,2.5,2.5V402a2.48,2.48,0,0,0,2.5,2.5h96a2.48,2.48,0,0,0,2.5-2.5V369.5A2.48,2.48,0,0,1,746,367h641.5a2.48,2.48,0,0,1,2.5,2.5v80a2.48,2.48,0,0,1-2.5,2.5H2.5A2.48,2.48,0,0,1,0,449.5v-80A2.48,2.48,0,0,1,2.5,367Z"/> <path id="s78" class="s-1" d="M665,398.5v-14h32.5v14a.94.94,0,0,1-1,1H666A1.08,1.08,0,0,1,665,398.5Z"/> <path id="s78_0" class="s-0" d="M687,387.5h-2.8a.47.47,0,0,0-.5.5v2.3h-2.3a.47.47,0,0,0-.5.5v2.3h-2.3a.47.47,0,0,0-.5.5v2.3h-2.3a.5.5,0,0,0,0,1h2.8a.35.35,0,0,0,.4-.4v-2.3h2.3a.35.35,0,0,0,.4-.4v-2.3H684a.35.35,0,0,0,.4-.4v-2.3h2.3a.47.47,0,0,0,.5-.5c.3-.6.1-.8-.2-.8Z"/> <path id="s79" class="s-1" d="M705,398.5v-14h30a2.48,2.48,0,0,1,2.5,2.5v11.5a.94.94,0,0,1-1,1H706A1.08,1.08,0,0,1,705,398.5Z"/> <path id="s79_0" class="s-0" d="M727,387.5h-2.8a.47.47,0,0,0-.5.5v2.3h-2.3a.47.47,0,0,0-.5.5v2.3h-2.3a.47.47,0,0,0-.5.5v2.3h-2.3a.5.5,0,0,0,0,1h2.8a.35.35,0,0,0,.4-.4v-2.3h2.3a.35.35,0,0,0,.4-.4v-2.3H724a.35.35,0,0,0,.4-.4v-2.3h2.3a.47.47,0,0,0,.5-.5c.3-.6.1-.8-.2-.8Z"/> <path id="path34" class="corridor" d="M420,267h5v7.5h-5Z"/> <path id="path36" class="corridor" d="M410,97h7.5v5H410Z"/> <path id="path38" class="corridor" d="M410,179.5h7.5v5H410Z"/> <path id="path40" class="corridor" d="M437.5,64.5h5V72h-5Z"/> <path id="path42" class="corridor" d="M437.5,82h5v7.5h-5Z"/> <path id="path44" class="corridor" d="M477.5,64.5h5V72h-5Z"/> <path id="path46" class="corridor" d="M477.5,82h5v7.5h-5Z"/> <path id="path48" class="corridor" d="M515,82h7.5v7.5H515Z"/> <path id="path50" class="corridor" d="M420,64.5h5V72h-5Z"/> <path id="path52" class="corridor" d="M410,137h7.5v5H410Z"/> <path id="path54" class="corridor" d="M410,162h7.5v5H410Z"/> <path id="path56" class="corridor" d="M400,187h7.5v7.5H400Z"/> <path id="path58" class="corridor" d="M410,242h7.5v5H410Z"/> <path id="path60" class="corridor" d="M390,267h5v7.5h-5Z"/> <path id="path62" class="corridor" d="M450,267h5v7.5h-5Z"/> <path id="path64" class="corridor" d="M485,267h5v7.5h-5Z"/> <path id="path66" class="corridor" d="M510,267h5v7.5h-5Z"/> <path id="path68" class="corridor" d="M485,249.5h5V257h-5Z"/> <path id="path70" class="corridor" d="M410,229.5h7.5v5H410Z"/> <path id="path72" class="corridor" d="M507.5,74.5H515v5h-7.5Z"/> <path id="path74" class="corridor" d="M417.5,69.5H430V267a2.48,2.48,0,0,1-2.5,2.5h-10A2.48,2.48,0,0,1,415,267V72A2.48,2.48,0,0,1,417.5,69.5Z"/> <path id="path76" class="corridor" d="M390,254.5H540v15H390a2.48,2.48,0,0,1-2.5-2.5V257A2.48,2.48,0,0,1,390,254.5Z"/> <path id="s80" class="s-1" d="M540,254.5H522.5v-29a.94.94,0,0,1,1-1H539a.94.94,0,0,1,1,1Z"/> <path id="s80_0" class="s-0" d="M527,233.9v2.8a.47.47,0,0,0,.5.5h2.3v2.3a.47.47,0,0,0,.5.5h2.3v2.3a.47.47,0,0,0,.5.5h2.3v2.3a.5.5,0,1,0,1,0v-2.8a.35.35,0,0,0-.4-.4h-2.3v-2.3c0-.1-.1-.2-.1-.3a.37.37,0,0,0-.3-.1H531v-2.5a.35.35,0,0,0-.4-.4h-2.3V234a.47.47,0,0,0-.5-.5c-.3,0-.8.2-.8.4Z"/> <path id="path80" class="corridor" d="M525,267h12.5a2.48,2.48,0,0,1,2.5,2.5V297a2.48,2.48,0,0,1-2.5,2.5H525a2.48,2.48,0,0,1-2.5-2.5V269.5A2.48,2.48,0,0,1,525,267Z"/> <path id="path82" class="corridor" d="M427.5,69.5h80A2.48,2.48,0,0,1,510,72V82a2.48,2.48,0,0,1-2.5,2.5h-80Z"/> <path id="path84" class="corridor" d="M1087.5,249.5h5V257h-5Z"/> <path id="path86" class="corridor" d="M1127.5,249.5h5V257h-5Z"/> <path id="path88" class="corridor" d="M1175,267h5v7.5h-5Z"/> <path id="path90" class="corridor" d="M1182.5,259.5h7.5v5h-7.5Z"/> <path id="path92" class="corridor" d="M1182.5,229.5h7.5v5h-7.5Z"/> <path id="path94" class="corridor" d="M1182.5,154.5h7.5v5h-7.5Z"/> <path id="path96" class="corridor" d="M1182.5,184.5h7.5v5h-7.5Z"/> <path id="path98" class="corridor" d="M1037.5,87h5v7.5h-5Z"/> <path id="path100" class="corridor" d="M1077.5,87h5v7.5h-5Z"/> <path id="path102" class="corridor" d="M1095,87h5v7.5h-5Z"/> <path id="path104" class="corridor" d="M1157.5,87h5v7.5h-5Z"/> <path id="path106" class="corridor" d="M1175,87h5v7.5h-5Z"/> <path id="path108" class="corridor" d="M1155,249.5h5V257h-5Z"/> <path id="path110" class="corridor" d="M1127.5,267h5v7.5h-5Z"/> <path id="path112" class="corridor" d="M1087.5,267h5v7.5h-5Z"/> <path id="path114" class="corridor" d="M1050,267h5v7.5h-5Z"/> <path id="path116" class="corridor" d="M1015,267h5v7.5h-5Z"/> <path id="path118" class="corridor" d="M1045,239.5h7.5V247H1045Z"/> <path id="path120" class="corridor" d="M997.5,219.5h5V227h-5Z"/> <path id="path122" class="corridor" d="M992.5,254.5H1185V267a2.48,2.48,0,0,1-2.5,2.5H995a2.48,2.48,0,0,1-2.5-2.5Z"/> <path id="path124" class="corridor" d="M1170,92h12.5a2.48,2.48,0,0,1,2.5,2.5V257h-15Z"/> <path id="s81" class="s-1" d="M1185,124.5v-15h39a.94.94,0,0,1,1,1v13a.94.94,0,0,1-1,1Z"/> <path id="s81_0" class="s-0" d="M1210.5,112.5h-2.8a.47.47,0,0,0-.5.5v2.3h-2.3a.47.47,0,0,0-.5.5v2.3h-2.3a.47.47,0,0,0-.5.5v2.3h-2.3a.5.5,0,0,0,0,1h2.8a.35.35,0,0,0,.4-.4v-2.3h2.3a.35.35,0,0,0,.4-.4v-2.3h2.3a.35.35,0,0,0,.4-.4v-2.3h2.3a.47.47,0,0,0,.5-.5c.3-.6.1-.8-.2-.8Z"/> <path id="s82" class="s-1" d="M1117,254.5h-17.5v-29a.94.94,0,0,1,1-1H1116a.94.94,0,0,1,1,1Z"/> <path id="s82_0" class="s-0" d="M1104,233.9v2.8a.47.47,0,0,0,.5.5h2.3v2.3a.47.47,0,0,0,.5.5h2.3v2.3a.47.47,0,0,0,.5.5h2.3v2.3a.5.5,0,0,0,1,0v-2.8c0-.1-.1-.2-.1-.3a.37.37,0,0,0-.3-.1h-2.3v-2.3c0-.1-.1-.2-.1-.3a.37.37,0,0,0-.3-.1H1108v-2.5c0-.1-.1-.2-.1-.3a.37.37,0,0,0-.3-.1h-2.3V234a.47.47,0,0,0-.5-.5c-.3,0-.8.2-.8.4Z"/> <path id="path130" class="corridor" d="M995,224.5h10a2.48,2.48,0,0,1,2.5,2.5v30h-15V227A2.48,2.48,0,0,1,995,224.5Z"/> <path id="path132" class="corridor" d="M1100,267h17.5v30a2.48,2.48,0,0,1-2.5,2.5h-12.5a2.48,2.48,0,0,1-2.5-2.5Z"/> <path id="path134" class="corridor" d="M1035,92h137.5v15h-140V94.5A2.48,2.48,0,0,1,1035,92Z"/> <path id="path136" class="corridor" d="M1032.5,104.5h15v16a2.48,2.48,0,0,1-2.5,2.5h-12.5Z"/> <path id="path138" class="corridor" d="M457.5,249.5h5V257h-5Z"/> <path id="path142" class="corridor-dark" d="M542.5,254.5v-30A2.48,2.48,0,0,1,545,222h82.5a2.48,2.48,0,0,0,2.5-2.5V112a2.48,2.48,0,0,0-2.5-2.5H545a2.48,2.48,0,0,1-2.5-2.5V32a2.48,2.48,0,0,1,2.5-2.5H687.5A2.48,2.48,0,0,1,690,32V299.5a2.48,2.48,0,0,1-2.5,2.5H545a2.48,2.48,0,0,1-2.5-2.5v-45Zm0,15v0Z"/> <path id="path144" class="letter" d="M1089.6,191.5h19.6c12.4,0,20.1-6.8,20.1-16.7s-7.7-16.3-20.1-16.3h-8.5V148.3h23.7v-9.1h-34.8v52.3Zm11-8.9V167.2h8.5c5.9,0,9.2,3.3,9.2,7.4,0,4.3-3.2,7.9-9.2,7.9h-8.5Z"/> <path id="path146" class="corridor-dark" d="M967.5,302a2.48,2.48,0,0,0,2.5-2.5V32a2.48,2.48,0,0,0-2.5-2.5H735a2.48,2.48,0,0,0-2.5,2.5V299.5A2.48,2.48,0,0,0,735,302Zm-175-190a2.48,2.48,0,0,1,2.5-2.5H907.5A2.48,2.48,0,0,1,910,112V219.5a2.48,2.48,0,0,1-2.5,2.5H795a2.48,2.48,0,0,1-2.5-2.5Z"/> <path id="path148" class="letter" d="M831.6,191.5H854c11.8,0,18-6.1,18-14.5,0-7.7-5.6-12.4-11.5-12.7v-.5c5.4-1.2,9.5-5.1,9.5-11.2,0-7.8-5.8-13.4-17.4-13.4h-21Zm11-9.1V168.5h9.3c5.3,0,8.6,3.1,8.6,7.4,0,3.9-2.7,6.5-8.9,6.5Zm0-21.4V148H851c4.9,0,7.7,2.5,7.7,6.3,0,4.1-3.4,6.6-7.9,6.6h-8.2Z"/> <path id="path150" class="letter" d="M549.8,139.1H515v52.4h11.1V148.3h23.7v-9.2Z"/> <path id="ИВЦ101" class="aud-1" d="M632.5,310.5a.94.94,0,0,1,1-1h13a1,1,0,0,1,1,1V336a1,1,0,0,1-1,1h-13a.94.94,0,0,1-1-1Z"/> <path id="ИВЦ101_label" class="aud-3" d="M638.2,335.9v-.8h3.3l-3.3-2V332h4.3v.8h-2.1a5.74,5.74,0,0,1-1.2-.1h0l3.3,2v1.1Zm0-4.9v-1.3a2.27,2.27,0,0,1,.3-1.3.81.81,0,0,1,.8-.4.85.85,0,0,1,.6.2.55.55,0,0,1,.3.5h0a1.63,1.63,0,0,1,.3-.6,1.45,1.45,0,0,1,.7-.2,1,1,0,0,1,.9.4,2,2,0,0,1,.3,1.1V331Zm1.7-.9v-.5a.75.75,0,0,0-.1-.5.52.52,0,0,0-.4-.2c-.2,0-.3.1-.3.2s-.1.3-.1.6v.5h.9Zm.7,0h1.1v-.6c0-.2-.1-.4-.1-.6a.52.52,0,0,0-.4-.2c-.4,0-.5.3-.5.8Zm1.2-6.5V323h2v.9h-1.2v3.2h-4.3v-.9h3.5v-1.6h-3.5v-.9Zm-.5-1h-.7V321h.7Zm1.2-4.2v.9h-3.3c.2.2.2.3.3.3l.4.5-.5.4-1.1-1.4v-.7Zm-2.1-4.2a2.86,2.86,0,0,1,1.7.4c.4.2.5.6.5,1.1a1.15,1.15,0,0,1-.6,1.1,3.41,3.41,0,0,1-1.6.4,2.67,2.67,0,0,1-1.7-.4c-.4-.2-.5-.6-.5-1.1a1.15,1.15,0,0,1,.6-1.1A2.83,2.83,0,0,1,640.4,314.2Zm0,2.1a3.11,3.11,0,0,0,1.1-.1.46.46,0,0,0,.3-.5.55.55,0,0,0-.3-.5,6.1,6.1,0,0,0-2.2,0,.46.46,0,0,0-.3.5.55.55,0,0,0,.3.5,2.81,2.81,0,0,0,1.1.1Zm2.1-4.8v.9h-3.3c.2.2.2.3.3.3l.4.5-.5.4-1.1-1.4v-.7Z"/> <path id="ИВЦ102" class="aud-1" d="M650,310.5a.94.94,0,0,1,1-1h13a1,1,0,0,1,1,1V336a1,1,0,0,1-1,1H651a.94.94,0,0,1-1-1Z"/> <path id="ИВЦ102_label" class="aud-3" d="M655.7,335.9v-.8H659l-3.3-2V332H660v.8h-2.1a5.74,5.74,0,0,1-1.2-.1h0l3.3,2v1.1Zm0-4.9v-1.3a2.27,2.27,0,0,1,.3-1.3.81.81,0,0,1,.8-.4.85.85,0,0,1,.6.2.55.55,0,0,1,.3.5h0a1.63,1.63,0,0,1,.3-.6,1.45,1.45,0,0,1,.7-.2,1,1,0,0,1,.9.4,2,2,0,0,1,.3,1.1V331Zm1.7-.9v-.5a.75.75,0,0,0-.1-.5.52.52,0,0,0-.4-.2c-.2,0-.3.1-.3.2s-.1.3-.1.6v.5h.9Zm.7,0h1.1v-.6c0-.2-.1-.4-.1-.6a.52.52,0,0,0-.4-.2c-.4,0-.5.3-.5.8Zm1.2-6.5V323h2v.9h-1.2v3.2h-4.3v-.9h3.5v-1.6h-3.5v-.9Zm-.5-1h-.7V321h.7Zm1.2-4.2v.9h-3.3c.2.2.2.3.3.3l.4.5-.5.4-1.1-1.4v-.7Zm-2.1-4.2a2.86,2.86,0,0,1,1.7.4c.4.2.5.6.5,1.1a1.15,1.15,0,0,1-.6,1.1,3.41,3.41,0,0,1-1.6.4,2.67,2.67,0,0,1-1.7-.4c-.4-.2-.5-.6-.5-1.1a1.15,1.15,0,0,1,.6-1.1A2.83,2.83,0,0,1,657.9,314.2Zm0,2.1a3.11,3.11,0,0,0,1.1-.1.46.46,0,0,0,.3-.5.55.55,0,0,0-.3-.5,6.1,6.1,0,0,0-2.2,0,.46.46,0,0,0-.3.5.55.55,0,0,0,.3.5,2.81,2.81,0,0,0,1.1.1Zm2.1-5.5v3h-.6l-1.1-1.1c-.3-.3-.6-.5-.7-.6a.52.52,0,0,0-.4-.2c-.1,0-.2-.1-.3-.1s-.3,0-.4.1-.1.2-.1.4a.9.9,0,0,0,.1.5c.1.2.2.3.3.5l-.6.5c-.2-.2-.3-.4-.4-.5s-.1-.3-.2-.5-.1-.3-.1-.6a1.48,1.48,0,0,1,.1-.7,1,1,0,0,1,.4-.5,1.42,1.42,0,0,1,.6-.2,1.27,1.27,0,0,1,.6.1c.2.1.3.2.5.3a5.72,5.72,0,0,1,.8.8l.5.6h0v-1.9Z"/> <path id="ИВЦ103" class="aud-1" d="M667.5,310.5a.94.94,0,0,1,1-1h13a1,1,0,0,1,1,1V336a1,1,0,0,1-1,1h-13a.94.94,0,0,1-1-1Z"/> <path id="ИВЦ103_label" class="aud-3" d="M673.2,335.9v-.8h3.3l-3.3-2V332h4.3v.8h-2.1a5.74,5.74,0,0,1-1.2-.1h0l3.3,2v1.1Zm0-4.9v-1.3a2.27,2.27,0,0,1,.3-1.3.81.81,0,0,1,.8-.4.85.85,0,0,1,.6.2.55.55,0,0,1,.3.5h0a1.63,1.63,0,0,1,.3-.6,1.45,1.45,0,0,1,.7-.2,1,1,0,0,1,.9.4,2,2,0,0,1,.3,1.1V331Zm1.7-.9v-.5a.75.75,0,0,0-.1-.5.52.52,0,0,0-.4-.2c-.2,0-.3.1-.3.2s-.1.3-.1.6v.5h.9Zm.7,0h1.1v-.6c0-.2-.1-.4-.1-.6a.52.52,0,0,0-.4-.2c-.4,0-.5.3-.5.8Zm1.2-6.5V323h2v.9h-1.2v3.2h-4.3v-.9h3.5v-1.6h-3.5v-.9Zm-.5-1h-.7V321h.7Zm1.2-4.2v.9h-3.3c.2.2.2.3.3.3l.4.5-.5.4-1.1-1.4v-.7Zm-2.1-4.2a2.86,2.86,0,0,1,1.7.4c.4.2.5.6.5,1.1a1.15,1.15,0,0,1-.6,1.1,3.41,3.41,0,0,1-1.6.4,2.67,2.67,0,0,1-1.7-.4c-.4-.2-.5-.6-.5-1.1a1.15,1.15,0,0,1,.6-1.1A2.83,2.83,0,0,1,675.4,314.2Zm0,2.1a3.11,3.11,0,0,0,1.1-.1.46.46,0,0,0,.3-.5.55.55,0,0,0-.3-.5,6.1,6.1,0,0,0-2.2,0,.46.46,0,0,0-.3.5.55.55,0,0,0,.3.5,2.81,2.81,0,0,0,1.1.1Zm-1.2-5.3a1.45,1.45,0,0,1,.7.2,1.61,1.61,0,0,1,.4.7h0a1.14,1.14,0,0,1,.3-.8.91.91,0,0,1,.7-.3,1.28,1.28,0,0,1,1,.4,2.27,2.27,0,0,1,.3,1.3,3.73,3.73,0,0,1-.2,1.2h-.8c.1-.2.2-.3.2-.5a1.27,1.27,0,0,0,.1-.6.84.84,0,0,0-.2-.7.76.76,0,0,0-.5-.2.52.52,0,0,0-.4.2,1.72,1.72,0,0,0-.1.8v.3H675v-.3c0-.3,0-.6-.1-.7s-.2-.2-.4-.2-.5.2-.5.6a.6.6,0,0,0,.1.4,1.69,1.69,0,0,0,.2.5l-.6.4a2.3,2.3,0,0,1-.4-1.4,1.49,1.49,0,0,1,.3-1c0-.2.3-.3.6-.3Z"/> <path id="ИВЦ104" class="aud-1" d="M685,310.5a.94.94,0,0,1,1-1h13a1,1,0,0,1,1,1V336a1,1,0,0,1-1,1H686a.94.94,0,0,1-1-1Z"/> <path id="ИВЦ104_label" class="aud-3" d="M690.7,335.9v-.8H694l-3.3-2V332H695v.8h-2.1a5.74,5.74,0,0,1-1.2-.1h0l3.3,2v1.1Zm0-4.9v-1.3a2.27,2.27,0,0,1,.3-1.3.81.81,0,0,1,.8-.4.85.85,0,0,1,.6.2.55.55,0,0,1,.3.5h0a1.63,1.63,0,0,1,.3-.6,1.45,1.45,0,0,1,.7-.2,1,1,0,0,1,.9.4,2,2,0,0,1,.3,1.1V331Zm1.7-.9v-.5a.75.75,0,0,0-.1-.5.52.52,0,0,0-.4-.2c-.2,0-.3.1-.3.2s-.1.3-.1.6v.5h.9Zm.7,0h1.1v-.6c0-.2-.1-.4-.1-.6a.52.52,0,0,0-.4-.2c-.4,0-.5.3-.5.8Zm1.2-6.5V323h2v.9h-1.2v3.2h-4.3v-.9h3.5v-1.6h-3.5v-.9Zm-.5-1h-.7V321h.7Zm1.2-4.2v.9h-3.3c.2.2.2.3.3.3l.4.5-.5.4-1.1-1.4v-.7Zm-2.1-4.2a2.86,2.86,0,0,1,1.7.4c.4.2.5.6.5,1.1a1.15,1.15,0,0,1-.6,1.1,3.41,3.41,0,0,1-1.6.4,2.67,2.67,0,0,1-1.7-.4c-.4-.2-.5-.6-.5-1.1a1.15,1.15,0,0,1,.6-1.1A2.83,2.83,0,0,1,692.9,314.2Zm0,2.1a3.11,3.11,0,0,0,1.1-.1.46.46,0,0,0,.3-.5.55.55,0,0,0-.3-.5,6.1,6.1,0,0,0-2.2,0,.46.46,0,0,0-.3.5.55.55,0,0,0,.3.5,2.81,2.81,0,0,0,1.1.1Zm1.2-5.6v.5h.9v.9h-.9v1.8h-.6l-2.8-1.9v-.8h2.7v-.5Zm-.7,1.4h-1.6c.2.1.3.2.5.3l1.2.8v-1.1Z"/> <path id="ИВЦ105" class="aud-1" d="M702.5,310.5a.94.94,0,0,1,1-1h13a1,1,0,0,1,1,1V336a1,1,0,0,1-1,1h-13a.94.94,0,0,1-1-1Z"/> <path id="ИВЦ105_label" class="aud-3" d="M708.2,335.9v-.8h3.3l-3.3-2V332h4.3v.8h-2.1a5.74,5.74,0,0,1-1.2-.1h0l3.3,2v1.1Zm0-4.9v-1.3a2.27,2.27,0,0,1,.3-1.3.81.81,0,0,1,.8-.4.85.85,0,0,1,.6.2.55.55,0,0,1,.3.5h0a1.63,1.63,0,0,1,.3-.6,1.45,1.45,0,0,1,.7-.2,1,1,0,0,1,.9.4,2,2,0,0,1,.3,1.1V331Zm1.7-.9v-.5a.75.75,0,0,0-.1-.5.52.52,0,0,0-.4-.2c-.2,0-.3.1-.3.2s-.1.3-.1.6v.5h.9Zm.7,0h1.1v-.6c0-.2-.1-.4-.1-.6a.52.52,0,0,0-.4-.2c-.4,0-.5.3-.5.8Zm1.2-6.5V323h2v.9h-1.2v3.2h-4.3v-.9h3.5v-1.6h-3.5v-.9Zm-.5-1h-.7V321h.7Zm1.2-4.2v.9h-3.3c.2.2.2.3.3.3l.4.5-.5.4-1.1-1.4v-.7Zm-2.1-4.2a2.86,2.86,0,0,1,1.7.4c.4.2.5.6.5,1.1a1.15,1.15,0,0,1-.6,1.1,3.41,3.41,0,0,1-1.6.4,2.67,2.67,0,0,1-1.7-.4c-.4-.2-.5-.6-.5-1.1a1.15,1.15,0,0,1,.6-1.1A2.83,2.83,0,0,1,710.4,314.2Zm0,2.1a3.11,3.11,0,0,0,1.1-.1.46.46,0,0,0,.3-.5.55.55,0,0,0-.3-.5,6.1,6.1,0,0,0-2.2,0,.46.46,0,0,0-.3.5.55.55,0,0,0,.3.5,2.81,2.81,0,0,0,1.1.1Zm-.6-4.1a1.69,1.69,0,0,1,.3-1,1.53,1.53,0,0,1,1-.4,1.37,1.37,0,0,1,1.1.4,1.7,1.7,0,0,1,.4,1.3,3.73,3.73,0,0,1-.2,1.2h-.8c.1-.2.2-.3.2-.5a1.27,1.27,0,0,0,.1-.6c0-.6-.2-.8-.7-.8s-.7.3-.7.9v.3a.37.37,0,0,0,.1.3l-.2.4-2.2-.2v-2.3h.8v1.5l.8.1v-.6Z"/> <path id="ИВЦ106" class="aud-1" d="M720,310.5a.94.94,0,0,1,1-1h13a1,1,0,0,1,1,1V336a1,1,0,0,1-1,1H721a.94.94,0,0,1-1-1Z"/> <path id="ИВЦ106_label" class="aud-3" d="M725.7,335.9v-.8H729l-3.3-2V332H730v.8h-2.1a5.74,5.74,0,0,1-1.2-.1h0l3.3,2v1.1Zm0-4.9v-1.3a2.27,2.27,0,0,1,.3-1.3.81.81,0,0,1,.8-.4.85.85,0,0,1,.6.2.55.55,0,0,1,.3.5h0a1.63,1.63,0,0,1,.3-.6,1.45,1.45,0,0,1,.7-.2,1,1,0,0,1,.9.4,2,2,0,0,1,.3,1.1V331Zm1.7-.9v-.5a.75.75,0,0,0-.1-.5.52.52,0,0,0-.4-.2c-.2,0-.3.1-.3.2s-.1.3-.1.6v.5h.9Zm.7,0h1.1v-.6c0-.2-.1-.4-.1-.6a.52.52,0,0,0-.4-.2c-.4,0-.5.3-.5.8Zm1.2-6.5V323h2v.9h-1.2v3.2h-4.3v-.9h3.5v-1.6h-3.5v-.9Zm-.5-1h-.7V321h.7Zm1.2-4.2v.9h-3.3c.2.2.2.3.3.3l.4.5-.5.4-1.1-1.4v-.7Zm-2.1-4.2a2.86,2.86,0,0,1,1.7.4c.4.2.5.6.5,1.1a1.15,1.15,0,0,1-.6,1.1,3.41,3.41,0,0,1-1.6.4,2.67,2.67,0,0,1-1.7-.4c-.4-.2-.5-.6-.5-1.1a1.15,1.15,0,0,1,.6-1.1A2.83,2.83,0,0,1,727.9,314.2Zm0,2.1a3.11,3.11,0,0,0,1.1-.1.46.46,0,0,0,.3-.5.55.55,0,0,0-.3-.5,6.1,6.1,0,0,0-2.2,0,.46.46,0,0,0-.3.5.55.55,0,0,0,.3.5,2.81,2.81,0,0,0,1.1.1Zm.3-2.5a3.31,3.31,0,0,1-1.9-.5,2.11,2.11,0,0,1-.6-1.6v-.6h.7c0,.2-.1.3-.1.5a2,2,0,0,0,.1.8.78.78,0,0,0,.4.4,1.55,1.55,0,0,0,.8.2h0a1.05,1.05,0,0,1-.5-.9,1,1,0,0,1,.4-.9,1.49,1.49,0,0,1,1-.3,1.38,1.38,0,0,1,1.5,1.5,1.88,1.88,0,0,1-.2.8,2.65,2.65,0,0,1-.6.5,3.08,3.08,0,0,1-1,.1Zm1.1-1.5a.52.52,0,0,0-.2-.4.85.85,0,0,0-.6-.2.75.75,0,0,0-.5.1.52.52,0,0,0-.2.4c0,.2.1.3.2.5a.76.76,0,0,0,.4.2,1.42,1.42,0,0,0,.6-.2C729.3,312.6,729.3,312.5,729.3,312.3Z"/> <path id="ИВЦ107" class="aud-1" d="M737.5,310.5a.94.94,0,0,1,1-1h13a1,1,0,0,1,1,1V336a1,1,0,0,1-1,1h-13a.94.94,0,0,1-1-1Z"/> <path id="ИВЦ107_label" class="aud-3" d="M743.2,335.9v-.8h3.3l-3.3-2V332h4.3v.8h-2.1a5.74,5.74,0,0,1-1.2-.1h0l3.3,2v1.1Zm0-4.9v-1.3a2.27,2.27,0,0,1,.3-1.3.81.81,0,0,1,.8-.4.85.85,0,0,1,.6.2.55.55,0,0,1,.3.5h0a1.63,1.63,0,0,1,.3-.6,1.45,1.45,0,0,1,.7-.2,1,1,0,0,1,.9.4,2,2,0,0,1,.3,1.1V331Zm1.7-.9v-.5a.75.75,0,0,0-.1-.5.52.52,0,0,0-.4-.2c-.2,0-.3.1-.3.2s-.1.3-.1.6v.5h.9Zm.7,0h1.1v-.6c0-.2-.1-.4-.1-.6a.52.52,0,0,0-.4-.2c-.4,0-.5.3-.5.8Zm1.2-6.5V323h2v.9h-1.2v3.2h-4.3v-.9h3.5v-1.6h-3.5v-.9Zm-.5-1h-.7V321h.7Zm1.2-4.2v.9h-3.3c.2.2.2.3.3.3l.4.5-.5.4-1.1-1.4v-.7Zm-2.1-4.2a2.86,2.86,0,0,1,1.7.4c.4.2.5.6.5,1.1a1.15,1.15,0,0,1-.6,1.1,3.41,3.41,0,0,1-1.6.4,2.67,2.67,0,0,1-1.7-.4c-.4-.2-.5-.6-.5-1.1a1.15,1.15,0,0,1,.6-1.1A2.83,2.83,0,0,1,745.4,314.2Zm0,2.1a3.11,3.11,0,0,0,1.1-.1.46.46,0,0,0,.3-.5.55.55,0,0,0-.3-.5,6.1,6.1,0,0,0-2.2,0,.46.46,0,0,0-.3.5.55.55,0,0,0,.3.5,2.81,2.81,0,0,0,1.1.1Zm2.1-2.9-3.5-1.6v2.1h-.8v-3.1h.6l3.7,1.6v1Z"/> <path id="ИВЦ108" class="aud-1" d="M755,310.5a.94.94,0,0,1,1-1h13a1,1,0,0,1,1,1V336a1,1,0,0,1-1,1H756a.94.94,0,0,1-1-1Z"/> <path id="ИВЦ108_label" class="aud-3" d="M760.7,335.9v-.8H764l-3.3-2V332H765v.8h-2.1a5.74,5.74,0,0,1-1.2-.1h0l3.3,2v1.1Zm0-4.9v-1.3a2.27,2.27,0,0,1,.3-1.3.81.81,0,0,1,.8-.4.85.85,0,0,1,.6.2.55.55,0,0,1,.3.5h0a1.63,1.63,0,0,1,.3-.6,1.45,1.45,0,0,1,.7-.2,1,1,0,0,1,.9.4,2,2,0,0,1,.3,1.1V331Zm1.7-.9v-.5a.75.75,0,0,0-.1-.5.52.52,0,0,0-.4-.2c-.2,0-.3.1-.3.2s-.1.3-.1.6v.5h.9Zm.7,0h1.1v-.6c0-.2-.1-.4-.1-.6a.52.52,0,0,0-.4-.2c-.4,0-.5.3-.5.8Zm1.2-6.5V323h2v.9h-1.2v3.2h-4.3v-.9h3.5v-1.6h-3.5v-.9Zm-.5-1h-.7V321h.7Zm1.2-4.2v.9h-3.3c.2.2.2.3.3.3l.4.5-.5.4-1.1-1.4v-.7Zm-2.1-4.2a2.86,2.86,0,0,1,1.7.4c.4.2.5.6.5,1.1a1.15,1.15,0,0,1-.6,1.1,3.41,3.41,0,0,1-1.6.4,2.67,2.67,0,0,1-1.7-.4c-.4-.2-.5-.6-.5-1.1a1.15,1.15,0,0,1,.6-1.1A2.83,2.83,0,0,1,762.9,314.2Zm0,2.1a3.11,3.11,0,0,0,1.1-.1.46.46,0,0,0,.3-.5.55.55,0,0,0-.3-.5,6.1,6.1,0,0,0-2.2,0,.46.46,0,0,0-.3.5.55.55,0,0,0,.3.5,2.81,2.81,0,0,0,1.1.1Zm-2.2-4a1.69,1.69,0,0,1,.3-1,.81.81,0,0,1,.8-.4,1.42,1.42,0,0,1,.6.2c.2.1.3.3.5.6a4.23,4.23,0,0,1,.5-.7,1.42,1.42,0,0,1,.6-.2,1.09,1.09,0,0,1,.9.4,2.17,2.17,0,0,1,0,2.2.91.91,0,0,1-.8.4,1.85,1.85,0,0,1-.7-.2,1,1,0,0,1-.5-.6c-.2.2-.3.4-.5.5a1.42,1.42,0,0,1-.6.2.67.67,0,0,1-.7-.4,1.16,1.16,0,0,1-.4-1Zm3.2.7a.52.52,0,0,0,.4-.2.75.75,0,0,0,.1-.5,4.33,4.33,0,0,0-.1-.5.52.52,0,0,0-.4-.2c-.1,0-.2.1-.4.2s-.2.3-.4.5C763.3,312.8,763.6,313,763.9,313Zm-2.6-.7c0,.2,0,.3.1.4a.5.5,0,0,0,.6,0,.42.42,0,0,0,0-.8.5.5,0,0,0-.6,0c0,.1-.1.3-.1.4Z"/> <path id="Б101" class="aud-1" d="M992.5,33v73a.94.94,0,0,0,1,1H1029a.94.94,0,0,0,1-1V90.5a.94.94,0,0,1,1-1h15.5a.94.94,0,0,0,1-1V33a.94.94,0,0,0-1-1h-53A1,1,0,0,0,992.5,33Z"/> <path id="Б101_label" class="aud-3" d="M1010.2,60h.5a3.31,3.31,0,0,1,1.9.5,1.51,1.51,0,0,1,.7,1.4c0,1.3-.9,2-2.7,2h-1.9V57.5h4.1v1.1h-2.7V60Zm0,2.9h.5a2.15,2.15,0,0,0,1-.2.78.78,0,0,0,.3-.7.6.6,0,0,0-.3-.6,2.68,2.68,0,0,0-1.1-.2h-.4Zm3.8-.8V61h2.4v1.1Zm6.4,1.9H1019V59c-.2.2-.4.4-.5.4l-.7.6-.7-.8,2.1-1.6h1.1Zm6.2-3.2a5.21,5.21,0,0,1-.5,2.5,2,2,0,0,1-1.7.8,2.14,2.14,0,0,1-1.7-.8,4.4,4.4,0,0,1-.6-2.5,5.21,5.21,0,0,1,.5-2.5,2,2,0,0,1,1.7-.8,2.14,2.14,0,0,1,1.7.8A4.4,4.4,0,0,1,1026.6,60.8Zm-3.1,0a5.94,5.94,0,0,0,.2,1.7.75.75,0,0,0,.7.5c.3,0,.5-.2.7-.5a7.33,7.33,0,0,0,0-3.4.75.75,0,0,0-.7-.5c-.3,0-.5.2-.7.5A3.69,3.69,0,0,0,1023.5,60.8Zm7.2,3.2h-1.4V59c-.2.2-.4.4-.5.4l-.7.6-.7-.8,2.1-1.6h1.1V64Z"/> <path id="Б102" class="aud-1" d="M1050,33a.94.94,0,0,1,1-1h35.5a.94.94,0,0,1,1,1V88.5a.94.94,0,0,1-1,1H1051a.94.94,0,0,1-1-1Z"/> <path id="Б102_label" class="aud-3" d="M1058.7,60h.5a3.31,3.31,0,0,1,1.9.5,1.51,1.51,0,0,1,.7,1.4c0,1.3-.9,2-2.7,2h-1.9V57.5h4.1v1.1h-2.7Zm0,2.9h.5a2.15,2.15,0,0,0,1-.2.78.78,0,0,0,.3-.7.6.6,0,0,0-.3-.6,2.68,2.68,0,0,0-1.1-.2h-.4Zm3.8-.8V61h2.4v1.1Zm6.4,1.9h-1.4V59c-.2.2-.4.4-.5.4l-.7.6-.7-.8,2.1-1.6h1.1V64Zm6.2-3.2a4.18,4.18,0,0,1-.6,2.5,2,2,0,0,1-1.7.8,2.14,2.14,0,0,1-1.7-.8,4.4,4.4,0,0,1-.6-2.5,4.18,4.18,0,0,1,.6-2.5,2,2,0,0,1,1.7-.8,2.14,2.14,0,0,1,1.7.8A4.4,4.4,0,0,1,1075.1,60.8Zm-3.1,0a5.94,5.94,0,0,0,.2,1.7.75.75,0,0,0,.7.5c.3,0,.5-.2.7-.5a7.33,7.33,0,0,0,0-3.4.75.75,0,0,0-.7-.5c-.3,0-.5.2-.7.5a3.69,3.69,0,0,0-.2,1.7Zm8.3,3.2h-4.5v-.9l1.6-1.6a5.8,5.8,0,0,0,.9-1c.1-.2.3-.4.3-.5a.9.9,0,0,0,.1-.5.71.71,0,0,0-.8-.8,1.85,1.85,0,0,0-.7.2,3,3,0,0,0-.7.5l-.7-.9a3.28,3.28,0,0,1,.8-.6,4.88,4.88,0,0,1,.7-.3,2,2,0,0,1,.8-.1,3.59,3.59,0,0,1,1.1.2,1.41,1.41,0,0,1,.7.6,1.61,1.61,0,0,1,.3.9,1.88,1.88,0,0,1-.2.8,3.51,3.51,0,0,1-.5.8,10,10,0,0,1-1.1,1.2l-.8.8v.1h2.8Z"/> <path id="Б103" class="aud-1" d="M1090,33a.94.94,0,0,1,1-1h35.5a.94.94,0,0,1,1,1V88.5a.94.94,0,0,1-1,1H1091a.94.94,0,0,1-1-1Z"/> <path id="Б103_label" class="aud-3" d="M1098.7,60h.5a3.31,3.31,0,0,1,1.9.5,1.51,1.51,0,0,1,.7,1.4c0,1.3-.9,2-2.7,2h-1.9V57.5h4.1v1.1h-2.7Zm0,2.9h.5a2.15,2.15,0,0,0,1-.2.78.78,0,0,0,.3-.7.6.6,0,0,0-.3-.6,2.68,2.68,0,0,0-1.1-.2h-.4Zm3.8-.8V61h2.4v1.1Zm6.4,1.9h-1.4V59c-.2.2-.4.4-.5.4l-.7.6-.7-.8,2.1-1.6h1.1V64Zm6.2-3.2a4.18,4.18,0,0,1-.6,2.5,2,2,0,0,1-1.7.8,2.14,2.14,0,0,1-1.7-.8,4.4,4.4,0,0,1-.6-2.5,4.18,4.18,0,0,1,.6-2.5,2,2,0,0,1,1.7-.8,2.14,2.14,0,0,1,1.7.8A4.4,4.4,0,0,1,1115.1,60.8Zm-3.1,0a5.94,5.94,0,0,0,.2,1.7.75.75,0,0,0,.7.5c.3,0,.5-.2.7-.5a7.33,7.33,0,0,0,0-3.4.75.75,0,0,0-.7-.5c-.3,0-.5.2-.7.5a3.69,3.69,0,0,0-.2,1.7Zm8-1.8a1.28,1.28,0,0,1-.4,1,1.7,1.7,0,0,1-1,.6h0a2.2,2.2,0,0,1,1.2.5,1.16,1.16,0,0,1,.4,1,1.51,1.51,0,0,1-.7,1.4,3.31,3.31,0,0,1-1.9.5,5.82,5.82,0,0,1-1.9-.3V62.5a6.89,6.89,0,0,0,.8.3,2.77,2.77,0,0,0,.9.1,2.51,2.51,0,0,0,1-.2.91.91,0,0,0,.3-.7.55.55,0,0,0-.4-.6,2.87,2.87,0,0,0-1.2-.2h-.5v-1h.5a2.68,2.68,0,0,0,1.1-.2.78.78,0,0,0,.3-.7c0-.5-.3-.7-.9-.7a2,2,0,0,0-.7.1,2.51,2.51,0,0,0-.7.4l-.6-.9a3.7,3.7,0,0,1,2.1-.6,2.54,2.54,0,0,1,1.6.4c.4.3.7.5.7,1Z"/> <path id="Б104" class="aud-1" d="M1130,33a.94.94,0,0,1,1-1h35.5a.94.94,0,0,1,1,1V88.5a.94.94,0,0,1-1,1H1131a.94.94,0,0,1-1-1Z"/> <path id="Б104_label" class="aud-3" d="M1138.7,60h.5a3.31,3.31,0,0,1,1.9.5,1.51,1.51,0,0,1,.7,1.4c0,1.3-.9,2-2.7,2h-1.9V57.5h4.1v1.1h-2.7Zm0,2.9h.5a2.15,2.15,0,0,0,1-.2.78.78,0,0,0,.3-.7.6.6,0,0,0-.3-.6,2.68,2.68,0,0,0-1.1-.2h-.4Zm3.8-.8V61h2.4v1.1Zm6.4,1.9h-1.4V59c-.2.2-.4.4-.5.4l-.7.6-.7-.8,2.1-1.6h1.1V64Zm6.2-3.2a4.18,4.18,0,0,1-.6,2.5,2,2,0,0,1-1.7.8,2.14,2.14,0,0,1-1.7-.8,4.4,4.4,0,0,1-.6-2.5,4.18,4.18,0,0,1,.6-2.5,2,2,0,0,1,1.7-.8,2.14,2.14,0,0,1,1.7.8A4.4,4.4,0,0,1,1155.1,60.8Zm-3.1,0a5.94,5.94,0,0,0,.2,1.7.75.75,0,0,0,.7.5c.3,0,.5-.2.7-.5a7.33,7.33,0,0,0,0-3.4.75.75,0,0,0-.7-.5c-.3,0-.5.2-.7.5a3.69,3.69,0,0,0-.2,1.7Zm8.4,1.8h-.8v1.3h-1.3V62.6h-2.7v-.9l2.8-4.1h1.3v4h.8v1Zm-2.1-1V59.1h0a2.51,2.51,0,0,1-.4.7l-1.2,1.8Z"/> <path id="Б105" class="aud-1" d="M1224,32h-53a.94.94,0,0,0-1,1V88.5a.94.94,0,0,0,1,1h15.5a.94.94,0,0,1,1,1V106a.94.94,0,0,0,1,1H1224a.94.94,0,0,0,1-1V33A.94.94,0,0,0,1224,32Z"/> <path id="Б105_label" class="aud-3" d="M1187.7,60h.5a3.31,3.31,0,0,1,1.9.5,1.51,1.51,0,0,1,.7,1.4c0,1.3-.9,2-2.7,2h-1.9V57.5h4.1v1.1h-2.7Zm0,2.9h.5a2.15,2.15,0,0,0,1-.2.78.78,0,0,0,.3-.7.6.6,0,0,0-.3-.6,2.68,2.68,0,0,0-1.1-.2h-.4Zm3.8-.8V61h2.4v1.1Zm6.4,1.9h-1.4V59c-.2.2-.4.4-.5.4l-.7.6-.7-.8,2.1-1.6h1.1V64Zm6.2-3.2a4.18,4.18,0,0,1-.6,2.5,2,2,0,0,1-1.7.8,2.14,2.14,0,0,1-1.7-.8,4.4,4.4,0,0,1-.6-2.5,4.18,4.18,0,0,1,.6-2.5,2,2,0,0,1,1.7-.8,2.14,2.14,0,0,1,1.7.8A4.4,4.4,0,0,1,1204.1,60.8Zm-3.1,0a5.94,5.94,0,0,0,.2,1.7.75.75,0,0,0,.7.5c.3,0,.5-.2.7-.5a7.33,7.33,0,0,0,0-3.4.75.75,0,0,0-.7-.5c-.3,0-.5.2-.7.5a3.69,3.69,0,0,0-.2,1.7Zm6.1-.9a2.46,2.46,0,0,1,1.5.5,1.68,1.68,0,0,1,.6,1.4,2.06,2.06,0,0,1-.7,1.7,2.71,2.71,0,0,1-1.9.6,4,4,0,0,1-1.7-.3V62.6a6.89,6.89,0,0,0,.8.3,2.77,2.77,0,0,0,.9.1c.8,0,1.2-.3,1.2-1s-.4-1-1.3-1h-.5c-.2,0-.3.1-.5.1l-.5-.3.2-3.3h3.5v1.2h-2.3l-.1,1.3h.2A1.27,1.27,0,0,1,1207.1,59.9Z"/> <path id="Б106" class="aud-1" d="M1187.5,128a.94.94,0,0,1,1-1H1224a.94.94,0,0,1,1,1v45.5a.94.94,0,0,1-1,1h-35.5a.94.94,0,0,1-1-1Z"/> <path id="Б106_label" class="aud-3" d="M1196.2,150h.5a3.31,3.31,0,0,1,1.9.5,1.51,1.51,0,0,1,.7,1.4c0,1.3-.9,2-2.7,2h-1.9v-6.4h4.1v1.1h-2.7Zm0,2.9h.5a2.15,2.15,0,0,0,1-.2.78.78,0,0,0,.3-.7.6.6,0,0,0-.3-.6,2.68,2.68,0,0,0-1.1-.2h-.4Zm3.8-.8V151h2.4v1.1Zm6.4,1.9H1205v-5c-.2.2-.4.4-.5.4l-.7.6-.7-.8,2.1-1.6h1.1V154Zm6.2-3.2a4.18,4.18,0,0,1-.6,2.5,2,2,0,0,1-1.7.8,2.14,2.14,0,0,1-1.7-.8,5.51,5.51,0,0,1,0-5,2,2,0,0,1,1.7-.8,2.14,2.14,0,0,1,1.7.8,4.4,4.4,0,0,1,.6,2.5Zm-3.1,0a5.94,5.94,0,0,0,.2,1.7.75.75,0,0,0,.7.5c.3,0,.5-.2.7-.5a7.32,7.32,0,0,0,0-3.4.75.75,0,0,0-.7-.5c-.3,0-.5.2-.7.5a3.69,3.69,0,0,0-.2,1.7Zm3.8.4a4.25,4.25,0,0,1,.8-2.8,3,3,0,0,1,2.4-.9,2.22,2.22,0,0,1,.9.1v1.1a2.2,2.2,0,0,0-.8-.1,3.09,3.09,0,0,0-1.1.2,1.34,1.34,0,0,0-.7.6,10.38,10.38,0,0,0-.3,1.2h.1a1.51,1.51,0,0,1,1.4-.7,1.73,1.73,0,0,1,1.3.5,2.46,2.46,0,0,1,.5,1.5,2.06,2.06,0,0,1-2.2,2.2,2.13,2.13,0,0,1-1.2-.3,1.65,1.65,0,0,1-.8-1,4.15,4.15,0,0,1-.3-1.6Zm2.3,1.8a.91.91,0,0,0,.7-.3,1.08,1.08,0,0,0,.2-.8,1.17,1.17,0,0,0-.2-.7.78.78,0,0,0-.7-.3.91.91,0,0,0-.7.3.86.86,0,0,0-.3.6,1.61,1.61,0,0,0,.3.9.91.91,0,0,0,.7.3Z"/> <path id="Б107" class="aud-1" d="M1187.5,178a.94.94,0,0,1,1-1H1224a.94.94,0,0,1,1,1v43a.94.94,0,0,1-1,1h-35.5a.94.94,0,0,1-1-1Z"/> <path id="Б107_label" class="aud-3" d="M1196.2,199h.5a3.31,3.31,0,0,1,1.9.5,1.51,1.51,0,0,1,.7,1.4c0,1.3-.9,2-2.7,2h-1.9v-6.4h4.1v1.1h-2.7Zm0,2.9h.5a2.15,2.15,0,0,0,1-.2.78.78,0,0,0,.3-.7.6.6,0,0,0-.3-.6,2.68,2.68,0,0,0-1.1-.2h-.4Zm3.8-.8V200h2.4v1.1Zm6.4,1.9H1205v-5c-.2.2-.4.4-.5.4l-.7.6-.7-.8,2.1-1.6h1.1V203Zm6.2-3.2a4.18,4.18,0,0,1-.6,2.5,2,2,0,0,1-1.7.8,2.14,2.14,0,0,1-1.7-.8,5.51,5.51,0,0,1,0-5,2,2,0,0,1,1.7-.8,2.14,2.14,0,0,1,1.7.8,4.4,4.4,0,0,1,.6,2.5Zm-3.1,0a5.94,5.94,0,0,0,.2,1.7.75.75,0,0,0,.7.5c.3,0,.5-.2.7-.5a7.32,7.32,0,0,0,0-3.4.75.75,0,0,0-.7-.5c-.3,0-.5.2-.7.5a3.69,3.69,0,0,0-.2,1.7Zm4.4,3.2,2.4-5.3h-3.2v-1.1h4.6v.9l-2.4,5.6h-1.4Z"/> <path id="Б108" class="aud-1" d="M1187.5,225.5a.94.94,0,0,1,1-1H1224a.94.94,0,0,1,1,1V251a.94.94,0,0,1-1,1h-35.5a.94.94,0,0,1-1-1Z"/> <path id="Б108_label" class="aud-3" d="M1196.2,237.5h.5a3.31,3.31,0,0,1,1.9.5,1.51,1.51,0,0,1,.7,1.4c0,1.3-.9,2-2.7,2h-1.9V235h4.1v1.1h-2.7Zm0,2.9h.5a2.15,2.15,0,0,0,1-.2.78.78,0,0,0,.3-.7.6.6,0,0,0-.3-.6,2.68,2.68,0,0,0-1.1-.2h-.4Zm3.8-.8v-1.1h2.4v1.1Zm6.4,1.9H1205v-5c-.2.2-.4.4-.5.4l-.7.6-.7-.8,2.1-1.6h1.1v6.4Zm6.2-3.2a4.18,4.18,0,0,1-.6,2.5,2,2,0,0,1-1.7.8,2.14,2.14,0,0,1-1.7-.8,5.51,5.51,0,0,1,0-5,2,2,0,0,1,1.7-.8,2.14,2.14,0,0,1,1.7.8,4.4,4.4,0,0,1,.6,2.5Zm-3.1,0a5.94,5.94,0,0,0,.2,1.7.75.75,0,0,0,.7.5c.3,0,.5-.2.7-.5a7.32,7.32,0,0,0,0-3.4.75.75,0,0,0-.7-.5c-.3,0-.5.2-.7.5a3.69,3.69,0,0,0-.2,1.7Zm6-3.3a2.41,2.41,0,0,1,1.5.4,1.38,1.38,0,0,1,.6,1.1,1.61,1.61,0,0,1-.3.9,2.18,2.18,0,0,1-.9.7,2.9,2.9,0,0,1,1,.8,1.62,1.62,0,0,1-.3,2.2,2.77,2.77,0,0,1-1.6.5,2.86,2.86,0,0,1-1.7-.4,1.49,1.49,0,0,1-.6-1.3,1.69,1.69,0,0,1,.3-1,3.63,3.63,0,0,1,.9-.8,2.85,2.85,0,0,1-.8-.7,1.49,1.49,0,0,1-.2-.9,1.25,1.25,0,0,1,.6-1.1,2.41,2.41,0,0,1,1.5-.4Zm-1,4.8a.71.71,0,0,0,.3.6.84.84,0,0,0,.7.2,1.88,1.88,0,0,0,.8-.2c.2-.1.2-.3.2-.6a.76.76,0,0,0-.2-.5,1.58,1.58,0,0,0-.8-.5c-.7.2-1,.5-1,1Zm1-3.8a1.42,1.42,0,0,0-.6.2.76.76,0,0,0-.2.5c0,.2.1.3.2.5a.65.65,0,0,0,1.2,0,.73.73,0,0,0,0-1,.73.73,0,0,0-.6-.2Z"/> <path id="Б109" class="aud-1" d="M1187.5,255.5a.94.94,0,0,1,1-1H1224a.94.94,0,0,1,1,1v13a.94.94,0,0,1-1,1h-35.5a.94.94,0,0,1-1-1Z"/> <path id="Б109_label" class="aud-3" d="M1196.2,261.5h.5a3.31,3.31,0,0,1,1.9.5,1.51,1.51,0,0,1,.7,1.4c0,1.3-.9,2-2.7,2h-1.9V259h4.1v1.1h-2.7Zm0,2.9h.5a2.15,2.15,0,0,0,1-.2.78.78,0,0,0,.3-.7.6.6,0,0,0-.3-.6,2.68,2.68,0,0,0-1.1-.2h-.4Zm3.8-.8v-1.1h2.4v1.1Zm6.4,1.9H1205v-5c-.2.2-.4.4-.5.4l-.7.6-.7-.8,2.1-1.6h1.1v6.4Zm6.2-3.2a4.18,4.18,0,0,1-.6,2.5,2,2,0,0,1-1.7.8,2.14,2.14,0,0,1-1.7-.8,5.51,5.51,0,0,1,0-5,2,2,0,0,1,1.7-.8,2.14,2.14,0,0,1,1.7.8A4.4,4.4,0,0,1,1212.6,262.3Zm-3.1,0a5.94,5.94,0,0,0,.2,1.7.75.75,0,0,0,.7.5c.3,0,.5-.2.7-.5a7.32,7.32,0,0,0,0-3.4.75.75,0,0,0-.7-.5c-.3,0-.5.2-.7.5a3.69,3.69,0,0,0-.2,1.7Zm8.3-.5a4.25,4.25,0,0,1-.8,2.8,3,3,0,0,1-2.4.9,2.22,2.22,0,0,1-.9-.1v-1.1a2,2,0,0,0,.8.1,3.59,3.59,0,0,0,1.1-.2,1.34,1.34,0,0,0,.7-.6,3.5,3.5,0,0,0,.3-1.2h-.1a1.7,1.7,0,0,1-.6.6,1.88,1.88,0,0,1-.8.2,1.73,1.73,0,0,1-1.3-.5,2.46,2.46,0,0,1-.5-1.5,2.06,2.06,0,0,1,2.2-2.2,2.13,2.13,0,0,1,1.2.3,2.09,2.09,0,0,1,.8,1A3.34,3.34,0,0,1,1217.8,261.8Zm-2.4-1.7a.91.91,0,0,0-.7.3,1.08,1.08,0,0,0-.2.8,1.17,1.17,0,0,0,.2.7.78.78,0,0,0,.7.3.91.91,0,0,0,.7-.3.86.86,0,0,0,.3-.6,1.61,1.61,0,0,0-.3-.9A.78.78,0,0,0,1215.4,260.1Z"/> <path id="Б110" class="aud-1" d="M1145,273a.94.94,0,0,1,1-1h78a.94.94,0,0,1,1,1v25.5a.94.94,0,0,1-1,1h-78a.94.94,0,0,1-1-1Z"/> <path id="Б110_label" class="aud-3" d="M1174.7,285h.5a3.31,3.31,0,0,1,1.9.5,1.51,1.51,0,0,1,.7,1.4c0,1.3-.9,2-2.7,2h-1.9v-6.4h4.1v1.1h-2.7Zm0,2.9h.5a2.15,2.15,0,0,0,1-.2.78.78,0,0,0,.3-.7.6.6,0,0,0-.3-.6,2.68,2.68,0,0,0-1.1-.2h-.4Zm3.8-.8V286h2.4v1.1Zm6.4,1.9h-1.4v-5c-.2.2-.4.4-.5.4l-.7.6-.7-.8,2.1-1.6h1.1V289Zm5.1,0h-1.4v-5c-.2.2-.4.4-.5.4l-.7.6-.7-.8,2.1-1.6h1.1V289Zm6.3-3.2a4.18,4.18,0,0,1-.6,2.5,2,2,0,0,1-1.7.8,2.14,2.14,0,0,1-1.7-.8,5.51,5.51,0,0,1,0-5,2,2,0,0,1,1.7-.8,2.14,2.14,0,0,1,1.7.8A4.4,4.4,0,0,1,1196.3,285.8Zm-3.2,0a5.94,5.94,0,0,0,.2,1.7.75.75,0,0,0,.7.5c.3,0,.5-.2.7-.5a7.32,7.32,0,0,0,0-3.4.74.74,0,0,0-1.4,0A5.94,5.94,0,0,0,1193.1,285.8Z"/> <path id="Б1091" class="aud-1" d="M1145,225.5a.94.94,0,0,1,1-1h20.5a.94.94,0,0,1,1,1V251a.94.94,0,0,1-1,1H1146a.94.94,0,0,1-1-1Z"/> <path id="Б1091_label" class="aud-3" d="M1155.9,248.8v-.4a2.08,2.08,0,0,1,.4-1.5,1.17,1.17,0,0,1,1.1-.5c1,0,1.6.7,1.6,2.1V250h-5v-3.3h.9v2.1Zm2.2,0v-.4a1.55,1.55,0,0,0-.2-.8c-.1-.2-.3-.2-.5-.2a.55.55,0,0,0-.5.3,2,2,0,0,0-.2.9v.3h1.4Zm-.5-3h-.9V244h.9Zm1.4-4.9V242h-3.9c.2.2.3.3.3.4l.5.6-.6.5-1.3-1.6V241Zm-2.5-4.9a3.16,3.16,0,0,1,1.9.4,1.71,1.71,0,0,1,0,2.6,3.36,3.36,0,0,1-1.9.4,3.16,3.16,0,0,1-1.9-.4,1.49,1.49,0,0,1-.6-1.3,1.36,1.36,0,0,1,.7-1.3,3.67,3.67,0,0,1,1.8-.4Zm0,2.4a3.47,3.47,0,0,0,1.3-.2.51.51,0,0,0,0-1,3.92,3.92,0,0,0-1.3-.2,3.47,3.47,0,0,0-1.3.2.51.51,0,0,0,0,1,2.36,2.36,0,0,0,1.3.2Zm-.4-6.4a3.4,3.4,0,0,1,2.2.6,2.23,2.23,0,0,1,.7,1.9,1.48,1.48,0,0,1-.1.7h-.8c0-.2.1-.4.1-.6a2.39,2.39,0,0,0-.2-.9.82.82,0,0,0-.5-.5,2,2,0,0,0-.9-.2h0a.66.66,0,0,1,.4.5,1.27,1.27,0,0,1,.1.6,1.16,1.16,0,0,1-.4,1,1.59,1.59,0,0,1-1.2.4,1.9,1.9,0,0,1-1.3-.5,1.66,1.66,0,0,1-.5-1.2,1.69,1.69,0,0,1,.3-1,1.24,1.24,0,0,1,.8-.6,6.88,6.88,0,0,1,1.3-.2Zm-1.3,1.8a.76.76,0,0,0,.2.5,1.07,1.07,0,0,0,.6.2,1.42,1.42,0,0,0,.6-.2.72.72,0,0,0,0-1c-.1-.2-.3-.2-.5-.2a1.45,1.45,0,0,0-.7.2.76.76,0,0,0-.2.5Zm2.8-2.3h-.9v-1.8h.9Zm1.4-4.9v1.1h-3.9c.2.2.3.3.3.4l.5.6-.6.5-1.3-1.6v-.9h5Z"/> <path id="Б1081" class="aud-1" d="M1120,225.5a.94.94,0,0,1,1-1h20.5a.94.94,0,0,1,1,1V251a.94.94,0,0,1-1,1H1121a.94.94,0,0,1-1-1Z"/> <path id="Б1081_label" class="aud-3" d="M1130.9,248.8v-.4a2.08,2.08,0,0,1,.4-1.5,1.17,1.17,0,0,1,1.1-.5c1,0,1.6.7,1.6,2.1V250h-5v-3.3h.9v2.1Zm2.2,0v-.4a1.55,1.55,0,0,0-.2-.8c-.1-.2-.3-.2-.5-.2a.55.55,0,0,0-.5.3,2,2,0,0,0-.2.9v.3h1.4Zm-.5-3h-.9V244h.9Zm1.4-4.9V242h-3.9c.2.2.3.3.3.4l.5.6-.6.5-1.3-1.6V241Zm-2.5-4.9a3.16,3.16,0,0,1,1.9.4,1.71,1.71,0,0,1,0,2.6,3.36,3.36,0,0,1-1.9.4,3.16,3.16,0,0,1-1.9-.4,1.49,1.49,0,0,1-.6-1.3,1.36,1.36,0,0,1,.7-1.3,3.67,3.67,0,0,1,1.8-.4Zm0,2.4a3.47,3.47,0,0,0,1.3-.2.51.51,0,0,0,0-1,3.92,3.92,0,0,0-1.3-.2,3.47,3.47,0,0,0-1.3.2.51.51,0,0,0,0,1,2.36,2.36,0,0,0,1.3.2Zm-2.5-4.7a2.13,2.13,0,0,1,.3-1.2,1,1,0,0,1,.9-.4,1.45,1.45,0,0,1,.7.2,1.28,1.28,0,0,1,.5.7,2.76,2.76,0,0,1,.6-.8,1,1,0,0,1,.7-.2,1.39,1.39,0,0,1,1,.5,2.23,2.23,0,0,1,.4,1.3,2.5,2.5,0,0,1-.3,1.3,1.23,1.23,0,0,1-1,.5,2.35,2.35,0,0,1-.8-.2,4.35,4.35,0,0,1-.6-.7,1.7,1.7,0,0,1-.6.6,1.45,1.45,0,0,1-.7.2,1.09,1.09,0,0,1-.9-.4,6.75,6.75,0,0,1-.2-1.4Zm3.7.8c.2,0,.3-.1.5-.2a1,1,0,0,0,0-1.2.5.5,0,0,0-.8,0,1.54,1.54,0,0,0-.4.6c.1.6.3.8.7.8Zm-3-.7c0,.2,0,.3.1.4a.52.52,0,0,0,.4.2.6.6,0,0,0,.4-.1,1.07,1.07,0,0,0,.3-.5,2.19,2.19,0,0,0-.3-.5c-.1-.1-.2-.1-.4-.1a.52.52,0,0,0-.4.2A1,1,0,0,0,1129.7,233.8Zm2.9-2.3h-.9v-1.8h.9Zm1.4-4.9v1.1h-3.9c.2.2.3.3.3.4l.5.6-.6.5-1.3-1.6v-.9h5Z"/> <path id="Б116" class="aud-1" d="M1120,273a.94.94,0,0,1,1-1h20.5a.94.94,0,0,1,1,1v25.5a.94.94,0,0,1-1,1H1121a.94.94,0,0,1-1-1Z"/> <path id="Б116_label" class="aud-3" d="M1130.6,295.8v-.5a3.31,3.31,0,0,1,.5-1.9,1.51,1.51,0,0,1,1.4-.7c1.3,0,2,.9,2,2.7v1.9h-6.4v-4.1h1.1v2.7Zm2.8,0v-.5a2.15,2.15,0,0,0-.2-1,.91.91,0,0,0-.7-.3.6.6,0,0,0-.6.3,2.68,2.68,0,0,0-.2,1.1v.3Zm-.8-3.8h-1.1v-2.4h1.1Zm1.9-6.4V287h-5c.2.2.4.4.4.5l.6.7-.8.7-1.6-2.1v-1.1h6.4Zm0-5.1v1.4h-5c.2.2.4.4.4.5l.6.7-.8.7-1.6-2.1v-1.1h6.4Zm-2.7-1.8a4.25,4.25,0,0,1-2.8-.8,3,3,0,0,1-.9-2.4,2.22,2.22,0,0,1,.1-.9h1.1a2.2,2.2,0,0,0-.1.8,3.09,3.09,0,0,0,.2,1.1,1.34,1.34,0,0,0,.6.7,10.38,10.38,0,0,0,1.2.3v-.1a1.51,1.51,0,0,1-.7-1.4,1.73,1.73,0,0,1,.5-1.3,2.46,2.46,0,0,1,1.5-.5,2.06,2.06,0,0,1,2.2,2.2,2.13,2.13,0,0,1-.3,1.2,1.65,1.65,0,0,1-1,.8,4.15,4.15,0,0,1-1.6.3Zm1.7-2.3a.91.91,0,0,0-.3-.7,1.08,1.08,0,0,0-.8-.2,1.17,1.17,0,0,0-.7.2.78.78,0,0,0-.3.7.91.91,0,0,0,.3.7.86.86,0,0,0,.6.3,1.61,1.61,0,0,0,.9-.3A.91.91,0,0,0,1133.5,276.4Z"/> <path id="Б112" class="aud-1" d="M1062.5,273a.94.94,0,0,1,1-1h33a.94.94,0,0,1,1,1v25.5a.94.94,0,0,1-1,1h-33a.94.94,0,0,1-1-1Z"/> <path id="Б112_label" class="aud-3" d="M1069.7,285h.5a3.31,3.31,0,0,1,1.9.5,1.51,1.51,0,0,1,.7,1.4c0,1.3-.9,2-2.7,2h-1.9v-6.4h4.1v1.1h-2.7Zm0,2.9h.5a2.15,2.15,0,0,0,1-.2.78.78,0,0,0,.3-.7.6.6,0,0,0-.3-.6,2.68,2.68,0,0,0-1.1-.2h-.4Zm3.8-.8V286h2.4v1.1Zm6.4,1.9h-1.4v-5c-.2.2-.4.4-.5.4l-.7.6-.7-.8,2.1-1.6h1.1V289Zm5.1,0h-1.4v-5c-.2.2-.4.4-.5.4l-.7.6-.7-.8,2.1-1.6h1.1V289Zm6.3,0h-4.5v-.9l1.6-1.6a5.8,5.8,0,0,0,.9-1c.1-.2.3-.4.3-.5a.9.9,0,0,0,.1-.5,1.07,1.07,0,0,0-.2-.6.85.85,0,0,0-.6-.2,1.85,1.85,0,0,0-.7.2,3,3,0,0,0-.7.5l-.7-.9a3.28,3.28,0,0,1,.8-.6,4.88,4.88,0,0,1,.7-.3,2,2,0,0,1,.8-.1,3.59,3.59,0,0,1,1.1.2,1.41,1.41,0,0,1,.7.6,1.61,1.61,0,0,1,.3.9,1.88,1.88,0,0,1-.2.8,3.51,3.51,0,0,1-.5.8,6.58,6.58,0,0,1-1.2,1.2l-.8.8v.1h2.8Z"/> <path id="Б111" class="aud-1" d="M1050,225.5a.94.94,0,0,1,1-1h45.5a.94.94,0,0,1,1,1V251a.94.94,0,0,1-1,1H1051a.94.94,0,0,1-1-1Z"/> <path id="Б111_label" class="aud-3" d="M1063.7,237.5h.5a3.31,3.31,0,0,1,1.9.5,1.51,1.51,0,0,1,.7,1.4c0,1.3-.9,2-2.7,2h-1.9V235h4.1v1.1h-2.7Zm0,2.9h.5a2.15,2.15,0,0,0,1-.2.78.78,0,0,0,.3-.7.6.6,0,0,0-.3-.6,2.68,2.68,0,0,0-1.1-.2h-.4Zm3.8-.8v-1.1h2.4v1.1Zm6.4,1.9h-1.4v-5c-.2.2-.4.4-.5.4l-.7.6-.7-.8,2.1-1.6h1.1v6.4Zm5.1,0h-1.4v-5c-.2.2-.4.4-.5.4l-.7.6-.7-.8,2.1-1.6h1.1v6.4Zm5.2,0h-1.4v-5c-.2.2-.4.4-.5.4l-.7.6-.7-.8,2.1-1.6h1.1v6.4Z"/> <path id="Б113" class="aud-1" d="M1027.5,273a.94.94,0,0,1,1-1H1059a.94.94,0,0,1,1,1v25.5a.94.94,0,0,1-1,1h-30.5a.94.94,0,0,1-1-1Z"/> <path id="Б113_label" class="aud-3" d="M1033.7,285h.5a3.31,3.31,0,0,1,1.9.5,1.51,1.51,0,0,1,.7,1.4c0,1.3-.9,2-2.7,2h-1.9v-6.4h4.1v1.1h-2.7Zm0,2.9h.5a2.15,2.15,0,0,0,1-.2.78.78,0,0,0,.3-.7.6.6,0,0,0-.3-.6,2.68,2.68,0,0,0-1.1-.2h-.4Zm3.8-.8V286h2.4v1.1Zm6.4,1.9h-1.4v-5c-.2.2-.4.4-.5.4l-.7.6-.7-.8,2.1-1.6h1.1V289Zm5.1,0h-1.4v-5c-.2.2-.4.4-.5.4l-.7.6-.7-.8,2.1-1.6h1.1V289Zm6-5a1.28,1.28,0,0,1-.4,1,1.7,1.7,0,0,1-1,.6h0a2.2,2.2,0,0,1,1.2.5,1.16,1.16,0,0,1,.4,1,1.51,1.51,0,0,1-.7,1.4,3.31,3.31,0,0,1-1.9.5,5.82,5.82,0,0,1-1.9-.3v-1.2a6.89,6.89,0,0,0,.8.3,2.77,2.77,0,0,0,.9.1,2.51,2.51,0,0,0,1-.2.91.91,0,0,0,.3-.7.55.55,0,0,0-.4-.6,2.87,2.87,0,0,0-1.2-.2h-.5v-1h.5a2.68,2.68,0,0,0,1.1-.2.78.78,0,0,0,.3-.7c0-.5-.3-.7-.9-.7a1.27,1.27,0,0,0-.6.1,2.51,2.51,0,0,0-.7.4l-.6-.9a3.7,3.7,0,0,1,2.1-.6,2.54,2.54,0,0,1,1.6.4c.4.3.6.5.6,1Z"/> <path id="Б114" class="aud-1" d="M992.5,273a.94.94,0,0,1,1-1H1024a.94.94,0,0,1,1,1v25.5a.94.94,0,0,1-1,1H993.5a.94.94,0,0,1-1-1Z"/> <path id="Б114_label" class="aud-3" d="M998.7,285h.5a3.31,3.31,0,0,1,1.9.5,1.51,1.51,0,0,1,.7,1.4c0,1.3-.9,2-2.7,2h-1.9v-6.4h4.1v1.1h-2.7V285Zm0,2.9h.5a2.15,2.15,0,0,0,1-.2.78.78,0,0,0,.3-.7.6.6,0,0,0-.3-.6,2.68,2.68,0,0,0-1.1-.2h-.4Zm3.8-.8V286h2.4v1.1Zm6.4,1.9h-1.4v-5c-.2.2-.4.4-.5.4l-.7.6-.7-.8,2.1-1.6h1.1Zm5.1,0h-1.4v-5c-.2.2-.4.4-.5.4l-.7.6-.7-.8,2.1-1.6h1.1Zm6.4-1.4h-.8v1.3h-1.3v-1.3h-2.7v-.9l2.8-4.1h1.3v4h.8v1Zm-2.1-1v-2.5h0a2.51,2.51,0,0,1-.4.7l-1.2,1.8Z"/> <path id="Б1111" class="aud-1" d="M1010,225.5a.94.94,0,0,1,1-1h35.5a.94.94,0,0,1,1,1V251a.94.94,0,0,1-1,1H1011a.94.94,0,0,1-1-1Z"/> <path id="Б1111_label" class="aud-3" d="M1015.2,237.5h.5a3.31,3.31,0,0,1,1.9.5,1.51,1.51,0,0,1,.7,1.4c0,1.3-.9,2-2.7,2h-1.9V235h4.1v1.1h-2.7v1.4Zm0,2.9h.5a2.15,2.15,0,0,0,1-.2.78.78,0,0,0,.3-.7.6.6,0,0,0-.3-.6,2.68,2.68,0,0,0-1.1-.2h-.4Zm3.8-.8v-1.1h2.4v1.1Zm6.4,1.9H1024v-5c-.2.2-.4.4-.5.4l-.7.6-.7-.8,2.1-1.6h1.1Zm5.1,0h-1.4v-5c-.2.2-.4.4-.5.4l-.7.6-.7-.8,2.1-1.6h1.1v6.4Zm5.2,0h-1.4v-5c-.2.2-.4.4-.5.4l-.7.6-.7-.8,2.1-1.6h1.1v6.4Zm1.7-1.9v-1.1h2.4v1.1Zm6.3,1.9h-1.4v-5c-.2.2-.4.4-.5.4l-.7.6-.7-.8,2.1-1.6h1.1v6.4Z"/> <path id="Б115" class="aud-1" d="M992.5,145.5a.94.94,0,0,1,1-1h53a.94.94,0,0,1,1,1V221a.94.94,0,0,1-1,1h-53a.94.94,0,0,1-1-1Z"/> <path id="Б115_label" class="aud-3" d="M1009.7,182.5h.5a3.31,3.31,0,0,1,1.9.5,1.51,1.51,0,0,1,.7,1.4c0,1.3-.9,2-2.7,2h-1.9V180h4.1v1.1h-2.7v1.4Zm0,2.9h.5a2.15,2.15,0,0,0,1-.2.78.78,0,0,0,.3-.7.6.6,0,0,0-.3-.6,2.68,2.68,0,0,0-1.1-.2h-.4Zm3.8-.8v-1.1h2.4v1.1Zm6.4,1.9h-1.4v-5c-.2.2-.4.4-.5.4l-.7.6-.7-.8,2.1-1.6h1.1Zm5.1,0h-1.4v-5c-.2.2-.4.4-.5.4l-.7.6-.7-.8,2.1-1.6h1.1Zm4.1-4.1a2.46,2.46,0,0,1,1.5.5,1.68,1.68,0,0,1,.6,1.4,2.06,2.06,0,0,1-.7,1.7,2.71,2.71,0,0,1-1.9.6,4,4,0,0,1-1.7-.3v-1.2a6.89,6.89,0,0,0,.8.3,2.77,2.77,0,0,0,.9.1c.8,0,1.2-.3,1.2-1s-.4-1-1.3-1h-.5c-.2,0-.3.1-.5.1l-.5-.3.2-3.3h3.5v1.2h-2.3l-.1,1.3h.2a1.27,1.27,0,0,1,.6-.1Z"/> <path id="Г1122" class="aud-1" d="M512.5,88a.94.94,0,0,1,1-1H539a1,1,0,0,1,1,1v18a1,1,0,0,1-1,1H513.5a.94.94,0,0,1-1-1Z"/> <path id="Г1122_label" class="aud-3" d="M517.8,94.5v.9h-2.1v4.1h-1.1v-5Zm.4,3.5v-.9H520V98Zm4.9,1.5H522V95.6c-.2.2-.3.3-.4.3l-.6.5-.5-.6,1.6-1.3h.9v5Zm4,0H526V95.6c-.2.2-.3.3-.4.3l-.6.5-.5-.6,1.6-1.3h.9v5Zm4.9,0h-3.5v-.8l1.3-1.3a3.78,3.78,0,0,0,.7-.8.76.76,0,0,0,.2-.4.6.6,0,0,0,.1-.4.52.52,0,0,0-.2-.4.6.6,0,0,0-.4-.1,1.27,1.27,0,0,0-.6.1,2.09,2.09,0,0,0-.6.4l-.6-.7c.2-.2.4-.4.6-.4s.3-.2.5-.2.4-.1.6-.1a1.88,1.88,0,0,1,.8.2,2.65,2.65,0,0,1,.6.5,1.45,1.45,0,0,1,.2.7,1.27,1.27,0,0,1-.1.6,2.09,2.09,0,0,1-.4.6l-.9.9-.6.6h2.2v1Zm.4-1.5v-.9h1.8V98Zm5.8,1.5h-3.5v-.8l1.3-1.3a3.78,3.78,0,0,0,.7-.8.76.76,0,0,0,.2-.4c0-.1.1-.3.1-.4a.52.52,0,0,0-.2-.4.6.6,0,0,0-.4-.1,1.27,1.27,0,0,0-.6.1,2.09,2.09,0,0,0-.6.4l-.6-.7a1.52,1.52,0,0,1,.6-.4c.2-.1.3-.2.5-.2s.4-.1.6-.1a1.88,1.88,0,0,1,.8.2,2.65,2.65,0,0,1,.6.5,1.45,1.45,0,0,1,.2.7,1.27,1.27,0,0,1-.1.6,2.09,2.09,0,0,1-.4.6l-.9.9-.6.6h2.2v1Z"/> <path id="Г1121" class="aud-1" d="M512.5,33a.94.94,0,0,1,1-1H539a1,1,0,0,1,1,1V83.5a1,1,0,0,1-1,1H513.5a.94.94,0,0,1-1-1Z"/> <path id="Г1121_label" class="aud-3" d="M522.6,69.1h1.1v2.7H529v1.4h-6.4Zm4.5-.4H526V66.3h1.1Zm1.9-6.4v1.4h-5c.2.2.4.4.4.5l.6.7-.8.7-1.7-2.1V62.4H529Zm0-5.1v1.4h-5c.2.2.4.4.4.5l.6.7-.8.7-1.7-2.1V57.3H529Zm0-6.3v4.5h-.9l-1.6-1.6a5.8,5.8,0,0,0-1-.9c-.2-.1-.4-.3-.5-.3a.9.9,0,0,0-.5-.1,1.07,1.07,0,0,0-.6.2.85.85,0,0,0-.2.6,1.85,1.85,0,0,0,.2.7,3,3,0,0,0,.5.7l-.9.7a3.28,3.28,0,0,1-.6-.8,4.88,4.88,0,0,1-.3-.7,2.2,2.2,0,0,1-.1-.8,3.59,3.59,0,0,1,.2-1.1,1.34,1.34,0,0,1,.6-.7,1.61,1.61,0,0,1,.9-.3,1.88,1.88,0,0,1,.8.2,3.51,3.51,0,0,1,.8.5,6.58,6.58,0,0,1,1.2,1.2l.8.8h.1V50.9Zm-1.9-.6H526V47.9h1.1ZM529,44v1.4h-5c.2.2.4.4.4.5l.6.7-.8.7-1.7-2.1V44.1H529Z"/> <path id="Г1111" class="aud-1" d="M472.5,33a.94.94,0,0,1,1-1H509a1,1,0,0,1,1,1V66a1,1,0,0,1-1,1H473.5a.94.94,0,0,1-1-1Z"/> <path id="Г1111_label" class="aud-3" d="M480.4,46.6v1.1h-2.7V53h-1.4V46.6Zm.4,4.5V50h2.4v1.1Zm6.4,1.9h-1.4V48c-.2.2-.4.4-.5.4l-.7.6-.7-.8,2.1-1.6h1.1V53Zm5.1,0h-1.4V48c-.2.2-.4.4-.5.4l-.7.6-.7-.8,2.1-1.6h1.1V53Zm5.2,0h-1.4V48c-.2.2-.4.4-.5.4l-.7.6-.7-.8,2.1-1.6h1.1V53Zm1.7-1.9V50h2.4v1.1Zm6.3,1.9h-1.4V48c-.2.2-.4.4-.5.4l-.7.6-.7-.8,2.1-1.6h1.1Z"/> <path id="Г1112" class="aud-1" d="M472.5,88a.94.94,0,0,1,1-1H509a1,1,0,0,1,1,1v18a1,1,0,0,1-1,1H473.5a.94.94,0,0,1-1-1Z"/> <path id="Г1112_label" class="aud-3" d="M480.4,93.6v1.1h-2.7V100h-1.4V93.6Zm.4,4.5V97h2.4v1.1Zm6.4,1.9h-1.4V95c-.2.2-.4.4-.5.4l-.7.6-.7-.8,2.1-1.6h1.1V100Zm5.1,0h-1.4V95c-.2.2-.4.4-.5.4l-.7.6-.7-.8,2.1-1.6h1.1V100Zm5.2,0h-1.4V95c-.2.2-.4.4-.5.4l-.7.6-.7-.8,2.1-1.6h1.1V100Zm1.7-1.9V97h2.4v1.1Zm7.4,1.9h-4.5v-.9l1.6-1.6a5.8,5.8,0,0,0,.9-1,2.19,2.19,0,0,1,.3-.5.9.9,0,0,0,.1-.5.71.71,0,0,0-.8-.8,1.85,1.85,0,0,0-.7.2,3,3,0,0,0-.7.5l-.7-.9a3.28,3.28,0,0,1,.8-.6,4.88,4.88,0,0,1,.7-.3,2,2,0,0,1,.8-.1,3.59,3.59,0,0,1,1.1.2c.3.1.5.4.7.6a1.61,1.61,0,0,1,.3.9,1.88,1.88,0,0,1-.2.8,3.51,3.51,0,0,1-.5.8,6.58,6.58,0,0,1-1.2,1.2l-.8.8v.1h2.8V100Z"/> <path id="Г1102" class="aud-1" d="M432.5,88a.94.94,0,0,1,1-1H469a.94.94,0,0,1,1,1v18a.94.94,0,0,1-1,1H433.5a.94.94,0,0,1-1-1Z"/> <path id="Г1102_label" class="aud-3" d="M440.4,93.6v1.1h-2.7V100h-1.4V93.6Zm.4,4.5V97h2.4v1.1Zm6.4,1.9h-1.4V95c-.2.2-.4.4-.5.4l-.7.6-.7-.8,2.1-1.6h1.1V100Zm5.1,0h-1.4V95c-.2.2-.4.4-.5.4l-.7.6-.7-.8,2.1-1.6h1.1V100Zm6.3-3.2a4.18,4.18,0,0,1-.6,2.5,2,2,0,0,1-1.7.8,2.14,2.14,0,0,1-1.7-.8,4.4,4.4,0,0,1-.6-2.5,5.21,5.21,0,0,1,.5-2.5,2,2,0,0,1,1.7-.8,2.14,2.14,0,0,1,1.7.8A3.73,3.73,0,0,1,458.6,96.8Zm-3.2,0a5.94,5.94,0,0,0,.2,1.7.75.75,0,0,0,.7.5c.3,0,.5-.2.7-.5a7.33,7.33,0,0,0,0-3.4.75.75,0,0,0-.7-.5c-.3,0-.5.2-.7.5a5.94,5.94,0,0,0-.2,1.7Zm3.8,1.3V97h2.4v1.1Zm7.4,1.9h-4.5v-.9l1.6-1.6a5.8,5.8,0,0,0,.9-1c.1-.2.3-.4.3-.5a.9.9,0,0,0,.1-.5.71.71,0,0,0-.8-.8,1.85,1.85,0,0,0-.7.2,3,3,0,0,0-.7.5l-.7-.9a3.28,3.28,0,0,1,.8-.6,4.88,4.88,0,0,1,.7-.3,2,2,0,0,1,.8-.1,3.59,3.59,0,0,1,1.1.2c.3.1.5.4.7.6a1.61,1.61,0,0,1,.3.9,1.88,1.88,0,0,1-.2.8,3.51,3.51,0,0,1-.5.8,6.58,6.58,0,0,1-1.2,1.2l-.8.8v.1h2.8V100Z"/> <path id="Г108" class="aud-1" d="M375,128a.94.94,0,0,1,1-1h35.5a.94.94,0,0,1,1,1v25.5a.94.94,0,0,1-1,1H376a.94.94,0,0,1-1-1Z"/> <path id="Г108_label" class="aud-3" d="M386.9,137.6v1.1h-2.7V144h-1.4v-6.4Zm.4,4.5V141h2.4v1.1Zm6.4,1.9h-1.4v-5c-.2.2-.4.4-.5.4l-.7.6-.7-.8,2.1-1.6h1.1V144Zm6.2-3.2a4.18,4.18,0,0,1-.6,2.5,2,2,0,0,1-1.7.8,2.14,2.14,0,0,1-1.7-.8,4.4,4.4,0,0,1-.6-2.5,5.21,5.21,0,0,1,.5-2.5,2,2,0,0,1,1.7-.8,2.14,2.14,0,0,1,1.7.8,3.73,3.73,0,0,1,.7,2.5Zm-3.1,0a5.94,5.94,0,0,0,.2,1.7.75.75,0,0,0,.7.5c.3,0,.5-.2.7-.5a7.33,7.33,0,0,0,0-3.4.75.75,0,0,0-.7-.5c-.3,0-.5.2-.7.5a5.94,5.94,0,0,0-.2,1.7Zm6-3.3a2.41,2.41,0,0,1,1.5.4,1.38,1.38,0,0,1,.6,1.1,1.61,1.61,0,0,1-.3.9,2.18,2.18,0,0,1-.9.7,2.9,2.9,0,0,1,1,.8,1.62,1.62,0,0,1-.3,2.2,2.77,2.77,0,0,1-1.6.5,2.86,2.86,0,0,1-1.7-.4,1.49,1.49,0,0,1-.6-1.3,1.69,1.69,0,0,1,.3-1,3.63,3.63,0,0,1,.9-.8,2.85,2.85,0,0,1-.8-.7,1.49,1.49,0,0,1-.2-.9,1.25,1.25,0,0,1,.6-1.1,2.41,2.41,0,0,1,1.5-.4Zm-1,4.8a.71.71,0,0,0,.3.6,1.45,1.45,0,0,0,.7.2,1.88,1.88,0,0,0,.8-.2.6.6,0,0,0,.3-.6.55.55,0,0,0-.3-.5,1.58,1.58,0,0,0-.8-.5C402.1,141.5,401.8,141.8,401.8,142.3Zm1-3.8a1.42,1.42,0,0,0-.6.2.76.76,0,0,0-.2.5c0,.2.1.3.2.5a.65.65,0,0,0,1.2,0,.72.72,0,0,0,0-1,.73.73,0,0,0-.6-.2Z"/> <path id="Г107" class="aud-1" d="M375,158a.94.94,0,0,1,1-1h35.5a.94.94,0,0,1,1,1v13a.94.94,0,0,1-1,1H376a.94.94,0,0,1-1-1Z"/> <path id="Г107_label" class="aud-3" d="M386.9,161.6v1.1h-2.7V168h-1.4v-6.4Zm.4,4.5V165h2.4v1.1Zm6.4,1.9h-1.4v-5c-.2.2-.4.4-.5.4l-.7.6-.7-.8,2.1-1.6h1.1V168Zm6.2-3.2a4.18,4.18,0,0,1-.6,2.5,2,2,0,0,1-1.7.8,2.14,2.14,0,0,1-1.7-.8,4.4,4.4,0,0,1-.6-2.5,5.21,5.21,0,0,1,.5-2.5,2,2,0,0,1,1.7-.8,2.14,2.14,0,0,1,1.7.8,3.73,3.73,0,0,1,.7,2.5Zm-3.1,0a5.94,5.94,0,0,0,.2,1.7.75.75,0,0,0,.7.5c.3,0,.5-.2.7-.5a7.33,7.33,0,0,0,0-3.4.75.75,0,0,0-.7-.5c-.3,0-.5.2-.7.5a5.94,5.94,0,0,0-.2,1.7Zm4.4,3.2,2.4-5.3h-3.2v-1.1H405v.9l-2.4,5.6h-1.4Z"/> <path id="Г1062" class="aud-1" d="M375,175.5a.94.94,0,0,1,1-1h35.5a.94.94,0,0,1,1,1v13a.94.94,0,0,1-1,1H376a.94.94,0,0,1-1-1Z"/> <path id="Г1062_label" class="aud-3" d="M382.9,179.1v1.1h-2.7v5.3h-1.4v-6.4Zm.4,4.5v-1.1h2.4v1.1Zm6.4,1.9h-1.4v-5c-.2.2-.4.4-.5.4l-.7.6-.7-.8,2.1-1.6h1.1v6.4Zm6.2-3.2a4.18,4.18,0,0,1-.6,2.5,2,2,0,0,1-1.7.8,2.14,2.14,0,0,1-1.7-.8,4.4,4.4,0,0,1-.6-2.5,5.21,5.21,0,0,1,.5-2.5,2,2,0,0,1,1.7-.8,2.14,2.14,0,0,1,1.7.8,3.73,3.73,0,0,1,.7,2.5Zm-3.1,0a5.94,5.94,0,0,0,.2,1.7.75.75,0,0,0,.7.5c.3,0,.5-.2.7-.5a7.33,7.33,0,0,0,0-3.4.75.75,0,0,0-.7-.5c-.3,0-.5.2-.7.5a5.94,5.94,0,0,0-.2,1.7Zm3.8.4a4.25,4.25,0,0,1,.8-2.8,3,3,0,0,1,2.4-.9,2.22,2.22,0,0,1,.9.1v1.1a2.2,2.2,0,0,0-.8-.1,3.09,3.09,0,0,0-1.1.2,1.34,1.34,0,0,0-.7.6,10.38,10.38,0,0,0-.3,1.2h.1a1.51,1.51,0,0,1,1.4-.7,1.73,1.73,0,0,1,1.3.5,2.46,2.46,0,0,1,.5,1.5,2.06,2.06,0,0,1-2.2,2.2,2.13,2.13,0,0,1-1.2-.3,1.65,1.65,0,0,1-.8-1,4.15,4.15,0,0,1-.3-1.6Zm2.3,1.8a.91.91,0,0,0,.7-.3,1.08,1.08,0,0,0,.2-.8,1.17,1.17,0,0,0-.2-.7.78.78,0,0,0-.7-.3.91.91,0,0,0-.7.3.86.86,0,0,0-.3.6,1.61,1.61,0,0,0,.3.9.91.91,0,0,0,.7.3Zm2.8-.9v-1.1h2.4v1.1Zm7.4,1.9h-4.5v-.9l1.6-1.6a5.8,5.8,0,0,0,.9-1c.1-.2.3-.4.3-.5a.9.9,0,0,0,.1-.5.71.71,0,0,0-.8-.8,1.85,1.85,0,0,0-.7.2,3,3,0,0,0-.7.5l-.7-.9a3.28,3.28,0,0,1,.8-.6,4.88,4.88,0,0,1,.7-.3,2,2,0,0,1,.8-.1,3.59,3.59,0,0,1,1.1.2c.3.1.5.4.7.6a1.61,1.61,0,0,1,.3.9,1.88,1.88,0,0,1-.2.8,3.51,3.51,0,0,1-.5.8,6.58,6.58,0,0,1-1.2,1.2l-.8.8v.1h2.8v1.1Z"/> <path id="Г1061" class="aud-1" d="M375,193a.94.94,0,0,1,1-1h35.5a.94.94,0,0,1,1,1v28a.94.94,0,0,1-1,1H376a.94.94,0,0,1-1-1Z"/> <path id="Г1061_label" class="aud-3" d="M382.9,204.1v1.1h-2.7v5.3h-1.4v-6.4Zm.4,4.5v-1.1h2.4v1.1Zm6.4,1.9h-1.4v-5c-.2.2-.4.4-.5.4l-.7.6-.7-.8,2.1-1.6h1.1v6.4Zm6.2-3.2a4.18,4.18,0,0,1-.6,2.5,2,2,0,0,1-1.7.8,2.14,2.14,0,0,1-1.7-.8,4.4,4.4,0,0,1-.6-2.5,5.21,5.21,0,0,1,.5-2.5,2,2,0,0,1,1.7-.8,2.14,2.14,0,0,1,1.7.8,3.73,3.73,0,0,1,.7,2.5Zm-3.1,0a5.94,5.94,0,0,0,.2,1.7.75.75,0,0,0,.7.5c.3,0,.5-.2.7-.5a7.33,7.33,0,0,0,0-3.4.75.75,0,0,0-.7-.5c-.3,0-.5.2-.7.5a5.94,5.94,0,0,0-.2,1.7Zm3.8.4a4.25,4.25,0,0,1,.8-2.8,3,3,0,0,1,2.4-.9,2.22,2.22,0,0,1,.9.1v1.1a2.2,2.2,0,0,0-.8-.1,3.09,3.09,0,0,0-1.1.2,1.34,1.34,0,0,0-.7.6,10.38,10.38,0,0,0-.3,1.2h.1a1.51,1.51,0,0,1,1.4-.7,1.73,1.73,0,0,1,1.3.5,2.46,2.46,0,0,1,.5,1.5,2.06,2.06,0,0,1-2.2,2.2,2.13,2.13,0,0,1-1.2-.3,1.65,1.65,0,0,1-.8-1,4.15,4.15,0,0,1-.3-1.6Zm2.3,1.8a.91.91,0,0,0,.7-.3,1.08,1.08,0,0,0,.2-.8,1.17,1.17,0,0,0-.2-.7.78.78,0,0,0-.7-.3.91.91,0,0,0-.7.3.86.86,0,0,0-.3.6,1.61,1.61,0,0,0,.3.9.91.91,0,0,0,.7.3Zm2.8-.9v-1.1h2.4v1.1Zm6.3,1.9h-1.4v-5c-.2.2-.4.4-.5.4l-.7.6-.7-.8,2.1-1.6h1.1v6.4Z"/> <path id="Г106" class="aud-1" d="M411.5,224.5H376a.94.94,0,0,0-1,1v43a.94.94,0,0,0,1,1h8a.94.94,0,0,0,1-1V253a.94.94,0,0,1,1-1h25.5a.94.94,0,0,0,1-1V225.5A.94.94,0,0,0,411.5,224.5Z"/> <path id="Г106_label" class="aud-3" d="M386.9,235.6v1.1h-2.7V242h-1.4v-6.4Zm.4,4.5V239h2.4v1.1Zm6.4,1.9h-1.4v-5c-.2.2-.4.4-.5.4l-.7.6-.7-.8,2.1-1.6h1.1V242Zm6.2-3.2a4.18,4.18,0,0,1-.6,2.5,2,2,0,0,1-1.7.8,2.14,2.14,0,0,1-1.7-.8,4.4,4.4,0,0,1-.6-2.5,5.21,5.21,0,0,1,.5-2.5,2,2,0,0,1,1.7-.8,2.14,2.14,0,0,1,1.7.8,3.73,3.73,0,0,1,.7,2.5Zm-3.1,0a5.94,5.94,0,0,0,.2,1.7.75.75,0,0,0,.7.5c.3,0,.5-.2.7-.5a7.32,7.32,0,0,0,0-3.4.75.75,0,0,0-.7-.5c-.3,0-.5.2-.7.5a5.94,5.94,0,0,0-.2,1.7Zm3.8.4a4.25,4.25,0,0,1,.8-2.8,3,3,0,0,1,2.4-.9,2.22,2.22,0,0,1,.9.1v1.1a2.2,2.2,0,0,0-.8-.1,3.09,3.09,0,0,0-1.1.2,1.34,1.34,0,0,0-.7.6,10.38,10.38,0,0,0-.3,1.2h.1a1.51,1.51,0,0,1,1.4-.7,1.73,1.73,0,0,1,1.3.5,2.46,2.46,0,0,1,.5,1.5,2.06,2.06,0,0,1-2.2,2.2,2.13,2.13,0,0,1-1.2-.3,1.65,1.65,0,0,1-.8-1,4.15,4.15,0,0,1-.3-1.6Zm2.3,1.8a.91.91,0,0,0,.7-.3,1.08,1.08,0,0,0,.2-.8,1.17,1.17,0,0,0-.2-.7.78.78,0,0,0-.7-.3.91.91,0,0,0-.7.3.86.86,0,0,0-.3.6,1.61,1.61,0,0,0,.3.9.91.91,0,0,0,.7.3Z"/> <path id="Г105" class="aud-1" d="M375,273a.94.94,0,0,1,1-1h23a.94.94,0,0,1,1,1v25.5a.94.94,0,0,1-1,1H376a.94.94,0,0,1-1-1Z"/> <path id="Г105_label" class="aud-3" d="M380.4,282.6v1.1h-2.7V289h-1.4v-6.4Zm.4,4.5V286h2.4v1.1Zm6.4,1.9h-1.4v-5c-.2.2-.4.4-.5.4l-.7.6-.7-.8,2.1-1.6h1.1V289Zm6.2-3.2a4.18,4.18,0,0,1-.6,2.5,2,2,0,0,1-1.7.8,2.14,2.14,0,0,1-1.7-.8,4.4,4.4,0,0,1-.6-2.5,5.21,5.21,0,0,1,.5-2.5,2,2,0,0,1,1.7-.8,2.14,2.14,0,0,1,1.7.8A3.73,3.73,0,0,1,393.4,285.8Zm-3.1,0a5.94,5.94,0,0,0,.2,1.7.75.75,0,0,0,.7.5c.3,0,.5-.2.7-.5a7.32,7.32,0,0,0,0-3.4.75.75,0,0,0-.7-.5c-.3,0-.5.2-.7.5A5.94,5.94,0,0,0,390.3,285.8Zm6.2-.9a2.46,2.46,0,0,1,1.5.5,1.68,1.68,0,0,1,.6,1.4,2.06,2.06,0,0,1-.7,1.7,2.71,2.71,0,0,1-1.9.6,4,4,0,0,1-1.7-.3v-1.2a6.89,6.89,0,0,0,.8.3,2.77,2.77,0,0,0,.9.1c.8,0,1.2-.3,1.2-1s-.4-1-1.3-1h-.5c-.2,0-.3.1-.5.1l-.5-.3.2-3.3h3.5v1.2h-2.3l-.1,1.3h.2C396,284.9,396.2,284.9,396.5,284.9Z"/> <path id="Г104" class="aud-1" d="M402.5,273a.94.94,0,0,1,1-1h38a.94.94,0,0,1,1,1v25.5a.94.94,0,0,1-1,1h-38a.94.94,0,0,1-1-1Z"/> <path id="Г104_label" class="aud-3" d="M415.9,282.6v1.1h-2.7V289h-1.4v-6.4Zm.4,4.5V286h2.4v1.1Zm6.4,1.9h-1.4v-5c-.2.2-.4.4-.5.4l-.7.6-.7-.8,2.1-1.6h1.1V289Zm6.2-3.2a4.18,4.18,0,0,1-.6,2.5,2,2,0,0,1-1.7.8,2.14,2.14,0,0,1-1.7-.8,4.4,4.4,0,0,1-.6-2.5,5.21,5.21,0,0,1,.5-2.5,2,2,0,0,1,1.7-.8,2.14,2.14,0,0,1,1.7.8A3.73,3.73,0,0,1,428.9,285.8Zm-3.1,0a5.94,5.94,0,0,0,.2,1.7.75.75,0,0,0,.7.5c.3,0,.5-.2.7-.5a7.32,7.32,0,0,0,0-3.4.75.75,0,0,0-.7-.5c-.3,0-.5.2-.7.5A5.94,5.94,0,0,0,425.8,285.8Zm8.4,1.8h-.8v1.3h-1.3v-1.3h-2.7v-.9l2.8-4.1h1.3v4h.8v1Zm-2.1-1v-2.5h0a2.51,2.51,0,0,1-.4.7l-1.2,1.8Z"/> <path id="Г103" class="aud-1" d="M445,273a.94.94,0,0,1,1-1h30.5a.94.94,0,0,1,1,1v25.5a.94.94,0,0,1-1,1H446a.94.94,0,0,1-1-1Z"/> <path id="Г103_label" class="aud-3" d="M454.4,282.6v1.1h-2.7V289h-1.4v-6.4Zm.4,4.5V286h2.4v1.1Zm6.4,1.9h-1.4v-5c-.2.2-.4.4-.5.4l-.7.6-.7-.8,2.1-1.6h1.1V289Zm6.2-3.2a4.18,4.18,0,0,1-.6,2.5,2,2,0,0,1-1.7.8,2.14,2.14,0,0,1-1.7-.8,4.4,4.4,0,0,1-.6-2.5,5.21,5.21,0,0,1,.5-2.5,2,2,0,0,1,1.7-.8,2.14,2.14,0,0,1,1.7.8A3.73,3.73,0,0,1,467.4,285.8Zm-3.1,0a5.94,5.94,0,0,0,.2,1.7.75.75,0,0,0,.7.5c.3,0,.5-.2.7-.5a7.32,7.32,0,0,0,0-3.4.75.75,0,0,0-.7-.5c-.3,0-.5.2-.7.5A5.94,5.94,0,0,0,464.3,285.8Zm8.1-1.8a1.28,1.28,0,0,1-.4,1,1.7,1.7,0,0,1-1,.6h0a2.2,2.2,0,0,1,1.2.5,1.16,1.16,0,0,1,.4,1,1.51,1.51,0,0,1-.7,1.4,3.31,3.31,0,0,1-1.9.5,5.82,5.82,0,0,1-1.9-.3v-1.2a6.89,6.89,0,0,0,.8.3,2.77,2.77,0,0,0,.9.1,2.51,2.51,0,0,0,1-.2.91.91,0,0,0,.3-.7.55.55,0,0,0-.4-.6,3.26,3.26,0,0,0-1.2-.2H469v-1h.5a2.68,2.68,0,0,0,1.1-.2.78.78,0,0,0,.3-.7c0-.5-.3-.7-.9-.7a1.27,1.27,0,0,0-.6.1,2.51,2.51,0,0,0-.7.4l-.6-.9a3.7,3.7,0,0,1,2.1-.6,2.54,2.54,0,0,1,1.6.4.92.92,0,0,1,.6,1Z"/> <path id="Г1021" class="aud-1" d="M480,273a.94.94,0,0,1,1-1h15.5a.94.94,0,0,1,1,1v25.5a.94.94,0,0,1-1,1H481a.94.94,0,0,1-1-1Z"/> <path id="Г1021_label" class="aud-3" d="M486.5,294.2h.9v2.1h4.1v1.1h-5Zm3.6-.4h-.9V292h.9Zm1.4-4.9V290h-3.9c.2.2.3.3.3.4l.5.6-.6.5-1.3-1.6V289h5ZM489,284a3.16,3.16,0,0,1,1.9.4,1.71,1.71,0,0,1,0,2.6,3.36,3.36,0,0,1-1.9.4,3.16,3.16,0,0,1-1.9-.4,1.49,1.49,0,0,1-.6-1.3,1.36,1.36,0,0,1,.7-1.3,3.67,3.67,0,0,1,1.8-.4Zm0,2.5a3.47,3.47,0,0,0,1.3-.2.51.51,0,0,0,0-1,3.92,3.92,0,0,0-1.3-.2,3.47,3.47,0,0,0-1.3.2.51.51,0,0,0,0,1,3.92,3.92,0,0,0,1.3.2Zm2.5-6.5v3.5h-.7l-1.3-1.3a3.78,3.78,0,0,0-.8-.7.76.76,0,0,0-.4-.2c-.1,0-.3-.1-.4-.1a.52.52,0,0,0-.4.2.6.6,0,0,0-.1.4,1.27,1.27,0,0,0,.1.6,2.09,2.09,0,0,0,.4.6l-.7.6a1.52,1.52,0,0,1-.4-.6c-.1-.2-.2-.3-.2-.5s-.1-.4-.1-.6a1.88,1.88,0,0,1,.2-.8,2.65,2.65,0,0,1,.5-.6,1.45,1.45,0,0,1,.7-.2,1.27,1.27,0,0,1,.6.1,2.09,2.09,0,0,1,.6.4l.9.9.6.6h0v-2.2Zm-1.4-.4h-.9v-1.9h.9Zm1.4-5v1.1h-3.9c.2.2.3.3.3.4l.5.6-.6.5-1.3-1.6v-.9h5Z"/> <path id="Г102" class="aud-1" d="M432.5,225.5a.94.94,0,0,1,1-1h43a.94.94,0,0,1,1,1V251a.94.94,0,0,1-1,1h-43a.94.94,0,0,1-1-1Z"/> <path id="Г102_label" class="aud-3" d="M448.4,235.1v1.1h-2.7v5.3h-1.4v-6.4Zm.4,4.5v-1.1h2.4v1.1Zm6.4,1.9h-1.4v-5c-.2.2-.4.4-.5.4l-.7.6-.7-.8,2.1-1.6h1.1v6.4Zm6.2-3.2a4.18,4.18,0,0,1-.6,2.5,2,2,0,0,1-1.7.8,2.14,2.14,0,0,1-1.7-.8,4.4,4.4,0,0,1-.6-2.5,5.21,5.21,0,0,1,.5-2.5,2,2,0,0,1,1.7-.8,2.14,2.14,0,0,1,1.7.8,3.73,3.73,0,0,1,.7,2.5Zm-3.1,0a5.94,5.94,0,0,0,.2,1.7.75.75,0,0,0,.7.5c.3,0,.5-.2.7-.5a7.32,7.32,0,0,0,0-3.4.75.75,0,0,0-.7-.5c-.3,0-.5.2-.7.5a5.94,5.94,0,0,0-.2,1.7Zm8.3,3.2h-4.5v-.9l1.6-1.6a5.8,5.8,0,0,0,.9-1c.1-.2.3-.4.3-.5a.9.9,0,0,0,.1-.5.71.71,0,0,0-.8-.8,1.85,1.85,0,0,0-.7.2,3,3,0,0,0-.7.5l-.7-.9a3.28,3.28,0,0,1,.8-.6,4.88,4.88,0,0,1,.7-.3,2,2,0,0,1,.8-.1,3.59,3.59,0,0,1,1.1.2c.3.1.5.4.7.6a1.61,1.61,0,0,1,.3.9,1.88,1.88,0,0,1-.2.8,3.51,3.51,0,0,1-.5.8,6.58,6.58,0,0,1-1.2,1.2l-.8.8v.1h2.8Z"/> <path id="Г101" class="aud-1" d="M480,225.5a.94.94,0,0,1,1-1h38a1,1,0,0,1,1,1V251a1,1,0,0,1-1,1H481a.94.94,0,0,1-1-1Z"/> <path id="Г101_label" class="aud-3" d="M492.9,235.1v1.1h-2.7v5.3h-1.4v-6.4Zm.4,4.5v-1.1h2.4v1.1Zm6.4,1.9h-1.4v-5c-.2.2-.4.4-.5.4l-.7.6-.7-.8,2.1-1.6h1.1v6.4Zm6.2-3.2a5.21,5.21,0,0,1-.5,2.5,2,2,0,0,1-1.7.8,2.14,2.14,0,0,1-1.7-.8,4.4,4.4,0,0,1-.6-2.5,5.21,5.21,0,0,1,.5-2.5,2,2,0,0,1,1.7-.8,2.14,2.14,0,0,1,1.7.8,4.4,4.4,0,0,1,.6,2.5Zm-3.1,0a5.94,5.94,0,0,0,.2,1.7.75.75,0,0,0,.7.5c.3,0,.5-.2.7-.5a7.32,7.32,0,0,0,0-3.4.75.75,0,0,0-.7-.5c-.3,0-.5.2-.7.5a5.94,5.94,0,0,0-.2,1.7Zm7.2,3.2h-1.4v-5c-.2.2-.4.4-.5.4l-.7.6-.7-.8,2.1-1.6h1.1v6.4Z"/> <path id="wc690" class="wc-1" d="M500,273a.94.94,0,0,1,1-1h18a1,1,0,0,1,1,1v25.5a1,1,0,0,1-1,1H501a.94.94,0,0,1-1-1Z"/> <path id="wc690_0" class="wc-0" d="M510,281.5a2,2,0,1,0-2-2A2,2,0,0,0,510,281.5Zm4,7.1-1.4-5.8a1.22,1.22,0,0,0-.9-.8,3,3,0,0,1-1.6.5,2.77,2.77,0,0,1-1.6-.5,1,1,0,0,0-.9.8l-1.4,5.8a.77.77,0,0,0,.8.9h1.7v3.2a.77.77,0,0,0,.7.8h1.5a.79.79,0,0,0,.8-.8v-3.2h1.7a.8.8,0,0,0,.6-.9Z"/> <path id="Г1101" class="aud-1" d="M432.5,33a.94.94,0,0,1,1-1H469a.94.94,0,0,1,1,1V66a.94.94,0,0,1-1,1H433.5a.94.94,0,0,1-1-1Z"/> <path id="Г1101_label" class="aud-3" d="M440.4,46.6v1.1h-2.7V53h-1.4V46.6Zm.4,4.5V50h2.4v1.1Zm6.4,1.9h-1.4V48c-.2.2-.4.4-.5.4l-.7.6-.7-.8,2.1-1.6h1.1V53Zm5.1,0h-1.4V48c-.2.2-.4.4-.5.4l-.7.6-.7-.8,2.1-1.6h1.1V53Zm6.3-3.2a4.18,4.18,0,0,1-.6,2.5,2,2,0,0,1-1.7.8,2.14,2.14,0,0,1-1.7-.8,4.4,4.4,0,0,1-.6-2.5,5.21,5.21,0,0,1,.5-2.5,2,2,0,0,1,1.7-.8,2.14,2.14,0,0,1,1.7.8A3.73,3.73,0,0,1,458.6,49.8Zm-3.2,0a5.94,5.94,0,0,0,.2,1.7.75.75,0,0,0,.7.5c.3,0,.5-.2.7-.5a7.32,7.32,0,0,0,0-3.4.75.75,0,0,0-.7-.5c-.3,0-.5.2-.7.5a5.94,5.94,0,0,0-.2,1.7Zm3.8,1.3V50h2.4v1.1Zm6.3,1.9h-1.4V48c-.2.2-.4.4-.5.4l-.7.6-.7-.8,2.1-1.6h1.1V53Z"/> <path id="Г1092" class="aud-1" d="M375,33a.94.94,0,0,1,1-1h53a.94.94,0,0,1,1,1V66a.94.94,0,0,1-1,1H376a.94.94,0,0,1-1-1Z"/> <path id="Г1092_label" class="aud-3" d="M391.9,46.1v1.1h-2.7v5.3h-1.4V46.1Zm.4,4.5V49.5h2.4v1.1Zm6.4,1.9h-1.4v-5c-.2.2-.4.4-.5.4l-.7.6-.7-.8,2.1-1.6h1.1v6.4Zm6.2-3.2a4.18,4.18,0,0,1-.6,2.5,2,2,0,0,1-1.7.8,2.14,2.14,0,0,1-1.7-.8,4.4,4.4,0,0,1-.6-2.5,5.21,5.21,0,0,1,.5-2.5,2,2,0,0,1,1.7-.8,2.14,2.14,0,0,1,1.7.8A3.73,3.73,0,0,1,404.9,49.3Zm-3.1,0A5.94,5.94,0,0,0,402,51a.75.75,0,0,0,.7.5c.3,0,.5-.2.7-.5a7.32,7.32,0,0,0,0-3.4.75.75,0,0,0-.7-.5c-.3,0-.5.2-.7.5A5.94,5.94,0,0,0,401.8,49.3Zm8.3-.5a4.25,4.25,0,0,1-.8,2.8,3,3,0,0,1-2.4.9,2.22,2.22,0,0,1-.9-.1V51.3a2,2,0,0,0,.8.1,3.09,3.09,0,0,0,1.1-.2,1.34,1.34,0,0,0,.7-.6,3.5,3.5,0,0,0,.3-1.2h-.1a1.7,1.7,0,0,1-.6.6,1.88,1.88,0,0,1-.8.2,1.73,1.73,0,0,1-1.3-.5,2.46,2.46,0,0,1-.5-1.5,2.06,2.06,0,0,1,2.2-2.2,2.13,2.13,0,0,1,1.2.3,1.65,1.65,0,0,1,.8,1,3.34,3.34,0,0,1,.3,1.5Zm-2.3-1.7a.91.91,0,0,0-.7.3,1.08,1.08,0,0,0-.2.8,1.17,1.17,0,0,0,.2.7.78.78,0,0,0,.7.3.91.91,0,0,0,.7-.3.86.86,0,0,0,.3-.6,1.61,1.61,0,0,0-.3-.9A1.08,1.08,0,0,0,407.8,47.1Zm2.9,3.5V49.5h2.4v1.1Zm7.4,1.9h-4.5v-.9l1.6-1.6a5.8,5.8,0,0,0,.9-1c.1-.2.3-.4.3-.5a.9.9,0,0,0,.1-.5,1.07,1.07,0,0,0-.2-.6.85.85,0,0,0-.6-.2,1.85,1.85,0,0,0-.7.2,3,3,0,0,0-.7.5l-.7-.9a3.28,3.28,0,0,1,.8-.6,4.88,4.88,0,0,1,.7-.3,2,2,0,0,1,.8-.1,3.59,3.59,0,0,1,1.1.2c.3.1.5.4.7.6a1.61,1.61,0,0,1,.3.9,1.88,1.88,0,0,1-.2.8,3.51,3.51,0,0,1-.5.8,6.58,6.58,0,0,1-1.2,1.2l-.8.8v.1h2.8v1.1Z"/> <path id="Г109" class="aud-1" d="M375,70.5a.94.94,0,0,1,1-1h35.5a.94.94,0,0,1,1,1V106a.94.94,0,0,1-1,1H376a.94.94,0,0,1-1-1Z"/> <path id="Г109_label" class="aud-3" d="M386.9,85.1v1.1h-2.7v5.3h-1.4V85.1Zm.4,4.5V88.5h2.4v1.1Zm6.4,1.9h-1.4v-5c-.2.2-.4.4-.5.4l-.7.6-.7-.8,2.1-1.6h1.1v6.4Zm6.2-3.2a4.18,4.18,0,0,1-.6,2.5,2,2,0,0,1-1.7.8,2.14,2.14,0,0,1-1.7-.8,4.4,4.4,0,0,1-.6-2.5,5.21,5.21,0,0,1,.5-2.5,2,2,0,0,1,1.7-.8,2.14,2.14,0,0,1,1.7.8A3.73,3.73,0,0,1,399.9,88.3Zm-3.1,0A5.94,5.94,0,0,0,397,90a.75.75,0,0,0,.7.5c.3,0,.5-.2.7-.5a7.33,7.33,0,0,0,0-3.4.75.75,0,0,0-.7-.5c-.3,0-.5.2-.7.5A5.94,5.94,0,0,0,396.8,88.3Zm8.3-.5a4.25,4.25,0,0,1-.8,2.8,3,3,0,0,1-2.4.9,2.22,2.22,0,0,1-.9-.1V90.3a2,2,0,0,0,.8.1,3.09,3.09,0,0,0,1.1-.2,1.34,1.34,0,0,0,.7-.6,3.5,3.5,0,0,0,.3-1.2h-.1a1.7,1.7,0,0,1-.6.6,1.88,1.88,0,0,1-.8.2,1.73,1.73,0,0,1-1.3-.5,2.46,2.46,0,0,1-.5-1.5,2.06,2.06,0,0,1,2.2-2.2,2.13,2.13,0,0,1,1.2.3,1.65,1.65,0,0,1,.8,1,3.34,3.34,0,0,1,.3,1.5Zm-2.3-1.7a.91.91,0,0,0-.7.3,1.08,1.08,0,0,0-.2.8,1.17,1.17,0,0,0,.2.7.78.78,0,0,0,.7.3.91.91,0,0,0,.7-.3.86.86,0,0,0,.3-.6,1.61,1.61,0,0,0-.3-.9A1.08,1.08,0,0,0,402.8,86.1Z"/> <path id="path246" class="corridor-dark" d="M1485,302a2.48,2.48,0,0,0,2.5-2.5V32a2.48,2.48,0,0,0-2.5-2.5H1252.5A2.48,2.48,0,0,0,1250,32V299.5a2.48,2.48,0,0,0,2.5,2.5ZM1310,112a2.48,2.48,0,0,1,2.5-2.5H1425a2.48,2.48,0,0,1,2.5,2.5V219.5a2.48,2.48,0,0,1-2.5,2.5H1312.5a2.48,2.48,0,0,1-2.5-2.5Z"/> <path id="path248" class="letter" d="M1341.7,204.1h10.6V191.5h31.6v12.6h10.6V182.7h-5.7V139.2h-34.6l-1.5,22.1c-.9,13.7-3.8,18.8-7.4,21.4h-3.6v21.4Zm16.4-21.4c2.6-4.3,4.6-11,5.3-21.4l.8-13h14v34.4Z"/> <path id="path250" class="letter" d="M677.7,358.3v19.6h3.6l8.5-12.4h.1v12.4h4.2V358.3h-3.6L682,370.6h-.2V358.3ZM697.6,378H706c4.4,0,6.8-2.3,6.8-5.4a4.59,4.59,0,0,0-4.3-4.8v-.2a4.21,4.21,0,0,0,3.5-4.2c0-2.9-2.2-5-6.5-5h-7.9Zm4.1-3.4v-5.2h3.5c2,0,3.2,1.2,3.2,2.8s-1,2.4-3.3,2.4Zm0-8v-4.9h3.2c1.8,0,2.9.9,2.9,2.4s-1.3,2.5-3,2.5Zm32.6,8.1h-2.7V358.4h-4v16.3h-8.2V358.4h-4V378h14.7v4.6h4Z"/> <path id="s83" class="s-1" d="M375,110.5a.94.94,0,0,1,1-1h39v15H376a.94.94,0,0,1-1-1Z"/> <path id="s83_0" class="s-0" d="M400.5,112.5h-2.8a.47.47,0,0,0-.5.5v2.3h-2.3a.47.47,0,0,0-.5.5v2.3h-2.3a.47.47,0,0,0-.5.5v2.3h-2.3a.5.5,0,0,0,0,1h2.8a.35.35,0,0,0,.4-.4v-2.3h2.3a.35.35,0,0,0,.4-.4v-2.3h2.3a.35.35,0,0,0,.4-.4v-2.3h2.3a.47.47,0,0,0,.5-.5c.3-.6.1-.8-.2-.8Z"/> <path id="s84" class="s-1" d="M992.5,109a.94.94,0,0,1,1-1h39v15h-39a.94.94,0,0,1-1-1Z"/> <path id="s84_0" class="s-0" d="M1018,111h-2.8a.47.47,0,0,0-.5.5v2.3h-2.3a.47.47,0,0,0-.5.5v2.3h-2.3a.47.47,0,0,0-.5.5v2.3h-2.3a.5.5,0,0,0,0,1h2.8a.35.35,0,0,0,.4-.4v-2.3h2.3a.35.35,0,0,0,.4-.4v-2.6h2.3a.35.35,0,0,0,.4-.4V112h2.3a.47.47,0,0,0,.5-.5c.3-.3.1-.5-.2-.5Z"/> </g> </svg>